<?xml version="1.0" encoding="utf-8"?>
<!-- Generator: Adobe Illustrator 26.0.1, SVG Export Plug-In . SVG Version: 6.00 Build 0)  -->
<svg version="1.1"
	 id="svg2" xmlns:cc="http://creativecommons.org/ns#" xmlns:dc="http://purl.org/dc/elements/1.1/" xmlns:inkscape="http://www.inkscape.org/namespaces/inkscape" xmlns:rdf="http://www.w3.org/1999/02/22-rdf-syntax-ns#" xmlns:sodipodi="http://sodipodi.sourceforge.net/DTD/sodipodi-0.dtd" xmlns:svg="http://www.w3.org/2000/svg"
	 xmlns="http://www.w3.org/2000/svg" xmlns:xlink="http://www.w3.org/1999/xlink" x="0px" y="0px" viewBox="0 0 1000 997.5"
	 style="enable-background:new 0 0 1000 997.5;" xml:space="preserve">
<style type="text/css">
	.st0{display:none;}
	.st1{display:inline;fill:#016FD0;}
	.st2{display:inline;fill:#FFFFFF;}
	.st3{fill:#00548D;}
	.st4{fill:#FFFFFF;}
</style>
<sodipodi:namedview  bordercolor="#666666" borderopacity="1.0" fit-margin-bottom="0" fit-margin-left="0" fit-margin-right="0" fit-margin-top="0" id="base" inkscape:current-layer="layer1" inkscape:cx="850.2929" inkscape:cy="357.59411" inkscape:document-units="px" inkscape:pageopacity="0.0" inkscape:pageshadow="2" inkscape:window-height="931" inkscape:window-maximized="1" inkscape:window-width="1680" inkscape:window-x="0" inkscape:window-y="1" inkscape:zoom="0.125" pagecolor="#ffffff" showgrid="true">
	
		<inkscape:grid  empspacing="5" enabled="true" id="grid2996" originx="-55.5px" originy="947.50002px" snapvisiblegridlinesonly="true" type="xygrid" visible="true">
		</inkscape:grid>
</sodipodi:namedview>
<g id="layer1" transform="translate(-55.5,-1002.3452)" inkscape:groupmode="layer" inkscape:label="Layer 1" class="st0">
	<path id="path3078" inkscape:connector-curvature="0" sodipodi:nodetypes="ccccccccccc" class="st1" d="M55.5,1002.3H1053v538.5
		l-49.4,77.1l49.4,68.7v313.2H55.5v-507.6l30.9-35.5l-30.9-33.9V1002.3z"/>
	<path id="path3082" inkscape:connector-curvature="0" sodipodi:nodetypes="cccccccccccccccccccc" class="st2" d="M249.1,1697.4
		v-156.6H415l17.8,23.2l18.4-23.2H1053v145.8c0,0-15.7,10.6-33.9,10.8H685.8l-20.1-24.7v24.7H600v-42.1c0,0-9,5.9-28.4,5.9h-22.4
		v36.3h-99.5l-17.8-23.7l-18,23.7H249.1z"/>
	
		<path id="path3080" inkscape:connector-curvature="0" sodipodi:nodetypes="cccccccccccccccccccccccccccccccccccccc" class="st2" d="
		M55.5,1422.8l37.4-87.2h64.7l21.2,48.8v-48.8h80.4l12.6,35.3l12.2-35.3h360.9v17.7c0,0,19-17.7,50.1-17.7l117.1,0.4l20.9,48.2
		v-48.6h67.3l18.5,27.7v-27.7h67.9v156.6h-67.9l-17.7-27.8v27.8h-98.8l-9.9-24.7h-26.6l-9.8,24.7h-67c-26.8,0-44-17.4-44-17.4v17.4
		H543.8l-20.1-24.7v24.7H148l-9.9-24.7h-26.5l-9.9,24.7H55.5V1422.8z"/>
	<path id="path3046" inkscape:connector-curvature="0" class="st1" d="M106.1,1354.9l-50.4,117.3h32.8l9.3-23.5h54.1l9.3,23.5h33.6
		l-50.4-117.3L106.1,1354.9L106.1,1354.9z M124.8,1382.2l16.5,41h-33L124.8,1382.2z"/>
	<path id="path3048" inkscape:connector-curvature="0" sodipodi:nodetypes="cccccccccccccc" class="st1" d="M198.2,1472.2v-117.3
		l46.7,0.2l27.1,75.6l26.5-75.8h46.3v117.3h-29.3v-86.4l-31.1,86.4h-25.7l-31.2-86.4v86.4H198.2z"/>
	<path id="path3050" inkscape:connector-curvature="0" sodipodi:nodetypes="ccccccccccccc" class="st1" d="M364.9,1472.2v-117.3
		h95.7v26.2h-66v20.1H459v24.7h-64.5v20.8h66v25.5L364.9,1472.2z"/>
	<path id="path3052" inkscape:connector-curvature="0" class="st1" d="M477.5,1354.9v117.3h29.3v-41.7h12.3l35.2,41.7h35.8
		l-38.6-43.2c15.8-1.3,32.2-14.9,32.2-36c0-24.7-19.4-38-41-38L477.5,1354.9L477.5,1354.9z M506.8,1381.2h33.5
		c8,0,13.9,6.3,13.9,12.3c0,7.8-7.6,12.3-13.5,12.3h-33.9L506.8,1381.2L506.8,1381.2z"/>
	<path id="path3054" inkscape:connector-curvature="0" sodipodi:nodetypes="ccccc" class="st1" d="M625.6,1472.2h-29.9v-117.3h29.9
		V1472.2z"/>
	<path id="path3056" inkscape:connector-curvature="0" sodipodi:nodetypes="ccccccccccc" class="st1" d="M696.6,1472.2h-6.5
		c-31.3,0-50.2-24.6-50.2-58.1c0-34.3,18.8-59.1,58.2-59.1h32.4v27.8H697c-16,0-27.4,12.5-27.4,31.6c0,22.7,13,32.2,31.6,32.2h7.7
		L696.6,1472.2z"/>
	<path id="path3058" inkscape:connector-curvature="0" class="st1" d="M760.4,1354.9L710,1472.2h32.8l9.3-23.5h54.1l9.3,23.5H849
		l-50.4-117.3L760.4,1354.9L760.4,1354.9z M779,1382.2l16.5,41h-33L779,1382.2L779,1382.2z"/>
	<path id="path3060" inkscape:connector-curvature="0" sodipodi:nodetypes="ccccccccccc" class="st1" d="M852.4,1472.2v-117.3h37.3
		l47.6,73.7v-73.7h29.3v117.3h-36.1l-48.8-75.6v75.6H852.4z"/>
	<path id="path3062" inkscape:connector-curvature="0" sodipodi:nodetypes="ccccccccccccc" class="st1" d="M269.2,1677.4v-117.3
		h95.7v26.2h-66v20.1h64.5v24.7h-64.5v20.8h66v25.5L269.2,1677.4z"/>
	<path id="path3064" inkscape:connector-curvature="0" sodipodi:nodetypes="ccccccccccccc" class="st1" d="M737.9,1677.4v-117.3
		h95.7v26.2h-66v20.1h64.2v24.7h-64.2v20.8h66v25.5L737.9,1677.4z"/>
	<path id="path3066" inkscape:connector-curvature="0" sodipodi:nodetypes="ccccccccccccc" class="st1" d="M368.6,1677.4l46.6-57.9
		l-47.7-59.4h36.9l28.4,36.7l28.5-36.7h35.5l-47.1,58.6l46.7,58.6h-36.9l-27.6-36.1l-26.9,36.1L368.6,1677.4z"/>
	<path id="path3068" inkscape:connector-curvature="0" class="st1" d="M499.9,1560.1v117.3H530v-37h30.9c26.1,0,45.9-13.9,45.9-40.8
		c0-22.3-15.5-39.4-42.1-39.4H499.9L499.9,1560.1z M530,1586.7h32.5c8.4,0,14.5,5.2,14.5,13.5c0,7.8-6,13.5-14.6,13.5H530V1586.7
		L530,1586.7z"/>
	<path id="path3072" inkscape:connector-curvature="0" class="st1" d="M619.4,1560.1v117.3h29.3v-41.7h12.3l35.2,41.7h35.8
		l-38.6-43.2c15.8-1.3,32.2-14.9,32.2-36c0-24.7-19.4-38-41-38L619.4,1560.1L619.4,1560.1z M648.8,1586.4h33.5
		c8,0,13.9,6.3,13.9,12.3c0,7.8-7.6,12.3-13.5,12.3h-33.9V1586.4z"/>
	<path id="path3074" inkscape:connector-curvature="0" sodipodi:nodetypes="ccccccccccccccccc" class="st1" d="M847.2,1677.4v-25.5
		h58.7c8.7,0,12.4-4.7,12.4-9.8c0-4.9-3.7-9.9-12.4-9.9h-26.5c-23,0-35.9-14-35.9-35.1c0-18.8,11.8-36.9,46-36.9h57.1l-12.3,26.4
		h-49.4c-9.4,0-12.3,5-12.3,9.7c0,4.9,3.6,10.2,10.8,10.2h27.8c25.7,0,36.8,14.6,36.8,33.7c0,20.5-12.4,37.3-38.2,37.3H847.2z"/>
	<path id="path3076" inkscape:connector-curvature="0" sodipodi:nodetypes="ccccccccccccccccc" class="st1" d="M954.8,1677.4v-25.5
		h58.7c8.7,0,12.4-4.7,12.4-9.8c0-4.9-3.7-9.9-12.4-9.9h-26.5c-23,0-35.9-14-35.9-35.1c0-18.8,11.8-36.9,46-36.9h57.1l-12.3,26.4
		h-49.4c-9.4,0-12.3,5-12.3,9.7c0,4.9,3.6,10.2,10.8,10.2h27.8c25.7,0,36.8,14.6,36.8,33.7c0,20.5-12.4,37.3-38.2,37.3H954.8z"/>
</g>
<g>
	<path class="st3" d="M0,668.4h933.8c36.6,0,66.2-29.6,66.2-66.2V330.6H0V668.4z"/>
	<path class="st4" d="M530.2,517.9l-20.6-64.5l-20.1,64.8h40.8V517.9z M529,432l46.3,136.9h-29.1l-9.2-28.4h-54.4l-9.5,28.4h-29.1
		l42.7-126.4c2.2-6.3,8-10.4,14.6-10.4C501.3,432,529,432,529,432z"/>
	<path class="st4" d="M661.2,534c0,9.9-5.3,13.3-18,13.3h-28.4v-37.4h30.8c10.9,0,15.5,4.6,15.5,13.8V534z M614.9,453.4h26.7
		c10.2,0,14.6,3.4,14.6,11.2v12.1c0,8-3.9,12.6-14.8,12.6h-26.4V453.4z M667.6,497.6c11.2-4.6,16.3-10.9,16.3-22.1v-14.1
		c0-18.4-11.2-29.1-39.1-29.1H587v136.9h61.6c26.7,0,40-12.1,40-31.3v-14.6C688.9,509.4,680.9,500.2,667.6,497.6"/>
	<path class="st4" d="M393.4,451.2h39.8v-9.9c0-7.5-6.1-13.6-13.6-13.6h-26.4c-35.7,0.2-51,14.8-51,39.6v61.6
		c0,24.8,15.3,39.3,51,39.6l0,0h38.3v-9.9c0-7.5-6.1-13.6-13.6-13.6h-24.8l0,0c-17.5-0.5-23.3-6.6-23.3-20.6v-52.7
		C370.1,458,375.9,451.7,393.4,451.2"/>
	<path class="st4" d="M864.1,546.1v-92.7v-23.5h-12.4c-8.5,0-15.3,6.8-15.3,15.3v8.3v115.3h88.1v-22.8h-60.4V546.1z"/>
	<path class="st4" d="M781.4,517.9l-20.6-64.5l-20.1,64.8h40.8V517.9z M780.2,432l46.3,136.9h-29.1l-9.2-28.4h-54.4l-9.5,28.4h-29.1
		l41.5-122.5c2.9-8.5,10.9-14.3,19.9-14.3C756.6,432,780.2,432,780.2,432z"/>
	<path class="st4" d="M191.5,389.8l101.4,99.7c5.6,5.6,5.6,14.8,0,20.1l-101.4,99.7v-55.8l47.6-47.1c3.9-3.9,3.9-10.2,0-14.1
		l-47.6-47.1V389.8z"/>
	<path class="st4" d="M172.8,389.8L71.3,489.6c-5.6,5.6-5.6,14.8,0,20.1l101.4,99.7v-55.8l-47.6-47.1c-3.9-3.9-3.9-10.2,0-14.1
		l47.6-47.1V389.8z"/>
</g>
</svg>
