<?xml version="1.0" encoding="utf-8"?>
<!-- Generator: Adobe Illustrator 26.0.1, SVG Export Plug-In . SVG Version: 6.00 Build 0)  -->
<svg version="1.1"
	 id="svg2" xmlns:cc="http://creativecommons.org/ns#" xmlns:dc="http://purl.org/dc/elements/1.1/" xmlns:inkscape="http://www.inkscape.org/namespaces/inkscape" xmlns:rdf="http://www.w3.org/1999/02/22-rdf-syntax-ns#" xmlns:sodipodi="http://sodipodi.sourceforge.net/DTD/sodipodi-0.dtd" xmlns:svg="http://www.w3.org/2000/svg"
	 xmlns="http://www.w3.org/2000/svg" xmlns:xlink="http://www.w3.org/1999/xlink" x="0px" y="0px" viewBox="0 0 1000 997.5"
	 style="enable-background:new 0 0 1000 997.5;" xml:space="preserve">
<style type="text/css">
	.st0{display:none;}
	.st1{display:inline;fill:#016FD0;}
	.st2{display:inline;fill:#FFFFFF;}
	.st3{display:inline;fill:#00548D;}
	.st4{display:inline;fill:#E76240;}
	.st5{display:inline;fill:#005754;}
	.st6{fill:#FF5A00;}
	.st7{fill:#EB001B;}
	.st8{fill:#F79E1B;}
</style>
<sodipodi:namedview  bordercolor="#666666" borderopacity="1.0" fit-margin-bottom="0" fit-margin-left="0" fit-margin-right="0" fit-margin-top="0" id="base" inkscape:current-layer="layer1" inkscape:cx="850.2929" inkscape:cy="357.59411" inkscape:document-units="px" inkscape:pageopacity="0.0" inkscape:pageshadow="2" inkscape:window-height="931" inkscape:window-maximized="1" inkscape:window-width="1680" inkscape:window-x="0" inkscape:window-y="1" inkscape:zoom="0.125" pagecolor="#ffffff" showgrid="true">
	
		<inkscape:grid  empspacing="5" enabled="true" id="grid2996" originx="-55.5px" originy="947.50002px" snapvisiblegridlinesonly="true" type="xygrid" visible="true">
		</inkscape:grid>
</sodipodi:namedview>
<g id="layer1" transform="translate(-55.5,-1002.3452)" inkscape:groupmode="layer" inkscape:label="Layer 1" class="st0">
	<path id="path3078" inkscape:connector-curvature="0" sodipodi:nodetypes="ccccccccccc" class="st1" d="M55.5,1002.3H1053v538.5
		l-49.4,77.1l49.4,68.7v313.2H55.5v-507.6l30.9-35.5l-30.9-33.9V1002.3z"/>
	<path id="path3082" inkscape:connector-curvature="0" sodipodi:nodetypes="cccccccccccccccccccc" class="st2" d="M249.1,1697.4
		v-156.6H415l17.8,23.2l18.4-23.2H1053v145.8c0,0-15.7,10.6-33.9,10.8H685.8l-20.1-24.7v24.7H600v-42.1c0,0-9,5.9-28.4,5.9h-22.4
		v36.3h-99.5l-17.8-23.7l-18,23.7H249.1z"/>
	
		<path id="path3080" inkscape:connector-curvature="0" sodipodi:nodetypes="cccccccccccccccccccccccccccccccccccccc" class="st2" d="
		M55.5,1422.8l37.4-87.2h64.7l21.2,48.8v-48.8h80.4l12.6,35.3l12.2-35.3h360.9v17.7c0,0,19-17.7,50.1-17.7l117.1,0.4l20.9,48.2
		v-48.6h67.3l18.5,27.7v-27.7h67.9v156.6h-67.9l-17.7-27.8v27.8h-98.8l-9.9-24.7h-26.6l-9.8,24.7h-67c-26.8,0-44-17.4-44-17.4v17.4
		H543.8l-20.1-24.7v24.7H148l-9.9-24.7h-26.5l-9.9,24.7H55.5V1422.8z"/>
	<path id="path3046" inkscape:connector-curvature="0" class="st1" d="M106.1,1354.9l-50.4,117.3h32.8l9.3-23.5h54.1l9.3,23.5h33.6
		l-50.4-117.3L106.1,1354.9L106.1,1354.9z M124.8,1382.2l16.5,41h-33L124.8,1382.2z"/>
	<path id="path3048" inkscape:connector-curvature="0" sodipodi:nodetypes="cccccccccccccc" class="st1" d="M198.2,1472.2v-117.3
		l46.7,0.2l27.1,75.6l26.5-75.8h46.3v117.3h-29.3v-86.4l-31.1,86.4h-25.7l-31.2-86.4v86.4H198.2z"/>
	<path id="path3050" inkscape:connector-curvature="0" sodipodi:nodetypes="ccccccccccccc" class="st1" d="M364.9,1472.2v-117.3
		h95.7v26.2h-66v20.1H459v24.7h-64.5v20.8h66v25.5L364.9,1472.2z"/>
	<path id="path3052" inkscape:connector-curvature="0" class="st1" d="M477.5,1354.9v117.3h29.3v-41.7h12.3l35.2,41.7h35.8
		l-38.6-43.2c15.8-1.3,32.2-14.9,32.2-36c0-24.7-19.4-38-41-38L477.5,1354.9L477.5,1354.9z M506.8,1381.2h33.5
		c8,0,13.9,6.3,13.9,12.3c0,7.8-7.6,12.3-13.5,12.3h-33.9L506.8,1381.2L506.8,1381.2z"/>
	<path id="path3054" inkscape:connector-curvature="0" sodipodi:nodetypes="ccccc" class="st1" d="M625.6,1472.2h-29.9v-117.3h29.9
		V1472.2z"/>
	<path id="path3056" inkscape:connector-curvature="0" sodipodi:nodetypes="ccccccccccc" class="st1" d="M696.6,1472.2h-6.5
		c-31.3,0-50.2-24.6-50.2-58.1c0-34.3,18.8-59.1,58.2-59.1h32.4v27.8H697c-16,0-27.4,12.5-27.4,31.6c0,22.7,13,32.2,31.6,32.2h7.7
		L696.6,1472.2z"/>
	<path id="path3058" inkscape:connector-curvature="0" class="st1" d="M760.4,1354.9L710,1472.2h32.8l9.3-23.5h54.1l9.3,23.5H849
		l-50.4-117.3L760.4,1354.9L760.4,1354.9z M779,1382.2l16.5,41h-33L779,1382.2L779,1382.2z"/>
	<path id="path3060" inkscape:connector-curvature="0" sodipodi:nodetypes="ccccccccccc" class="st1" d="M852.4,1472.2v-117.3h37.3
		l47.6,73.7v-73.7h29.3v117.3h-36.1l-48.8-75.6v75.6H852.4z"/>
	<path id="path3062" inkscape:connector-curvature="0" sodipodi:nodetypes="ccccccccccccc" class="st1" d="M269.2,1677.4v-117.3
		h95.7v26.2h-66v20.1h64.5v24.7h-64.5v20.8h66v25.5L269.2,1677.4z"/>
	<path id="path3064" inkscape:connector-curvature="0" sodipodi:nodetypes="ccccccccccccc" class="st1" d="M737.9,1677.4v-117.3
		h95.7v26.2h-66v20.1h64.2v24.7h-64.2v20.8h66v25.5L737.9,1677.4z"/>
	<path id="path3066" inkscape:connector-curvature="0" sodipodi:nodetypes="ccccccccccccc" class="st1" d="M368.6,1677.4l46.6-57.9
		l-47.7-59.4h36.9l28.4,36.7l28.5-36.7h35.5l-47.1,58.6l46.7,58.6h-36.9l-27.6-36.1l-26.9,36.1L368.6,1677.4z"/>
	<path id="path3068" inkscape:connector-curvature="0" class="st1" d="M499.9,1560.1v117.3H530v-37h30.9c26.1,0,45.9-13.9,45.9-40.8
		c0-22.3-15.5-39.4-42.1-39.4H499.9L499.9,1560.1z M530,1586.7h32.5c8.4,0,14.5,5.2,14.5,13.5c0,7.8-6,13.5-14.6,13.5H530V1586.7
		L530,1586.7z"/>
	<path id="path3072" inkscape:connector-curvature="0" class="st1" d="M619.4,1560.1v117.3h29.3v-41.7h12.3l35.2,41.7h35.8
		l-38.6-43.2c15.8-1.3,32.2-14.9,32.2-36c0-24.7-19.4-38-41-38L619.4,1560.1L619.4,1560.1z M648.8,1586.4h33.5
		c8,0,13.9,6.3,13.9,12.3c0,7.8-7.6,12.3-13.5,12.3h-33.9V1586.4z"/>
	<path id="path3074" inkscape:connector-curvature="0" sodipodi:nodetypes="ccccccccccccccccc" class="st1" d="M847.2,1677.4v-25.5
		h58.7c8.7,0,12.4-4.7,12.4-9.8c0-4.9-3.7-9.9-12.4-9.9h-26.5c-23,0-35.9-14-35.9-35.1c0-18.8,11.8-36.9,46-36.9h57.1l-12.3,26.4
		h-49.4c-9.4,0-12.3,5-12.3,9.7c0,4.9,3.6,10.2,10.8,10.2h27.8c25.7,0,36.8,14.6,36.8,33.7c0,20.5-12.4,37.3-38.2,37.3H847.2z"/>
	<path id="path3076" inkscape:connector-curvature="0" sodipodi:nodetypes="ccccccccccccccccc" class="st1" d="M954.8,1677.4v-25.5
		h58.7c8.7,0,12.4-4.7,12.4-9.8c0-4.9-3.7-9.9-12.4-9.9h-26.5c-23,0-35.9-14-35.9-35.1c0-18.8,11.8-36.9,46-36.9h57.1l-12.3,26.4
		h-49.4c-9.4,0-12.3,5-12.3,9.7c0,4.9,3.6,10.2,10.8,10.2h27.8c25.7,0,36.8,14.6,36.8,33.7c0,20.5-12.4,37.3-38.2,37.3H954.8z"/>
</g>
<g class="st0">
	<path class="st3" d="M0,668.4h933.8c36.6,0,66.2-29.6,66.2-66.2V330.6H0V668.4z"/>
	<path class="st2" d="M530.2,517.9l-20.6-64.5l-20.1,64.8h40.8V517.9z M529,432l46.3,136.9h-29.1l-9.2-28.4h-54.4l-9.5,28.4h-29.1
		l42.7-126.4c2.2-6.3,8-10.4,14.6-10.4C501.3,432,529,432,529,432z"/>
	<path class="st2" d="M661.2,534c0,9.9-5.3,13.3-18,13.3h-28.4v-37.4h30.8c10.9,0,15.5,4.6,15.5,13.8V534z M614.9,453.4h26.7
		c10.2,0,14.6,3.4,14.6,11.2v12.1c0,8-3.9,12.6-14.8,12.6h-26.4V453.4z M667.6,497.6c11.2-4.6,16.3-10.9,16.3-22.1v-14.1
		c0-18.4-11.2-29.1-39.1-29.1H587v136.9h61.6c26.7,0,40-12.1,40-31.3v-14.6C688.9,509.4,680.9,500.2,667.6,497.6"/>
	<path class="st2" d="M393.4,451.2h39.8v-9.9c0-7.5-6.1-13.6-13.6-13.6h-26.4c-35.7,0.2-51,14.8-51,39.6v61.6
		c0,24.8,15.3,39.3,51,39.6l0,0h38.3v-9.9c0-7.5-6.1-13.6-13.6-13.6h-24.8l0,0c-17.5-0.5-23.3-6.6-23.3-20.6v-52.7
		C370.1,458,375.9,451.7,393.4,451.2"/>
	<path class="st2" d="M864.1,546.1v-92.7v-23.5h-12.4c-8.5,0-15.3,6.8-15.3,15.3v8.3v115.3h88.1v-22.8h-60.4V546.1z"/>
	<path class="st2" d="M781.4,517.9l-20.6-64.5l-20.1,64.8h40.8V517.9z M780.2,432l46.3,136.9h-29.1l-9.2-28.4h-54.4l-9.5,28.4h-29.1
		l41.5-122.5c2.9-8.5,10.9-14.3,19.9-14.3C756.6,432,780.2,432,780.2,432z"/>
	<path class="st2" d="M191.5,389.8l101.4,99.7c5.6,5.6,5.6,14.8,0,20.1l-101.4,99.7v-55.8l47.6-47.1c3.9-3.9,3.9-10.2,0-14.1
		l-47.6-47.1V389.8z"/>
	<path class="st2" d="M172.8,389.8L71.3,489.6c-5.6,5.6-5.6,14.8,0,20.1l101.4,99.7v-55.8l-47.6-47.1c-3.9-3.9-3.9-10.2,0-14.1
		l47.6-47.1V389.8z"/>
</g>
<g id="Verde_1_" class="st0">
	<path class="st4" d="M439.5,432.7c23.7-22.9,58.1-34.4,90.8-30.2c24,2.9,46.9,14.5,63.3,32.3c-8.4,7.8-16.8,15.5-25.1,23.4
		c-10.9-11.8-25.8-19.6-41.7-21.7c-23.2-3.5-47,5.5-64.1,21C455,449.3,447.4,440.9,439.5,432.7z"/>
	<path class="st5" d="M910.6,464.4c11.9,0.2,23.9,0.1,35.8,0.1c15.7,37.2,31.3,74.5,46.9,111.7c-12.7,0.1-25.3,0.1-38,0
		c-2.4-6.5-4.8-12.9-7.2-19.4c-13.4,0-26.8,0-40.3,0c-2.4,6.5-4.8,12.9-7.2,19.4c-12.4,0-24.8,0-37.2,0
		C879.2,538.9,894.6,501.5,910.6,464.4z M928.1,502.3c-3.3,8.9-6.6,17.8-9.9,26.7c6.6,0,13.2,0,19.8,0.1
		C934.8,520.1,931.4,511.2,928.1,502.3z M789.7,523.5c12.8,10.1,30.1,9.5,44.6,15.5c3.5,0.8,3.1,4.3,3.5,7
		c-3.2,1.8-6.6,3.3-10.3,3.3c-13.5,0.6-26.9-3.4-38.4-10.3c-3.6,7.2-6.4,14.7-9.7,22c-0.1-4.7,0-9.4,0-14.1c-17.8,0-35.6,0-53.4,0
		c0-4.7,0-9.4,0-14.1c15,0,30.1,0,45.2,0c0-9.1,0-18.1,0-27.2c-15.1,0-30.1,0-45.1,0c0-4.2,0-8.4,0-12.6c17,0,34,0,51,0
		c0-9.6,0-19.1,0-28.7c-29,0-58,0-86.9,0c0,37.2,0,74.5,0,111.7c29.8,0,59.5,0,89.3,0c0-2.6,0-5.3,0-7.9c7.8,4.3,16.4,6.9,25.2,8.5
		c18.9,3.2,40.3,3.1,56.4-8.9c15.5-11.3,18.6-38.1,2.8-50.5c-12.9-10.9-31.1-9.6-46-15.9c-4.3-1.6-3.3-8.1,0.9-9.1
		c13.5-4.7,27.8,0.9,40,6.6c3.7-9.2,7.3-18.4,11-27.6c-11.1-6.3-23.7-9.1-36.3-9.8c-15-0.7-31.4,1.8-43.2,11.9
		C775.9,485.8,774,511.8,789.7,523.5z M580.7,464.5c20.7,0,41.4,0,62.1,0c12.5,0.2,26.7,3.5,34.3,14.4c8.6,12.6,3.9,31.5-9.6,38.6
		c8.7,3.8,16.6,11,18.3,20.7c2.5,10.9-1.3,23.8-11.2,29.8c-10.9,7.4-24.6,7.8-37.4,8.1c-18.8,0.1-37.7,0-56.5,0
		C580.7,539,580.7,501.7,580.7,464.5z M616.6,507.2c7.8-0.2,15.9,0.9,23.4-1.4c6.6-2.2,5.6-12.8-1.2-14.1c-7.3-1-14.8-0.2-22.2-0.4
		C616.6,496.5,616.6,501.9,616.6,507.2z M616.6,532.5c0,5.7,0,11.3,0,17c9.8-0.7,20.2,1.8,29.5-2.1c6.3-3.7,3.5-14.1-3.6-14.6
		C633.9,532.1,625.3,532.6,616.6,532.5z M502,464c19.4-4,41.2-0.1,56.2,13.4c23,20.2,24.8,59.2,4.5,81.9
		c-22.6,25.3-66.7,25.9-90.4,1.9c-19.4-19.7-21.1-53.6-4.7-75.6C475.7,474.4,488.4,466.8,502,464z M511.1,493.9
		c-16.8,4.2-21.9,25.6-15.5,39.9c4.5,11.5,19.2,17.9,30.4,12.1c13.7-6.7,16.9-25,11.6-38.2C533.6,497.6,521.9,490.8,511.1,493.9z
		 M234.9,464.5c18.1,0,36.3,0,54.4,0c12.4,0,25.1,3.8,34.3,12.3c18.4,17.5,15.2,53-8.1,64.8c7.4,11.5,15,23,22.5,34.5
		c-13.1,0.3-26.1,0.1-39.2,0.2c-6-9.3-12.2-18.6-18-28.1c-3.1-0.1-6.3-0.1-9.4-0.2c0,9.4,0,18.8,0,28.2c-12.1,0-24.3,0-36.4,0
		C234.9,538.9,234.9,501.7,234.9,464.5z M271.3,493.6c0,8.6,0,17.1,0,25.7c7-0.2,14.3,0.9,21-1.7c9.1-4.3,8.1-20.4-1.8-23
		C284.3,492.8,277.7,493.8,271.3,493.6z M339.8,464.5c18.8,0,37.5,0,56.3,0c19.4,0,39.6,8.9,49.5,26.1c12.5,22.3,9.8,54.4-10.5,71.4
		c-11.1,9.6-26,13.6-40.4,14c-18.3,0.5-36.7,0-55,0.2C339.8,539,339.8,501.7,339.8,464.5z M376.2,494.1c0,17.3,0,34.6,0,52
		c9-0.5,18.6,1.6,27-2.4c15.7-7.5,17.1-31.6,5.6-43.4C400,491.9,387.2,494.4,376.2,494.1z M23.5,478.5c24.5-24.3,71.2-22.8,91.9,5.7
		c-7.8,7.1-15.4,14.4-23.3,21.4c-5.4-7-13.2-13-22.4-13.1c-9.8-0.8-19.6,5.2-23.2,14.4c-5.9,13.7-1.9,33.8,13.5,39.2
		c12,4.7,25.2-1.7,32.2-11.7c7.7,7.2,15.5,14.4,23.2,21.6c-20.9,28.6-67.7,29.9-92.2,5.4C1.7,539.5,1.7,500.3,23.5,478.5z
		 M121,484.8c-17.6,23.4-14.5,60.5,8.2,79.5c24.3,20.5,64.7,19.1,86.6-4.2c21.5-22.9,19.9-63.5-4.2-84c-16-13.9-39.1-17.4-59.3-12.2
		C140,467.2,128.5,474.4,121,484.8z M193.6,514.7c3.7,16.1-9,36.1-26.9,32.7c-25.3-4-27.2-45.9-3.4-53.7
		C177.5,488.5,192.4,500.4,193.6,514.7z"/>
</g>
<g>
	<rect id="rect19" x="365.1" y="279.6" class="st6" width="264.6" height="475.5"/>
	<path id="XMLID_330_" inkscape:connector-curvature="0" class="st7" d="M382.8,517.4c0-96.6,45.4-182.3,115.1-237.7
		c-51.3-40.3-116-64.7-186.5-64.7C144.1,214.9,8.9,332.3,8.9,499.5s135.3,320.3,302.4,320.3c70.6,0,135.3-24.4,186.5-64.7
		C428.1,700.5,382.8,614,382.8,517.4z"/>
	<path id="path22" inkscape:connector-curvature="0" class="st8" d="M986.8,517.4c0,167.2-135.3,302.4-302.4,302.4
		c-70.6,0-135.3-24.4-186.5-64.7C568.4,699.6,613,614,613,517.4S567.5,335,497.9,279.6c51.2-40.3,115.9-64.7,186.4-64.7
		C851.6,214.9,986.8,351.1,986.8,517.4z"/>
</g>
</svg>
