<svg id="Capa_1" data-name="Capa 1" xmlns="http://www.w3.org/2000/svg" viewBox="0 0 190.87 43.24"><defs><style>.cls-1{fill:#ec6a27;}.cls-2{fill:#1d1d1b;opacity:0.48;}.cls-3{fill:#fff;}.cls-4{fill:#1a1413;}</style></defs><title>pastermax</title><g id="_Grupo_" data-name="&lt;Grupo&gt;"><path class="cls-1" d="M183.58,30.58a2.41,2.41,0,0,1,.21,2.44,2.07,2.07,0,0,1-2,1.14c-.6,0-1.19,0-1.79,0a2.91,2.91,0,0,1-2.79-1.49c-.69-1.13-1.5-2.19-2.28-3.32l-1.24,1.83c-.46.67-.87,1.38-1.37,2a2.5,2.5,0,0,1-1.86.95,16.7,16.7,0,0,1-2.45,0,2,2,0,0,1-1.78-3,22.92,22.92,0,0,1,2.41-3.53c.67-1,1.36-1.93,2.06-2.88.12-.16.11-.22,0-.38-1.3-1.82-2.57-3.67-3.88-5.49a2.29,2.29,0,0,1-.34-2.31,2,2,0,0,1,2.06-1.28c.7,0,1.39,0,2.09,0A2.58,2.58,0,0,1,173,16.57l2.2,3.14,1.44-2a11.43,11.43,0,0,1,1.2-1.59,2.45,2.45,0,0,1,2-.82c.73,0,1.46,0,2.2,0a2,2,0,0,1,1.78,1.43,2.89,2.89,0,0,1-.52,2.23c-1.31,1.78-2.58,3.59-3.88,5.38-.15.22,0,.34.09.44C180.81,26.72,182.21,28.64,183.58,30.58Zm-1.68,2a.69.69,0,0,0,.53-1.1,4.45,4.45,0,0,0-.33-.51c-1.47-2.08-2.94-4.16-4.43-6.23a.52.52,0,0,1,0-.74c1.34-1.84,2.65-3.7,4-5.56a5.91,5.91,0,0,0,.58-.89c.24-.48.06-.81-.45-1a5.77,5.77,0,0,0-1.1-.09,2.5,2.5,0,0,0-2.73,1.38c-.88,1.43-1.91,2.76-2.89,4.16-.09-.12-.15-.19-.21-.28q-1.6-2.3-3.2-4.6a1.06,1.06,0,0,0-.69-.55,7.69,7.69,0,0,0-2.83,0c-.59.11-.74.54-.46,1.08a2.59,2.59,0,0,0,.25.39l3.89,5.48c.65.9.65.9,0,1.81l-.29.42c-1.33,1.84-2.67,3.68-4,5.53-.5.7-.28,1.18.57,1.31a6.92,6.92,0,0,0,2.13,0,1.41,1.41,0,0,0,1-.66c.87-1.29,1.76-2.58,2.64-3.87l.94-1.35c.12.18.22.3.3.43,1.07,1.55,2.15,3.1,3.2,4.66a1.58,1.58,0,0,0,1.26.81A8.34,8.34,0,0,0,181.9,32.61Z"/><path class="cls-2" d="M181.9,32.61a8.34,8.34,0,0,1-2.34.06,1.62,1.62,0,0,1-1.26-.81c-1.05-1.57-2.13-3.11-3.19-4.66-.09-.13-.19-.25-.31-.43-.33.48-.64.9-.93,1.35-.89,1.29-1.78,2.57-2.65,3.87a1.33,1.33,0,0,1-1,.65,6.74,6.74,0,0,1-2.15,0c-.84-.13-1.06-.62-.56-1.31l4-5.53q.17-.21.3-.42c.67-.91.67-.91,0-1.82-1.32-1.82-2.6-3.65-3.9-5.47-.09-.12-.18-.25-.26-.38-.26-.55-.11-1,.46-1.08a7.15,7.15,0,0,1,2.84,0,1.14,1.14,0,0,1,.7.56c1,1.52,2.11,3.06,3.19,4.6l.21.26c1-1.39,2-2.72,2.9-4.15a2.48,2.48,0,0,1,2.72-1.38,5.87,5.87,0,0,1,1.11.09c.5.16.68.49.44,1a8,8,0,0,1-.58.89c-1.31,1.84-2.63,3.71-4,5.54a.55.55,0,0,0,0,.76c1.49,2.07,3,4.14,4.43,6.22a5.54,5.54,0,0,1,.33.51A.69.69,0,0,1,181.9,32.61Z"/><path class="cls-1" d="M164.67,20.05a6,6,0,0,0-4.41-4.7,12.7,12.7,0,0,0-4.61-.38,13.56,13.56,0,0,0-5.25,1.4c-1.63.8-1.87,2.19-1.67,3.67a2.45,2.45,0,0,0,.53,1.2,2.35,2.35,0,0,0,2.93.51,8.33,8.33,0,0,1,1.25-.56,6.15,6.15,0,0,1,4.17-.5,1,1,0,0,1,.67.61c.16.34.09.43-.3.43a20.27,20.27,0,0,0-3.72.19,9.42,9.42,0,0,0-4,1.54,5.42,5.42,0,0,0-2.42,4.83,5.48,5.48,0,0,0,3.24,5.22,9.09,9.09,0,0,0,7.47.27c.48-.18.88-.34,1.33.07a.92.92,0,0,0,.54.22,6.57,6.57,0,0,0,2.65,0,2,2,0,0,0,1.69-2.25v-5.2c0-1.78,0-3.57,0-5.36A6.89,6.89,0,0,0,164.67,20.05Zm-1.32,10.53c0,.39,0,.76,0,1.13a.84.84,0,0,1-.75.93,4.47,4.47,0,0,1-1.67,0c-.52-.1-.71-.22-.79-.56a1.74,1.74,0,0,1,0-.43v-.48a7.85,7.85,0,0,1-5.3,1.74,9.83,9.83,0,0,1-1.53-.18,5.6,5.6,0,0,1-1-.26h0a5.49,5.49,0,0,1-1.36-.7,4.41,4.41,0,0,1-.43-.35A4.55,4.55,0,0,1,150.4,25c.11-.11.25-.23.38-.34h0c.14-.1.28-.21.44-.31a6.29,6.29,0,0,1,.92-.49,8.25,8.25,0,0,1,1-.34c.32-.1.68-.18,1-.25l.52-.09A16.67,16.67,0,0,1,157,23h2.25c.35,0,.48-.1.44-.46a11.56,11.56,0,0,0-.06-1.16A2.6,2.6,0,0,0,157,19.05a9.07,9.07,0,0,0-2.81.26h0c-.36.11-.7.21-1,.34s-.7.3-1,.46l-.31.18a1.9,1.9,0,0,1-.68.25.75.75,0,0,1-.75-.21,1.14,1.14,0,0,1-.14-.16,2.15,2.15,0,0,1-.23-1.05,2,2,0,0,1,.13-.75,1.14,1.14,0,0,1,.19-.34.24.24,0,0,1,.06-.08,1.42,1.42,0,0,1,.37-.32l.24-.13a10.43,10.43,0,0,1,1.34-.58,12.66,12.66,0,0,1,4.47-.71,11.5,11.5,0,0,1,2.57.26,5.61,5.61,0,0,1,1,.32l.49.22A4.42,4.42,0,0,1,163.25,21C163.47,24.17,163.29,27.37,163.35,30.58Z"/><path class="cls-2" d="M163.25,21A4.42,4.42,0,0,0,160.78,17l-.49-.22a5.61,5.61,0,0,0-1-.32,11.5,11.5,0,0,0-2.57-.26,12.66,12.66,0,0,0-4.47.71,11.88,11.88,0,0,0-1.34.56,1.2,1.2,0,0,0-.24.15,1.42,1.42,0,0,0-.37.32.24.24,0,0,0-.06.08,1.14,1.14,0,0,0-.19.34,2,2,0,0,0-.13.75,2.15,2.15,0,0,0,.23,1.05,1.14,1.14,0,0,0,.14.16.75.75,0,0,0,.75.21,2.34,2.34,0,0,0,.68-.26,1.8,1.8,0,0,0,.31-.17c.34-.16.68-.32,1-.46a9.19,9.19,0,0,1,1-.34h0a8.51,8.51,0,0,1,2.81-.26,2.6,2.6,0,0,1,2.68,2.28,11.56,11.56,0,0,1,.06,1.16c0,.36-.09.46-.44.46H157a16.62,16.62,0,0,0-2.32.19,4.82,4.82,0,0,0-.52.11c-.34.07-.7.15-1,.25a8.25,8.25,0,0,0-1,.34,6.29,6.29,0,0,0-.92.49c-.16.1-.3.21-.44.31h0c-.13.11-.27.23-.38.34a4.55,4.55,0,0,0,.11,6.44l.43.34a6.78,6.78,0,0,0,1.36.71h0a9.46,9.46,0,0,0,1,.26,9.83,9.83,0,0,0,1.53.18,8.11,8.11,0,0,0,5.3-1.74s0,0,0,0c0,.24,0,.37,0,.5s0,.31,0,.43c.08.34.27.46.79.56a4.47,4.47,0,0,0,1.67,0,.84.84,0,0,0,.75-.93c0-.37,0-.74,0-1.13C163.29,27.37,163.47,24.17,163.25,21Zm-4.6,7.15a4.17,4.17,0,0,1-3.86.92,1.39,1.39,0,0,1-.73-.81,1.22,1.22,0,0,1,.46-1c.8-.8,4.38-1,4.44-.86A5.08,5.08,0,0,1,158.65,28.11Z"/><path class="cls-1" d="M159.7,25.93c0-.3-.1-.37-.37-.37-1,0-2,0-3,0a5.22,5.22,0,0,0-2.12.49,2.06,2.06,0,0,0-1.34,2.22,2.14,2.14,0,0,0,1.79,1.77,4.62,4.62,0,0,0,3.93-.95,2,2,0,0,0,1.11-2C159.7,26.61,159.68,26.27,159.7,25.93Zm-1,2.18a4.17,4.17,0,0,1-3.86.92,1.39,1.39,0,0,1-.73-.81,1.22,1.22,0,0,1,.46-1c.8-.8,4.38-1,4.44-.86A5.08,5.08,0,0,1,158.65,28.11Z"/><path class="cls-1" d="M145.74,31.86A1.93,1.93,0,0,1,144,34.1a7.62,7.62,0,0,1-3-.05,2.15,2.15,0,0,1-1.61-2.2c.07-2.73,0-5.47,0-8.2a10.37,10.37,0,0,0-.21-1.84c-.26-1.3-1.36-1.44-2.28-.9-.41.25-.78.56-1.17.85A1.81,1.81,0,0,0,135,23.4c.05,2.79,0,5.58,0,8.37a2.12,2.12,0,0,1-1.76,2.32,7.43,7.43,0,0,1-3,0,2.14,2.14,0,0,1-1.63-2.22c.06-2.83,0-5.68,0-8.51a6.76,6.76,0,0,0-.25-1.68,1.37,1.37,0,0,0-2-.85,9.71,9.71,0,0,0-2,1.46c-.19.16-.12.37-.12.57,0,3,0,6,0,9a2.09,2.09,0,0,1-2,2.28,8.07,8.07,0,0,1-2.77,0,2.21,2.21,0,0,1-1.66-2.1c0-2.43,0-4.86,0-7.29s0-4.9,0-7.34a2.25,2.25,0,0,1,2-2c.62,0,1.26,0,1.88,0a1.83,1.83,0,0,1,1.53.62c.18.19.31.14.51,0a7.24,7.24,0,0,1,2.21-.85,6.4,6.4,0,0,1,2.39-.12,13.35,13.35,0,0,1,1.39.14,6.4,6.4,0,0,1,3,1.62c.22.24.39.18.59,0a8.06,8.06,0,0,1,3.56-1.7c2.81-.44,5.41,0,7.3,2.36a6.1,6.1,0,0,1,1.45,3.95C145.72,24.86,145.68,28.37,145.74,31.86Zm-1.38-.46V23.1a13.31,13.31,0,0,0-.17-2.28,5.12,5.12,0,0,0-2.95-4.07,6.7,6.7,0,0,0-4.39-.36,8.53,8.53,0,0,0-3.76,2.24c-.25.22-.35.26-.55-.06a4.44,4.44,0,0,0-2.5-2,6.69,6.69,0,0,0-5.78.56,14.54,14.54,0,0,0-1.77,1.3v-.88c0-.75-.27-1-1-1.05h-.92c-1.15,0-1.36.22-1.36,1.37V31.35c0,.16,0,.31,0,.46a.76.76,0,0,0,.69.81,5.34,5.34,0,0,0,2.07,0c.7-.13.85-.32.85-1V22.23c0-.2,0-.4.12-.58a9.92,9.92,0,0,1,2.62-2.16,2.81,2.81,0,0,1,4.22,1.88,6.29,6.29,0,0,1,.19,1.5q0,4.34,0,8.67c0,.79.15,1,.94,1.11a4.74,4.74,0,0,0,1.72,0c.86-.16,1-.32,1-1.18V22.2c0-.18-.07-.38.08-.54a8.37,8.37,0,0,1,3.12-2.38,2.69,2.69,0,0,1,3.61,1.94,6.91,6.91,0,0,1,.23,1.81V31.7c0,.58.17.8.73.92a5.39,5.39,0,0,0,1.92.05C144.22,32.51,144.36,32.36,144.36,31.4Z"/><path class="cls-2" d="M144.36,23.09V31.4c0,1-.13,1.11-1.08,1.27a5,5,0,0,1-1.92-.06c-.55-.11-.73-.34-.73-.91V23a7.37,7.37,0,0,0-.22-1.82,2.73,2.73,0,0,0-3.62-1.94,8.42,8.42,0,0,0-3.12,2.4c-.15.15-.08.36-.08.53v9.28c0,.85-.15,1-1,1.18a4.53,4.53,0,0,1-1.72,0c-.8-.14-1-.31-1-1.1V22.87a6.48,6.48,0,0,0-.17-1.51,2.82,2.82,0,0,0-4.23-1.86,9.4,9.4,0,0,0-2.62,2.16.73.73,0,0,0-.12.57v9.38c0,.71-.15.9-.84,1a5.15,5.15,0,0,1-2.07,0,.75.75,0,0,1-.7-.79c0-.17,0-.31,0-.46V17.9c0-1.17.2-1.38,1.36-1.38h.92c.78,0,1,.3,1,1.05v.88a16.77,16.77,0,0,1,1.77-1.31,6.75,6.75,0,0,1,5.78-.56,4.49,4.49,0,0,1,2.5,2c.2.33.3.29.55.06a8.64,8.64,0,0,1,3.76-2.23,6.7,6.7,0,0,1,4.39.36,5.09,5.09,0,0,1,2.94,4.06A12.59,12.59,0,0,1,144.36,23.09Z"/><path class="cls-1" d="M116.76,17.19a11,11,0,0,1,0,2,2.05,2.05,0,0,1-2,2A4.38,4.38,0,0,1,113.3,21a1.67,1.67,0,0,0-2,.57c-.18.2-.35.43-.54.64a2.34,2.34,0,0,0-.61,1.73c0,2.57,0,5.13,0,7.69a2.13,2.13,0,0,1-1.85,2.45,6.28,6.28,0,0,1-2.86,0,2.13,2.13,0,0,1-1.73-2.34c0-2.32,0-4.65,0-7s0-4.89,0-7.33a2.18,2.18,0,0,1,2.08-2.1c.63,0,1.25,0,1.89,0a1.87,1.87,0,0,1,1.33.47.35.35,0,0,0,.48.06,6,6,0,0,1,4-.86,6.53,6.53,0,0,1,2.23.65A1.81,1.81,0,0,1,116.76,17.19Zm-1.71,1.91a5.57,5.57,0,0,0,0-1.68.55.55,0,0,0-.4-.48,4.76,4.76,0,0,0-4.25.33,13.14,13.14,0,0,0-2.26,2.05c0-.56,0-1.12,0-1.67a.58.58,0,0,0-.57-.69A13.88,13.88,0,0,0,106,17c-.38,0-.58.23-.58.67q0,7.08,0,14.17a.56.56,0,0,0,.55.64,6.6,6.6,0,0,0,1.83,0,.62.62,0,0,0,.63-.73c0-2.94,0-5.88,0-8.82a1,1,0,0,1,.11-.63A15.41,15.41,0,0,1,110.42,20a3,3,0,0,1,3-.79l.93.25A.45.45,0,0,0,115.05,19.1Z"/><path class="cls-3" d="M115.07,17.42a5.57,5.57,0,0,1,0,1.68.45.45,0,0,1-.66.4l-.93-.25a3,3,0,0,0-3,.79,15.41,15.41,0,0,0-1.88,2.23,1,1,0,0,0-.11.63c0,2.94,0,5.88,0,8.82a.62.62,0,0,1-.63.73,6.6,6.6,0,0,1-1.83,0,.56.56,0,0,1-.55-.64q0-7.1,0-14.17c0-.44.2-.65.58-.67a13.88,13.88,0,0,1,1.58,0,.58.58,0,0,1,.57.69c0,.55,0,1.11,0,1.67a13.14,13.14,0,0,1,2.26-2.05,4.76,4.76,0,0,1,4.25-.33A.55.55,0,0,1,115.07,17.42Z"/><path class="cls-1" d="M101.42,21.32a8.94,8.94,0,0,1,.11,3.53A2.55,2.55,0,0,1,99,26.92H89.84a2.27,2.27,0,0,0,1.66,1.63c2.06.62,4,.07,5.93-.62a2.91,2.91,0,0,1,2.33,0,1.86,1.86,0,0,1,1.08,1.79,4.79,4.79,0,0,1-.2,2.18,2.66,2.66,0,0,1-1.56,1.39,14.72,14.72,0,0,1-4,1,18.34,18.34,0,0,1-3.7.07A8.75,8.75,0,0,1,85,31.26a8.53,8.53,0,0,1-1.78-4.05A14.94,14.94,0,0,1,83,23.68a9.4,9.4,0,0,1,2.12-5.58,8.55,8.55,0,0,1,5.31-3,11.64,11.64,0,0,1,5.41.22A8,8,0,0,1,99,17,8.1,8.1,0,0,1,101.42,21.32Zm-2.91,3.92c1.06,0,1.43-.36,1.41-1.4a12.9,12.9,0,0,0-.08-1.52A6,6,0,0,0,95.51,17a10,10,0,0,0-3.57-.37,7.14,7.14,0,0,0-7,5.6,11.28,11.28,0,0,0,0,4.94,6.2,6.2,0,0,0,4.36,5,13.79,13.79,0,0,0,9.22-.5,1,1,0,0,0,.67-.92c.16-1.29-.18-1.59-1.37-1.13a12.12,12.12,0,0,1-5.23.87,5.57,5.57,0,0,1-2.88-.89,4.7,4.7,0,0,1-1.8-3.77c0-.44,0-.61.55-.6,1.66,0,3.33,0,5,0S96.83,25.25,98.51,25.24Z"/><path class="cls-3" d="M99.92,23.84c0,1-.35,1.4-1.41,1.4-1.68,0-3.36,0-5.05,0s-3.33,0-5,0c-.5,0-.59.16-.55.6a4.7,4.7,0,0,0,1.8,3.77,5.57,5.57,0,0,0,2.88.89,12.12,12.12,0,0,0,5.23-.87c1.19-.46,1.53-.16,1.37,1.13a1,1,0,0,1-.67.92,13.79,13.79,0,0,1-9.22.5,6.2,6.2,0,0,1-4.36-5,11.28,11.28,0,0,1,0-4.94,7.14,7.14,0,0,1,7-5.6,10,10,0,0,1,3.57.37,6,6,0,0,1,4.33,5.32A12.9,12.9,0,0,1,99.92,23.84ZM96.81,23a3.88,3.88,0,0,0-2.37-4c-2.77-1-6,.05-6.5,3.81,0,.31,0,.41.35.41,1.34,0,2.68,0,4,0h4.12C96.61,23.25,96.8,23.3,96.81,23Z"/><path class="cls-1" d="M94.44,19a3.88,3.88,0,0,1,2.37,4c0,.3-.2.25-.38.25H92.31c-1.34,0-2.68,0-4,0-.33,0-.39-.1-.35-.41C88.45,19.09,91.67,18.07,94.44,19Zm-1.91,2.58h2.3a2.11,2.11,0,0,0-2.08-1.2,2.66,2.66,0,0,0-2.6,1.2Z"/><path class="cls-1" d="M82.32,18.68a2.26,2.26,0,0,1-2.14,2.14c-.76-.09-1.53,0-2.3,0-.28,0-.38.06-.37.36,0,2.17,0,4.35,0,6.52,0,.95.34,1.17,1.26.9a7.45,7.45,0,0,1,1.5-.35,2.08,2.08,0,0,1,2,2,5,5,0,0,0,0,1,2.39,2.39,0,0,1-2,2.77A9.11,9.11,0,0,1,75,34a5.08,5.08,0,0,1-3.68-4.2,31,31,0,0,1-.2-4.92c0-1.38,0-2.54,0-3.69,0-.32-.06-.5-.41-.43-1.31.27-2.54-1.22-2.46-2.54a4.45,4.45,0,0,1,.32-1.8,1.83,1.83,0,0,1,1.93-1.15c.52,0,.63-.13.63-.63a4.73,4.73,0,0,1,.17-2A2.11,2.11,0,0,1,73,11.38a7,7,0,0,1,2.81,0,2.16,2.16,0,0,1,1.76,2.39c0,.48-.23,1.13.09,1.41s.9.07,1.37.07a12.71,12.71,0,0,0,1.38,0,2.07,2.07,0,0,1,1.95,2A5.7,5.7,0,0,0,82.32,18.68Zm-1.6-.47a2.63,2.63,0,0,0,0-.56c-.07-.6-.21-.72-.81-.72H76.22c-.32,0-.44-.07-.43-.41,0-.92,0-1.84,0-2.75a.63.63,0,0,0-.63-.74,6.25,6.25,0,0,0-1.78,0,.6.6,0,0,0-.6.7c0,.9,0,1.81,0,2.71,0,.42-.13.52-.52.48s-.78,0-1.17,0c-1.09,0-1.2.11-1.18,1.23a1.56,1.56,0,0,0,0,.31.67.67,0,0,0,.75.66c.52,0,1,0,1.57,0s.53.13.53.54c0,1.47,0,2.93,0,4.39v3.56a9.5,9.5,0,0,0,.12,1.68,3.52,3.52,0,0,0,2.25,3,7.37,7.37,0,0,0,4.84,0,.9.9,0,0,0,.68-.86,4.7,4.7,0,0,0,0-1.06c-.06-.43-.31-.53-.69-.42a7.08,7.08,0,0,1-1.17.34c-2,.27-2.66-.45-2.92-1.85a6.42,6.42,0,0,1-.11-1.16c0-2.56,0-5.13,0-7.69,0-.45.14-.53.55-.52,1.14,0,2.27,0,3.41,0C80.48,19.12,80.68,18.94,80.72,18.21Z"/><path class="cls-3" d="M80.7,17.65a2.63,2.63,0,0,1,0,.56c0,.73-.24.91-1,.91-1.14,0-2.27,0-3.41,0-.41,0-.56.07-.55.52,0,2.56,0,5.13,0,7.69a6.42,6.42,0,0,0,.11,1.16c.26,1.4.94,2.12,2.92,1.85A7.08,7.08,0,0,0,80,30c.38-.11.63,0,.69.42a4.7,4.7,0,0,1,0,1.06.9.9,0,0,1-.68.86,7.37,7.37,0,0,1-4.84,0,3.52,3.52,0,0,1-2.25-3,9.5,9.5,0,0,1-.12-1.68V24.05c0-1.46,0-2.92,0-4.39,0-.41-.09-.57-.53-.54s-1.05,0-1.57,0a.67.67,0,0,1-.75-.66,1.56,1.56,0,0,1,0-.31c0-1.12.09-1.23,1.18-1.23.39,0,.78,0,1.17,0s.54-.06.52-.48c0-.9,0-1.81,0-2.71a.6.6,0,0,1,.6-.7,6.25,6.25,0,0,1,1.78,0,.63.63,0,0,1,.63.74c0,.91,0,1.83,0,2.75,0,.34.11.42.43.41h3.67C80.49,16.93,80.63,17.05,80.7,17.65Z"/><path class="cls-1" d="M68.46,27.65a5.91,5.91,0,0,1-1.14,4,5.67,5.67,0,0,1-1.89,1.62,9,9,0,0,1-5.26,1.14A10.3,10.3,0,0,1,55,33.24a2.81,2.81,0,0,1-1.59-2.37,3.68,3.68,0,0,1,.32-2.26,2.09,2.09,0,0,1,1.73-1.1,4.71,4.71,0,0,1,2.36.72,7.75,7.75,0,0,0,2.5.6,4.49,4.49,0,0,0,1.55-.3c.3-.08.27-.32,0-.48a8.58,8.58,0,0,0-2-.82,14,14,0,0,1-3.93-1.89,5.13,5.13,0,0,1-2-3.46,5.25,5.25,0,0,1,.94-4.11,5.41,5.41,0,0,1,1.85-1.67A9.17,9.17,0,0,1,60.58,15a10.32,10.32,0,0,1,5.43.95,2.74,2.74,0,0,1,1.63,2.65,3.07,3.07,0,0,1-.81,2.49,2.31,2.31,0,0,1-2.26.32,7.31,7.31,0,0,0-3.11-1,4,4,0,0,0-1.08.19c-.44.09-.24.26-.05.4a5.55,5.55,0,0,0,1.67.73,15.07,15.07,0,0,1,4.28,1.94A5,5,0,0,1,68.46,27.65Zm-2.64-8a1.72,1.72,0,0,0-.58-2.17,8.16,8.16,0,0,0-3.79-.83,7.64,7.64,0,0,0-3.73.83,3.84,3.84,0,0,0-2.24,3.34,3.72,3.72,0,0,0,2,3.58,16,16,0,0,0,3.23,1.34,8.25,8.25,0,0,1,2.21,1,1.76,1.76,0,0,1,.85,1.47,2,2,0,0,1-1.41,2,6.06,6.06,0,0,1-3,.27,9.61,9.61,0,0,1-3.21-1.09c-.74-.37-1-.19-1.07.64-.06,1.26.12,1.57,1.31,2a10.9,10.9,0,0,0,5.71.56,6.7,6.7,0,0,0,3.17-1.29,4,4,0,0,0-.47-6.57A16.73,16.73,0,0,0,62,23.56a11.86,11.86,0,0,1-2.57-1.08,1.89,1.89,0,0,1-1.08-1.92A2,2,0,0,1,60,18.9a5.92,5.92,0,0,1,3.07,0,9.32,9.32,0,0,1,2,.8C65.34,19.86,65.62,20,65.82,19.61Z"/><path class="cls-3" d="M65.24,17.44a1.72,1.72,0,0,1,.58,2.17c-.2.34-.48.25-.74.1a9.32,9.32,0,0,0-2-.8,5.92,5.92,0,0,0-3.07,0,2,2,0,0,0-1.6,1.66,1.89,1.89,0,0,0,1.08,1.92A11.86,11.86,0,0,0,62,23.56a16.73,16.73,0,0,1,2.76,1.15,4,4,0,0,1,.47,6.57,6.7,6.7,0,0,1-3.17,1.29A10.9,10.9,0,0,1,56.38,32c-1.19-.45-1.37-.76-1.31-2,0-.83.33-1,1.07-.64a9.61,9.61,0,0,0,3.21,1.09,6.06,6.06,0,0,0,3-.27,2,2,0,0,0,1.41-2,1.76,1.76,0,0,0-.85-1.47,8.25,8.25,0,0,0-2.21-1,16,16,0,0,1-3.23-1.34,3.72,3.72,0,0,1-2-3.58,3.84,3.84,0,0,1,2.24-3.34,7.64,7.64,0,0,1,3.73-.83A8.16,8.16,0,0,1,65.24,17.44Z"/><path class="cls-1" d="M51.53,31.78a2.1,2.1,0,0,1-1.77,2.31,6.45,6.45,0,0,1-2.66,0,1.08,1.08,0,0,1-.5-.22c-.42-.42-.83-.25-1.26-.06a9.67,9.67,0,0,1-5.63.39,6.12,6.12,0,0,1-3.7-2,5.72,5.72,0,0,1-1.43-3.43,6.09,6.09,0,0,1,1.12-4,4.76,4.76,0,0,1,1.47-1.36,11.3,11.3,0,0,1,4.74-1.55c1-.08,1.89-.05,2.83-.07.34,0,.41-.08.26-.41a1,1,0,0,0-.69-.63,6.11,6.11,0,0,0-4.16.51,12,12,0,0,0-1.27.57,2.34,2.34,0,0,1-2.94-.58A2.44,2.44,0,0,1,35.43,20c-.16-1.49.07-2.85,1.71-3.65A13.68,13.68,0,0,1,42.35,15a12.77,12.77,0,0,1,4.66.39A6,6,0,0,1,51.38,20a5.29,5.29,0,0,1,.13,1.19c0,1.82,0,3.64,0,5.46S51.47,30.08,51.53,31.78Zm-1.66,0c0-3.4,0-6.8,0-10.2-.07-2.7-1.3-4.2-3.81-4.74a12.11,12.11,0,0,0-7.9.91c-1,.47-1.08.74-1,2,0,.46.41.64.86.47a5.42,5.42,0,0,0,.73-.35A9.31,9.31,0,0,1,44,18.86a2.85,2.85,0,0,1,2.88,2.95c0,.38,0,.75,0,1.12s-.08.43-.42.43a35.08,35.08,0,0,0-4,.09,9.88,9.88,0,0,0-4.17,1.23,3.92,3.92,0,0,0-2,3.69,3.92,3.92,0,0,0,2.44,3.68,7.68,7.68,0,0,0,5.86.2,8.69,8.69,0,0,0,2.67-1.64c0,.51,0,.9,0,1.29a.46.46,0,0,0,.42.53,4.27,4.27,0,0,0,1.67,0A.56.56,0,0,0,49.87,31.82Z"/><path class="cls-3" d="M49.82,21.62c.09,3.4,0,6.8,0,10.2a.56.56,0,0,1-.53.62,4.27,4.27,0,0,1-1.67,0,.46.46,0,0,1-.42-.53c0-.39,0-.78,0-1.29a8.69,8.69,0,0,1-2.67,1.64,7.68,7.68,0,0,1-5.86-.2,3.92,3.92,0,0,1-2.44-3.68,3.92,3.92,0,0,1,2-3.69,9.88,9.88,0,0,1,4.17-1.23,35.08,35.08,0,0,1,4-.09c.34,0,.44-.1.42-.43s0-.74,0-1.12A2.85,2.85,0,0,0,44,18.86a9.31,9.31,0,0,0-5.2,1.08,5.42,5.42,0,0,1-.73.35c-.45.17-.82,0-.86-.47-.13-1.29-.06-1.56,1-2a12.11,12.11,0,0,1,7.9-.91C48.52,17.42,49.75,18.92,49.82,21.62ZM45.63,29.5a2.22,2.22,0,0,0,1.21-2.42.75.75,0,0,1,0-.15c0-.41,0-.81,0-1.22s-.1-.37-.38-.37c-.78,0-1.56,0-2.35,0a8,8,0,0,0-3.28.58,2.34,2.34,0,0,0-1.45,2.4,2.27,2.27,0,0,0,1.73,2.08A5,5,0,0,0,45.63,29.5Z"/><path class="cls-1" d="M46.84,27.08a2.22,2.22,0,0,1-1.21,2.42,5,5,0,0,1-4.51.91,2.27,2.27,0,0,1-1.73-2.08,2.34,2.34,0,0,1,1.45-2.4,8,8,0,0,1,3.28-.58c.79,0,1.57,0,2.35,0,.28,0,.4.07.38.37s0,.81,0,1.22A.75.75,0,0,0,46.84,27.08ZM45,27.77a.54.54,0,0,0,.16-.64c-.06-.21-.29-.08-.44-.1a3.6,3.6,0,0,0-.49,0,4.09,4.09,0,0,0-1.32.12,3.4,3.4,0,0,0-1.42.4.66.66,0,0,0-.39.7.65.65,0,0,0,.53.53,3,3,0,0,0,1.3.1A4.39,4.39,0,0,0,45,27.77Z"/><path class="cls-1" d="M34.5,1c0,3.83,0,7.65,0,11.48h-.63a14.89,14.89,0,0,0-.4-3.3c-.88-3.93-3.07-6.7-7-7.87A14.75,14.75,0,0,0,22.19.7V.41H33.92C34.38.4,34.5.51,34.5,1Z"/><path class="cls-1" d="M34.49,12.46q0,14.9,0,29.8c0,.47-.12.58-.58.58l-27.27,0v-.39a.62.62,0,0,0,.18,0c3.56-.57,7.13-1.15,10.7-1.7.41-.07.5-.26.44-.62l-.36-2.21c-.66-4.16-1.31-8.31-2-12.46-.06-.36,0-.49.41-.55,2-.31,4-.57,5.91-1a21,21,0,0,0,7.62-3.13,9.67,9.67,0,0,0,4.06-5.95,11.31,11.31,0,0,0,.23-2.31Z"/><path class="cls-4" d="M33.86,12.46a11.31,11.31,0,0,1-.23,2.31,9.67,9.67,0,0,1-4.06,5.95A21,21,0,0,1,22,23.85c-1.95.45-3.94.71-5.91,1-.4.06-.47.19-.41.55.67,4.15,1.32,8.3,2,12.46L18,40.09c.06.36,0,.55-.44.62-3.57.55-7.14,1.13-10.7,1.7a.62.62,0,0,1-.18,0c-.31,0-.45-.17-.5-.53Q4.47,31.14,2.76,20.39q-1.26-8-2.55-16a1.41,1.41,0,0,1,0-.2c0-.33.19-.43.55-.48L16.63,1.17A27.36,27.36,0,0,1,21.74.71h.45a14.75,14.75,0,0,1,4.23.59c4,1.17,6.16,3.94,7,7.87A14.89,14.89,0,0,1,33.86,12.46ZM21.1,18.54a7.26,7.26,0,0,0,1.15-4.28,15,15,0,0,0-1.11-5.52A5.05,5.05,0,0,0,16,5.41c-1,0-2,.29-3,.4-.38,0-.43.18-.38.52.31,1.84.6,3.68.89,5.52.46,2.91.93,5.83,1.38,8.74.05.28.09.41.44.34.73-.15,1.47-.22,2.21-.36A5.46,5.46,0,0,0,21.1,18.54Z"/><path class="cls-1" d="M22.19.41V.7h-.45a27.36,27.36,0,0,0-5.11.46L.75,3.68c-.36,0-.55.15-.55.48H-.18V.41Z"/><path class="cls-1" d="M22.25,14.26a7.26,7.26,0,0,1-1.15,4.28,5.46,5.46,0,0,1-3.58,2c-.74.14-1.48.21-2.21.36-.35.07-.39-.06-.44-.34-.45-2.91-.92-5.83-1.38-8.74-.29-1.84-.58-3.68-.89-5.52,0-.34,0-.48.38-.52,1-.11,2-.36,3-.4a5.05,5.05,0,0,1,5.19,3.33A15,15,0,0,1,22.25,14.26Z"/><path class="cls-1" d="M6.65,42.43v.39H-.18V4.16H.2a1.41,1.41,0,0,0,0,.2q1.31,8,2.55,16Q4.47,31.14,6.15,41.9C6.2,42.26,6.34,42.43,6.65,42.43Z"/><path class="cls-1" d="M187.67,9.59a2.34,2.34,0,1,1-2.34,2.34,2.34,2.34,0,0,1,2.34-2.34m0-.37a2.71,2.71,0,1,0,2.71,2.71,2.72,2.72,0,0,0-2.71-2.71Z"/><path class="cls-1" d="M186.5,13.42v-3h1.3a1.76,1.76,0,0,1,.6.08.69.69,0,0,1,.33.28.9.9,0,0,1,.13.45.72.72,0,0,1-.21.53,1,1,0,0,1-.63.27.83.83,0,0,1,.24.15,2.57,2.57,0,0,1,.32.39l.52.81h-.49l-.39-.62c-.12-.17-.21-.31-.29-.4a.93.93,0,0,0-.19-.2.48.48,0,0,0-.18-.08h-.67v1.31Zm.39-1.65h.84a1.15,1.15,0,0,0,.41-.06.37.37,0,0,0,.23-.17.45.45,0,0,0,.08-.27.43.43,0,0,0-.15-.34.71.71,0,0,0-.48-.14h-.93Z"/></g></svg>