<?xml version="1.0" encoding="utf-8"?>
<!-- Generator: Adobe Illustrator 26.0.1, SVG Export Plug-In . SVG Version: 6.00 Build 0)  -->
<svg version="1.1" id="Layer_1" xmlns="http://www.w3.org/2000/svg" xmlns:xlink="http://www.w3.org/1999/xlink" x="0px" y="0px"
	 viewBox="0 0 406 306" style="enable-background:new 0 0 406 306;" xml:space="preserve">
<style type="text/css">
	.st0{opacity:0.18;fill:#FFAADC;enable-background:new    ;}
	.st1{fill:#6A6A6A;}
	.st2{fill:url(#SVGID_1_);}
	.st3{opacity:0.54;fill:#FFAADC;enable-background:new    ;}
	.st4{fill:#FFAADC;}
	.st5{fill:url(#SVGID_00000150060625271120049790000014861415695197990583_);}
	.st6{fill:url(#SVGID_00000070801209103079357920000000592957693402941570_);}
	.st7{fill:url(#SVGID_00000054244223195285791170000015262719219913755574_);}
	.st8{fill:#F3BDBB;}
	.st9{fill:#2E2E3F;}
	.st10{fill:#F5BBB9;}
	.st11{fill:#6868F6;}
	.st12{fill:#575B85;}
	.st13{fill:#B55F40;}
	.st14{fill:url(#SVGID_00000031925404772906948020000012323269183126282636_);}
	.st15{fill:url(#SVGID_00000025406308305774524150000005544663208920687746_);}
	.st16{fill:#FFFFFF;}
	.st17{fill:url(#SVGID_00000050628430944565826310000015673928382077813654_);}
	.st18{fill:url(#SVGID_00000058573445244181460990000000092307207391803535_);}
</style>
<path class="st0" d="M380.9,217.1c-1.8,15.5-8.5,30-17.9,42.6c-2.5,3.3-5.2,6.5-8.1,9.5c-0.6,0.6-1.1,1.2-1.7,1.8
	c-22,22.5-53,33.8-84.4,31.5c-43-3.1-85.8-9.6-127.8-19.5c-21.9-5.1-43.9-10-66.4-11c-18.3-0.8-29.6-5.8-36.7-12.7
	c-14.1-13.6-11.7-34.5-14.9-44.6c-5.4-17.3-3.5-36-1.6-54.1c1.3-11.6,2.7-23.7,9.6-33.2c5.2-7.1,12.9-11.9,20.7-16.1
	c33.2-18,70.6-28.9,99.4-53.3c21.6-18.3,41.6-41.1,69.8-43.5s57.3,9.8,75.4,31.5c13.7,16.4,21,37.1,33.8,54.2
	c7.3,9.7,16.1,18.1,23.5,27.7c12.2,15.8,20,34.7,24.5,54.1C380.7,193.7,382.2,205.5,380.9,217.1z"/>
<rect x="154.7" y="213.5" class="st1" width="90.5" height="46.2"/>
<linearGradient id="SVGID_1_" gradientUnits="userSpaceOnUse" x1="250.4154" y1="78.6741" x2="259.5278" y2="-85.293" gradientTransform="matrix(0.9364 0 0 -0.9364 -37.1353 263.8287)">
	<stop  offset="1.000000e-02" style="stop-color:#000000"/>
	<stop  offset="0.13" style="stop-color:#000000;stop-opacity:0.69"/>
	<stop  offset="1" style="stop-color:#000000;stop-opacity:0"/>
</linearGradient>
<rect x="154.7" y="213.5" class="st2" width="90.5" height="46.2"/>
<path class="st3" d="M363,259.4v0.3c-2.5,3.3-5.2,6.5-8.1,9.5c-0.6,0.6-1.1,1.2-1.7,1.8c-22,22.5-53,33.8-84.4,31.5
	c-43-3.1-85.8-9.6-127.8-19.5c-11.9-2.8-23.8-5.5-35.7-7.5c-10.1-1.8-20.4-2.9-30.6-3.5c-10.8-0.5-19.2-2.4-25.7-5.4l-0.6-0.3
	c-2.2-1-4.3-2.2-6.3-3.7c-1.4-1-2.8-2.1-4.1-3.4H363z"/>
<path class="st4" d="M72.7,62.7H323c7.5,0,13.6,6.1,13.6,13.6v141.4c0,7.5-6.1,13.6-13.6,13.6H72.7c-7.5,0-13.6-6.1-13.6-13.6V76.3
	C59.1,68.8,65.2,62.7,72.7,62.7z"/>
<linearGradient id="SVGID_00000079479050234957059970000015174903390532473990_" gradientUnits="userSpaceOnUse" x1="248.263" y1="274.1101" x2="282.9599" y2="-157.9242" gradientTransform="matrix(0.9364 0 0 -0.9364 -47.0513 233.4253)">
	<stop  offset="1.000000e-02" style="stop-color:#000000"/>
	<stop  offset="0.13" style="stop-color:#000000;stop-opacity:0.69"/>
	<stop  offset="1" style="stop-color:#000000;stop-opacity:0"/>
</linearGradient>
<path style="fill:url(#SVGID_00000079479050234957059970000015174903390532473990_);" d="M336.6,76.3v110.9H59.1V76.3
	c0-7.5,6.1-13.6,13.6-13.6H323C330.5,62.7,336.6,68.8,336.6,76.3C336.6,76.3,336.6,76.3,336.6,76.3z"/>
<linearGradient id="SVGID_00000016068467190435200670000015784562359847430805_" gradientUnits="userSpaceOnUse" x1="178.4351" y1="281.1832" x2="207.5157" y2="-80.8071" gradientTransform="matrix(0.9364 0 0 -0.9364 -37.1353 263.8287)">
	<stop  offset="1.000000e-02" style="stop-color:#000000"/>
	<stop  offset="0.13" style="stop-color:#000000;stop-opacity:0.69"/>
	<stop  offset="1" style="stop-color:#000000;stop-opacity:0"/>
</linearGradient>
<polygon style="fill:url(#SVGID_00000016068467190435200670000015784562359847430805_);" points="147.4,63.5 59.1,187.2 
	127.9,187.2 220.8,63 "/>
<linearGradient id="SVGID_00000003088766470975578420000005256586987334088609_" gradientUnits="userSpaceOnUse" x1="325.216" y1="247.64" x2="354.2872" y2="-114.3692" gradientTransform="matrix(0.9364 0 0 -0.9364 -47.0513 233.4253)">
	<stop  offset="1.000000e-02" style="stop-color:#000000"/>
	<stop  offset="0.13" style="stop-color:#000000;stop-opacity:0.69"/>
	<stop  offset="1" style="stop-color:#000000;stop-opacity:0"/>
</linearGradient>
<path style="fill:url(#SVGID_00000003088766470975578420000005256586987334088609_);" d="M336.6,76.3v19.3l-68.5,91.6h-68.9
	l88.4-123.7l39.2-0.3C332.6,64.9,336.6,70.2,336.6,76.3z"/>
<path class="st1" d="M336.6,187.2v30.5c0,7.5-6.1,13.6-13.6,13.6h0H72.7c-7.5,0-13.6-6.1-13.6-13.6l0,0v-30.5H336.6z"/>
<path class="st8" d="M79.6,198.5c-0.2,0.2-0.3,0.5-0.4,0.7c-0.1,0.3,0,0.6,0.1,0.8c0.2,0.2,0.4,0.3,0.7,0.3c1.2,0.2,2.3,0.3,3.5,0.2
	c0.6,0,1.3-0.2,1.7-0.7c0.2-0.3,0.3-0.7,0.3-1c0.1-0.5,0.1-1,0.1-1.5c0-0.1,0-0.2-0.1-0.3c0,0-0.1-0.1-0.2-0.1
	c-1.1-0.5-2.3-0.6-3.5-0.4C81,196.7,80.2,197.8,79.6,198.5z"/>
<path class="st8" d="M94.5,198.6c-0.2-0.2-0.3-0.5-0.4-0.7c-0.1-0.3,0-0.6,0.1-0.8c0.2-0.2,0.4-0.3,0.7-0.3c1.2-0.2,2.3-0.3,3.5-0.2
	c0.6,0,0.4,0.7,0.7,1.2c0.8,0.8,1.5,1.7,2.1,2.6c0.1,0.5-3.2,0.5-4.4,0.3C95.8,200.4,95.1,199.3,94.5,198.6z"/>
<path class="st9" d="M80.8,196.3c-0.1,0.3,0,0.6,0.3,0.9c0.2,0.1,0.4,0.2,0.6,0.2c1.2,0.1,2.4,0.1,3.7,0.1c0.2,0,0.4,0,0.6-0.1
	c0.2-0.2,0.3-0.6,0.3-0.9c0.6-9.1,1.6-18.1,3-27.1c1.5,7.6,2.7,15.3,3.5,23c0.1,1.4,0.4,2.8,0.9,4c0.1,0.2,0.1,1.5,0.3,1.6
	c0.2,0,0.3,0,0.5,0c1.5-0.2,3.1-0.3,4.6-0.5c-1.4-5.2-0.7-11.9-0.6-17.3c0.2-7.2-0.9-14.4-0.3-21.6L84,159.2c-0.7,0-2.4,0.6-2.9,0.1
	c-0.6,9.6-0.2,19.4-0.3,29C80.9,190.9,80.9,193.6,80.8,196.3z"/>
<path class="st10" d="M72.1,144.7c-0.2,0.1-0.5,0.3-0.7,0.5c-0.4,0.4-0.6,0.9-0.7,1.4c-0.1,0.5,0.1,1,0.5,1.4
	c0.4,0.3,0.9,0.5,1.4,0.4c0.4,0,0.7-0.1,1-0.3c0.4-0.4,0.6-1,0.6-1.6c0.1-0.7,0-1.4-0.3-2c-0.2-0.4-0.4-0.3-0.8-0.2
	C72.9,144.4,72.5,144.5,72.1,144.7z"/>
<rect x="110.6" y="109.8" transform="matrix(0.2745 -0.9616 0.9616 0.2745 -28.276 194.247)" class="st11" width="7.9" height="12.2"/>
<path class="st12" d="M114,114.1L114,114.1c0.5,0,0.9,0.4,0.9,0.8v5.9c0,0.4-0.4,0.8-0.8,0.8H114c-0.4,0-0.8-0.4-0.8-0.8v-5.9
	C113.2,114.5,113.6,114.1,114,114.1z"/>
<path class="st8" d="M90.7,127.5c-0.2,0.5-0.1,1.1,0.2,1.6c0.2,0.2,0.5,0.3,0.8,0.4c0.4,0.1,0.8,0.1,1.2,0.1c0.4,0,0.7-0.1,1.1-0.2
	c0.4-0.1,0.7-0.4,0.9-0.7c0.2-0.4,0.3-0.7,0.3-1.1l0.2-1.9c0-0.2,0-0.3,0-0.5c-0.2-0.3-0.5-0.6-0.9-0.6c-0.6-0.1-1.3-0.1-1.9,0.1
	c-0.4,0.1-0.7,0.2-1.1,0.3s-0.6,0-0.6,0.4C90.8,126,90.8,126.8,90.7,127.5z"/>
<path class="st13" d="M90.9,116.7c0.1,0,0.2-0.1,0.4-0.1c0.1-0.1,0.2-0.2,0.3-0.4c0.4-0.6,1.1-1,1.8-1.1c0.7-0.1,1.4-0.1,2.1,0
	c0.9,0,1.7,0.2,2.5,0.8c0.3,0.3,0.5,0.7,0.7,1.1c0.3,0.5,0.5,1.1,0.6,1.7c0.1,1.4-0.8,2.5-1.3,3.8c-0.3,1-0.7,1.9-1.3,2.8
	c-0.7,0.8-1.7,1.3-2.9,1.4c-1.1,0-2.2-0.3-3.1-0.9c-0.5-0.3-0.9-0.7-1.1-1.2c-0.1-0.4-0.1-0.7-0.1-1.1c0.1-1.4,0.1-2.9,0.2-4.3
	C89.8,118.4,89.9,117,90.9,116.7z"/>
<path class="st4" d="M88.3,130c0.2-0.9,0.4-1.9,1.2-2.3s1.7-0.1,2.5,0.1c0.7,0.1,1.3,0.2,2,0.1c0.7,0,1.5-0.1,1.9,0.5
	c0.3,0.4,0.2,1.1,0.7,1.3c0.2,0.1,0.5,0.1,0.8,0c1.9-0.3,3.8-0.8,5.6-1.4c1.8-0.6,3.5-1.6,4.9-3c0.8-0.9,1.6-1.9,2.2-2.9
	c0.1-0.3,0.3-0.5,0.5-0.7c0.5-0.2,1.2-0.2,1.7,0.1c0.5,0.3,1,0.6,1.4,1c0.1,0.1,0.1,0.2,0.2,0.3c0,0.2,0,0.3-0.1,0.4
	c-1.9,4-4,8.2-7.6,10.8c-0.9,0.7-2,1.2-2.9,2c-1.2,1-2.2,2.2-2.9,3.5c-1.6,3.2-1,7.1-0.5,10.7c0.3,1.2,0.3,2.5,0.2,3.8
	c-0.3,1.2-0.8,2.4-1.6,3.4c-0.4,0.8-1.1,1.4-1.8,1.8c-0.6,0.2-1.2,0.4-1.8,0.4c-3.6,0.5-7.3,0.7-10.9,0.5c-1.3-0.1-2.9-0.4-3.5-1.7
	c-0.3-0.8-0.3-1.7-0.1-2.5c0.6-3.7,1-7.4,1.1-11.1c-0.6,0.4-0.8,1.3-1.1,2c-0.6,1-1.6,1.7-2.8,1.9c-1.1,0.2-2.3,0.2-3.4,0
	c-0.2,0-0.4-0.1-0.6-0.2c-0.2-0.2-0.2-0.4-0.2-0.7c-0.1-1,0-2,0.1-2.9c0-0.3,0.1-0.7,0.3-1c0.5-0.6,1.2-1,1.9-1.2
	c1.3-0.7,2.4-1.8,3-3.2c0.6-1.4,1-2.9,1.2-4.4c0.2-1.4,0.5-2.9,1.5-3.8c0.7-0.5,1.6-0.8,2.5-0.9C85.5,130.5,86.7,130.3,88.3,130z"/>
<path class="st9" d="M58.9,190.1h16.8c0,0-1.6,9.7-2.3,9.9c-0.7,0.2-12.2,0-12.2,0L58.9,190.1z"/>
<circle class="st9" cx="67.4" cy="190.2" r="1.5"/>
<path class="st9" d="M67,189.6l9.2,8.5c0,0,0.9,0.6,0.8-0.5l-9.4-8.3C67.6,189.3,66.9,188.9,67,189.6z"/>
<path class="st8" d="M111.9,117.7c0-0.1,0-0.2,0.1-0.4c0.1-0.1,0.1-0.1,0.2-0.2c0.4-0.3,0.8-0.6,1.2-0.9c0.4-0.3,0.9-0.5,1.4-0.4
	c0.1,0,0.3,0.1,0.4,0.2c0.1,0.1,0.1,0.2,0.1,0.3c0.1,0.5,0.2,1.1,0.2,1.7c0,0.4-0.1,0.8-0.4,1c-0.2,0.1-0.3,0.2-0.5,0.3
	c-0.3,0.3-0.5,0.8-0.5,1.2c0,0.7-0.1,1.3-0.2,1.9c0,0.2-0.1,0.3-0.2,0.4c-0.2,0.1-0.4,0.1-0.6,0c-0.5-0.2-1.6-0.7-1.5-1.4
	c0.1-0.4,0.3-0.7,0.3-1c0.1-0.4,0.1-0.9,0.1-1.3C112,118.7,111.9,118.1,111.9,117.7z"/>
<path class="st12" d="M107.1,107.9h14.1c0.5,0,0.9,0.4,0.9,0.9v0c0,0.5-0.4,0.9-0.9,0.9h-14.1c-0.5,0-0.9-0.4-0.9-0.9v0
	C106.2,108.4,106.6,107.9,107.1,107.9z"/>
<rect x="113.7" y="109.1" class="st12" width="0.6" height="5.6"/>
<path class="st9" d="M44.3,200.1h100.2c1.3,0,2.3,1,2.3,2.3l0,0c0,1.3-1,2.3-2.3,2.3H44.3c-1.3,0-2.3-1-2.3-2.3l0,0
	C42,201.1,43,200.1,44.3,200.1z"/>
<path class="st9" d="M48.9,159.5v107.2c-2.4-1.1-4.7-2.4-6.9-3.9V159.5c0-1.9,1.5-3.4,3.4-3.4C47.4,156,48.9,157.6,48.9,159.5
	C48.9,159.5,48.9,159.5,48.9,159.5z"/>
<path class="st9" d="M143,156.1L143,156.1c1.9,0,3.4,1.5,3.4,3.4v108.9c0,1.9-1.5,3.4-3.4,3.4l0,0c-1.9,0-3.4-1.5-3.4-3.4V159.5
	C139.6,157.6,141.1,156.1,143,156.1z"/>
<linearGradient id="SVGID_00000110434703013045249930000016769566531030981768_" gradientUnits="userSpaceOnUse" x1="95.709" y1="55.4331" x2="106.9888" y2="-57.7796" gradientTransform="matrix(0.9364 0 0 -0.9364 -47.0513 233.4253)">
	<stop  offset="1.000000e-02" style="stop-color:#000000"/>
	<stop  offset="0.13" style="stop-color:#000000;stop-opacity:0.69"/>
	<stop  offset="1" style="stop-color:#000000;stop-opacity:0"/>
</linearGradient>
<path style="fill:url(#SVGID_00000110434703013045249930000016769566531030981768_);" d="M48.9,159.5v107.2
	c-2.4-1.1-4.7-2.4-6.9-3.9V159.5c0-1.9,1.5-3.4,3.4-3.4C47.4,156,48.9,157.6,48.9,159.5C48.9,159.5,48.9,159.5,48.9,159.5z"/>
<linearGradient id="SVGID_00000182501286613802552690000000718593585577805444_" gradientUnits="userSpaceOnUse" x1="187.9132" y1="98.143" x2="199.1836" y2="-15.0697" gradientTransform="matrix(0.9364 0 0 -0.9364 -37.1353 263.8287)">
	<stop  offset="1.000000e-02" style="stop-color:#000000"/>
	<stop  offset="0.13" style="stop-color:#000000;stop-opacity:0.69"/>
	<stop  offset="1" style="stop-color:#000000;stop-opacity:0"/>
</linearGradient>
<path style="fill:url(#SVGID_00000182501286613802552690000000718593585577805444_);" d="M143,156.1L143,156.1
	c1.9,0,3.4,1.5,3.4,3.4v108.9c0,1.9-1.5,3.4-3.4,3.4l0,0c-1.9,0-3.4-1.5-3.4-3.4V159.5C139.6,157.6,141.1,156.1,143,156.1z"/>
<path class="st9" d="M46,220.7l17.2-17.2c0.5-0.5,1.4-0.5,2,0l0,0c0.5,0.5,0.5,1.4,0,2L48,222.6c-0.5,0.5-1.4,0.5-2,0l0,0
	C45.5,222.1,45.5,221.2,46,220.7z"/>
<path class="st9" d="M125.1,203.5l17.2,17.2c0.5,0.5,0.5,1.4,0,2l0,0c-0.5,0.5-1.4,0.5-2,0l-17.2-17.2c-0.5-0.5-0.5-1.4,0-2l0,0
	C123.6,202.9,124.5,202.9,125.1,203.5z"/>
<path class="st16" d="M139.7,52.8c0,0,2.8,13.8-11.4,18.6c0,0,16.6-6.4,21.4,6.8c0,0-3.8-15.7,9.1-20.1
	C158.8,58.1,143.5,67.6,139.7,52.8z"/>
<path class="st16" d="M107.8,55.4c0,0-0.7,9.3-9.1,12.2c0,0,11.4-4.5,12.5,5.1c0,0-1.8-10.5,7.3-11.4
	C118.5,61.3,107.9,65.6,107.8,55.4z"/>
<path class="st16" d="M145.1,86.1c0,0-0.8,10.2-9.6,13.3c0,0,12-4.9,13.2,5.6c0,0-1.9-11.5,7.7-12.4
	C156.4,92.6,145.3,97.3,145.1,86.1z"/>
<linearGradient id="SVGID_00000006700415560932970410000009311624346988982940_" gradientUnits="userSpaceOnUse" x1="164.0474" y1="-84.0647" x2="164.6033" y2="5.1465" gradientTransform="matrix(0.9364 0 0 -0.9364 -47.0513 233.4253)">
	<stop  offset="1.000000e-02" style="stop-color:#000000"/>
	<stop  offset="0.13" style="stop-color:#000000;stop-opacity:0.69"/>
	<stop  offset="1" style="stop-color:#000000;stop-opacity:0"/>
</linearGradient>
<path style="fill:url(#SVGID_00000006700415560932970410000009311624346988982940_);" d="M165.3,270.2c0,2.9-2.4,5.3-5.3,5.3h-54.8
	c-10.1-1.8-20.4-2.9-30.6-3.5c-10.8-0.5-19.2-2.4-25.7-5.4l-0.6-0.3c1-0.9,2.3-1.5,3.7-1.5h108C162.9,265,165.3,267.3,165.3,270.2z"
	/>
<linearGradient id="SVGID_00000022562436209828907110000017697115337613332631_" gradientUnits="userSpaceOnUse" x1="238.1844" y1="105.4549" x2="261.1681" y2="13.9349" gradientTransform="matrix(0.9364 0 0 -0.9364 -37.1353 263.8287)">
	<stop  offset="1.000000e-02" style="stop-color:#000000"/>
	<stop  offset="0.13" style="stop-color:#000000;stop-opacity:0.69"/>
	<stop  offset="1" style="stop-color:#000000;stop-opacity:0"/>
</linearGradient>
<circle style="fill:url(#SVGID_00000022562436209828907110000017697115337613332631_);" cx="195.8" cy="204.4" r="9.3"/>
</svg>
