<?xml version="1.0" encoding="utf-8"?>
<!-- Generator: Adobe Illustrator 26.0.1, SVG Export Plug-In . SVG Version: 6.00 Build 0)  -->
<svg version="1.1" id="Layer_1" xmlns="http://www.w3.org/2000/svg" xmlns:xlink="http://www.w3.org/1999/xlink" x="0px" y="0px"
	 viewBox="0 0 1920 1080" style="enable-background:new 0 0 1920 1080;" xml:space="preserve">
<style type="text/css">
	.st0{opacity:0.31;fill:#FFAADC;enable-background:new    ;}
	.st1{fill:#FFAADC;}
	.st2{fill:url(#SVGID_1_);}
	.st3{fill:#606161;}
	.st4{fill:url(#SVGID_00000039835840918190673720000009604941812487969215_);}
	.st5{fill:#CCE8EC;}
	.st6{fill:#6A6A6A;}
	.st7{fill:url(#SVGID_00000061463379523857607060000006374618106115260847_);}
	.st8{fill:url(#SVGID_00000116930353212845844720000011441599993019203768_);}
	.st9{fill:#2A2D6B;}
	.st10{fill:url(#SVGID_00000034777403845729004240000001173785568651481782_);}
	.st11{fill:#F2DDCA;}
	.st12{fill:url(#SVGID_00000077292837929087994330000002531713955250109353_);}
	.st13{fill:url(#SVGID_00000037679143698535841100000011522041806275466140_);}
	.st14{fill:#EFFAFF;}
	.st15{fill:url(#SVGID_00000084501974518866712230000013389871777744663985_);}
	.st16{fill:#FFFFFF;}
	.st17{fill:url(#SVGID_00000047045380982434107360000001794243065944583076_);}
	.st18{fill:url(#SVGID_00000160870693721266458710000013445086355766838933_);}
	.st19{fill:url(#SVGID_00000101087748159244059920000009177168759724228253_);}
	.st20{fill:url(#SVGID_00000048466367368168613840000010494622235810057149_);}
	.st21{fill:url(#SVGID_00000020392452178682844210000005055692218962330250_);}
	.st22{fill:url(#SVGID_00000182509375098498644930000007277715358702110129_);}
	.st23{fill:url(#SVGID_00000067225618681730299920000009715516351608204196_);}
</style>
<path class="st0" d="M905.7,1045.8c135.1-2,270.6-4,404.6-21.7c33.4-4.5,68-10.4,95.7-29.5c23.8-16.4,40.4-41.2,53.8-66.8
	c20.7-39.9,35.1-84.1,34.1-129c-1.2-52.3-22.9-103.1-19.7-155.3c3.5-56.2,35-106.1,58.9-157c24.9-53.2,42.2-111.9,35-170.2
	c-10.1-82.8-69.3-153.8-141-196.7c-71.7-42.9-155-61.7-237.4-75.6c-103.1-17.6-207.2-27.8-311.7-30.6c-50-1.1-101.8,0-147.9,19.3
	c-42.9,18-77.8,50.6-109.9,84.2c-79.8,83.5-148.6,176.9-204.6,277.8c-21,37.8-40.6,78.4-41.1,121.6c-1,74.1,52.6,136.2,81.7,204.4
	c27.6,64.4,30.6,132.4,17.3,200.5c-9.1,46.9-23.3,96.8,29.3,121c51.4,23.7,130.4,7.6,185,6.8L905.7,1045.8z"/>
<path class="st1" d="M1024.2,1026c0.7,2.1-0.5,4.3-2.5,5c-0.5,0.2-1,0.2-1.4,0.2c-30.6,5.2-61.9,3.4-93,1.6
	c-2.4-13.5,8.4-26.2,20.7-32c12.3-5.8,26.4-6.9,39.5-10.4c5.5-1.8,11.1-3.1,16.8-3.9C1028.4,984.7,1023.4,1009.4,1024.2,1026z"/>
<linearGradient id="SVGID_1_" gradientUnits="userSpaceOnUse" x1="1312.2871" y1="-42.6897" x2="1202.8014" y2="-194.562" gradientTransform="matrix(1 0 0 -1 -260.685 876.74)">
	<stop  offset="0" style="stop-color:#010101;stop-opacity:0"/>
	<stop  offset="0.95" style="stop-color:#010101"/>
</linearGradient>
<path class="st2" d="M1024.2,1026c0.7,2.1-0.5,4.3-2.5,5c-0.5,0.2-1,0.2-1.4,0.2c-30.6,5.2-61.9,3.4-93,1.6
	c-2.4-13.5,8.4-26.2,20.7-32c12.3-5.8,26.4-6.9,39.5-10.4c5.5-1.8,11.1-3.1,16.8-3.9C1028.4,984.7,1023.4,1009.4,1024.2,1026z"/>
<path class="st3" d="M931.4,298.8c-3.2-22.2-4.5-47,9-65c10.9-14.5,30-21.5,48.2-20.5c18.1,1,35.3,9.2,49.8,20.2
	c8.2,5.9,15.2,13.3,20.6,21.8c19.2,32.1,4.5,79.1,30.1,106.4c9,9.6,21.9,15,31.1,24.5c18.4,19,18,49.4-1,67.8
	c-7.9,7.7-18.3,12.4-29.3,13.4c-14,1.2-27.7-3.8-41.7-5.6c-22.3-3-45,1.9-67.3-0.6c-22.3-2.5-46.6-16.2-49.2-38.5
	s16.6-41.9,14.9-63.9c-1.2-15.3-12.1-27.8-19-41.4c-7-13.6-8.5-33.4,4.5-41.7"/>
<linearGradient id="SVGID_00000101068025971938481760000013054926667139710341_" gradientUnits="userSpaceOnUse" x1="1297.8514" y1="590.1821" x2="1280.2034" y2="453.2927" gradientTransform="matrix(1 0 0 -1 -260.685 876.74)">
	<stop  offset="0" style="stop-color:#010101;stop-opacity:0"/>
	<stop  offset="0.95" style="stop-color:#010101"/>
</linearGradient>
<path style="fill:url(#SVGID_00000101068025971938481760000013054926667139710341_);" d="M931.4,298.8c-3.2-22.2-4.5-47,9-65
	c10.9-14.5,30-21.5,48.2-20.5c18.1,1,35.3,9.2,49.8,20.2c8.2,5.9,15.2,13.3,20.6,21.8c19.2,32.1,4.5,79.1,30.1,106.4
	c9,9.6,21.9,15,31.1,24.5c18.4,19,18,49.4-1,67.8c-7.9,7.7-18.3,12.4-29.3,13.4c-14,1.2-27.7-3.8-41.7-5.6c-22.3-3-45,1.9-67.3-0.6
	c-22.3-2.5-46.6-16.2-49.2-38.5s16.6-41.9,14.9-63.9c-1.2-15.3-12.1-27.8-19-41.4c-7-13.6-8.5-33.4,4.5-41.7"/>
<rect x="1142.1" y="994.4" class="st5" width="6.2" height="10"/>
<rect x="1124.5" y="812.3" class="st6" width="41.6" height="108.7"/>
<linearGradient id="SVGID_00000116951268333920122900000008026472829593096611_" gradientUnits="userSpaceOnUse" x1="1409.0011" y1="-67.2075" x2="1401.9366" y2="111.1888" gradientTransform="matrix(1 0 0 -1 -260.695 876.74)">
	<stop  offset="0" style="stop-color:#010101;stop-opacity:0"/>
	<stop  offset="0.95" style="stop-color:#010101"/>
</linearGradient>
<rect x="1124.5" y="812.3" style="fill:url(#SVGID_00000116951268333920122900000008026472829593096611_);" width="41.6" height="108.7"/>
<rect x="1124.5" y="972.7" class="st6" width="41.6" height="20.3"/>
<rect x="1130.7" y="920.4" class="st6" width="29.1" height="52.9"/>
<linearGradient id="SVGID_00000065758482283126182440000015283382883074753154_" gradientUnits="userSpaceOnUse" x1="1391.3839" y1="-70.0925" x2="1420.4956" y2="-70.0925" gradientTransform="matrix(1 0 0 -1 -260.695 876.74)">
	<stop  offset="0" style="stop-color:#FFFFFF;stop-opacity:0"/>
	<stop  offset="0.95" style="stop-color:#FFFFFF"/>
</linearGradient>
<rect x="1130.7" y="920.4" style="fill:url(#SVGID_00000065758482283126182440000015283382883074753154_);" width="29.1" height="52.9"/>
<rect x="1050.5" y="984.6" class="st6" width="189.5" height="10.1"/>
<path class="st9" d="M1150.7,1026.8h-10.9c-2,0-3.6-1.6-3.6-3.6v-19.7c0-2,1.6-3.6,3.6-3.6h10.9c2,0,3.6,1.6,3.6,3.6v19.7
	C1154.3,1025.1,1152.7,1026.8,1150.7,1026.8z"/>
<rect x="1228.5" y="994.1" class="st5" width="6.2" height="13.7"/>
<rect x="1056.1" y="994.1" class="st5" width="6.2" height="13.7"/>
<circle class="st9" cx="1236.4" cy="1014.7" r="13.5"/>
<circle class="st9" cx="1054.1" cy="1013.8" r="13.5"/>
<path class="st1" d="M1311.1,458.1h-145.7c-15.7,0-29.2,11.2-32.1,26.6l-58.9,314.4L1244,785L1311.1,458.1z"/>
<linearGradient id="SVGID_00000129911814794821790390000018187187060209823394_" gradientUnits="userSpaceOnUse" x1="1623.1801" y1="268.4459" x2="1158.6876" y2="229.6044" gradientTransform="matrix(1 0 0 -1 -260.685 876.74)">
	<stop  offset="0" style="stop-color:#010101;stop-opacity:0"/>
	<stop  offset="0.95" style="stop-color:#010101"/>
</linearGradient>
<path style="fill:url(#SVGID_00000129911814794821790390000018187187060209823394_);" d="M1311.1,458.1h-145.7
	c-15.7,0-29.2,11.2-32.1,26.6l-58.9,314.4L1244,785L1311.1,458.1z"/>
<path class="st1" d="M1105,793.8c0-13,10.6-23.6,23.6-23.6h113.4c18.7-117.3,44.2-278,45.7-290.4c1.1-13,12.4-22.6,25.4-21.6
	c12.2,1,21.6,11.1,21.7,23.4c0,2.4,0,6.8-49.4,315.9c-1.8,11.4-11.7,19.9-23.3,19.8h-133.4C1115.5,817.4,1105,806.8,1105,793.8z
	 M1287.6,481.7c0-0.5,0-1.1,0-1.6C1287.5,480.6,1287.5,481.2,1287.6,481.7z"/>
<path class="st1" d="M986.2,817.4h158c13-0.4,23.2-11.3,22.8-24.3c-0.4-12.4-10.4-22.4-22.8-22.8h-158c-13-0.4-23.9,9.8-24.3,22.8
	c-0.4,13,9.8,23.9,22.8,24.3C985.2,817.4,985.7,817.4,986.2,817.4z"/>
<path class="st3" d="M1136.9,670.4c0,0-215.2,80.6-216.2,84.3c-6.9,25.9,59.5,238.1,59.5,238.1s22.1,14.2,48.2-2.8l-20.6-190.6
	l105.4-30.7C1113.2,768.6,1161.7,747.8,1136.9,670.4z"/>
<path class="st3" d="M995.1,666.5c0,0-150.1,70.8-148.8,74.4c1.3,3.6,29.1,231.6,29.1,231.6s19.9,13.4,48,0l4.4-191.7l181.4-26.1
	c0,0,17.9-26.8,27.8-84.3C1117.4,654.9,1000.3,664.6,995.1,666.5z"/>
<path class="st11" d="M827,554.1c0,0-30.4-8.9-42.4-7.8c-12,1.1-38.2,14.2-40.7,15.2c-2.5,1.1-5.8,7,18.1,4.8
	c23.9-2.1,33.2,15.9,50.9,12.2c17.7-3.7,21.9-14.4,21.9-14.4"/>
<path class="st1" d="M964.7,374.5l-50.1,144.9l-92.4,30.5c0,0-9.1,6.5,2.6,29.6c0,0,92.7-0.8,114.2-10.2c21.5-9.4,57.9-146,57.9-146
	"/>
<linearGradient id="SVGID_00000068671044325001288840000004557461520945359289_" gradientUnits="userSpaceOnUse" x1="1135.4728" y1="361.9224" x2="1314.7488" y2="461.7042" gradientTransform="matrix(1 0 0 -1 -260.685 876.74)">
	<stop  offset="0" style="stop-color:#010101;stop-opacity:0"/>
	<stop  offset="0.95" style="stop-color:#010101"/>
</linearGradient>
<path style="fill:url(#SVGID_00000068671044325001288840000004557461520945359289_);" d="M964.7,374.5l-50.1,144.9l-92.4,30.5
	c0,0-9.1,6.5,2.6,29.6c0,0,92.7-0.8,114.2-10.2c21.5-9.4,57.9-146,57.9-146"/>
<path class="st1" d="M1058.9,384c12.8,16,22.1,36.1,30.4,53.4c17.5,36.2,28.9,75.1,33.6,115.1c2.7,23.8,2.6,48.1,5.3,72.2
	c0.4,3.8,7.8,46.1,4.6,47.5c0,0-49.3,17.7-124,18.7c-8,0-34.8,4.2-39.6-4.5c-3-5.5,2.6-23,3-29c3-35.2,2.4-53.3,3.4-88.6
	c0.4-12.9-20.9-66.3-26.9-73.1c-7.9-8.9-10.7-21.5-9.6-33.4c1-10.7,6.7-19.4,8.7-29.5c1.9-9.2,1-18.3,4.1-27.6
	c10.1-30.7,37.8-56.4,72-50.5C1042.2,357.9,1047.5,369.8,1058.9,384z"/>
<linearGradient id="SVGID_00000017485612579309898360000001280090848730696127_" gradientUnits="userSpaceOnUse" x1="1229.7255" y1="342.735" x2="1529.9507" y2="401.01" gradientTransform="matrix(1 0 0 -1 -260.685 876.74)">
	<stop  offset="0" style="stop-color:#010101;stop-opacity:0"/>
	<stop  offset="0.95" style="stop-color:#010101"/>
</linearGradient>
<path style="fill:url(#SVGID_00000017485612579309898360000001280090848730696127_);" d="M1058.9,384c12.8,16,22.1,36.1,30.4,53.4
	c17.5,36.2,28.9,75.1,33.6,115.1c2.7,23.8,2.6,48.1,5.3,72.2c0.4,3.8,7.8,46.1,4.6,47.5c0,0-49.3,17.7-124,18.7
	c-8,0-34.8,4.2-39.6-4.5c-3-5.5,2.6-23,3-29c3-35.2,2.4-53.3,3.4-88.6c0.4-12.9-20.9-66.3-26.9-73.1c-7.9-8.9-10.7-21.5-9.6-33.4
	c1-10.7,6.7-19.4,8.7-29.5c1.9-9.2,1-18.3,4.1-27.6c10.1-30.7,37.8-56.4,72-50.5C1042.2,357.9,1047.5,369.8,1058.9,384z"/>
<path class="st14" d="M972.1,657.4c0,0-35,24.9-24.9,30.9c9.3,5.5,74.6,6.4,83.4,12.3s23.6,26.4,58.8,35.6s47.5-15.1,50.1-35.6
	c1.7-11.8-0.7-23.8-6.8-34.1C1132.7,666.5,1003.8,680.9,972.1,657.4z"/>
<rect x="613.3" y="565.4" class="st1" width="211.6" height="13.9"/>
<linearGradient id="SVGID_00000121254136324212304140000014831559154428675495_" gradientUnits="userSpaceOnUse" x1="949.4642" y1="327.49" x2="951.4308" y2="255.9659" gradientTransform="matrix(1 0 0 -1 -230.945 878.65)">
	<stop  offset="0" style="stop-color:#010101;stop-opacity:0"/>
	<stop  offset="0.95" style="stop-color:#010101"/>
</linearGradient>
<rect x="613.3" y="565.4" style="fill:url(#SVGID_00000121254136324212304140000014831559154428675495_);" width="211.6" height="13.9"/>
<rect x="591.2" y="578.5" class="st16" width="473.3" height="14.1"/>
<rect x="593.8" y="591.7" class="st16" width="376.5" height="450.4"/>
<linearGradient id="SVGID_00000024698117471514717190000011748487452338651570_" gradientUnits="userSpaceOnUse" x1="1006.3781" y1="-59.7084" x2="1039.9406" y2="553.1371" gradientTransform="matrix(1 0 0 -1 -230.945 878.65)">
	<stop  offset="0" style="stop-color:#010101;stop-opacity:0"/>
	<stop  offset="0.95" style="stop-color:#010101"/>
</linearGradient>
<rect x="593.8" y="591.7" style="fill:url(#SVGID_00000024698117471514717190000011748487452338651570_);" width="376.5" height="450.4"/>
<path class="st6" d="M564.4,325h225.7c14.7,0,26.7,11.9,26.7,26.7v151.5c0,14.7-11.9,26.7-26.7,26.7H564.4
	c-14.7,0-26.7-11.9-26.7-26.7V351.7C537.8,337,549.7,325,564.4,325z"/>
<linearGradient id="SVGID_00000095335975332529856210000013239345700699942814_" gradientUnits="userSpaceOnUse" x1="904.574" y1="332.2512" x2="913.3981" y2="618.3475" gradientTransform="matrix(1 0 0 -1 -230.945 878.65)">
	<stop  offset="0" style="stop-color:#FFFFFF;stop-opacity:0"/>
	<stop  offset="0.95" style="stop-color:#FFFFFF"/>
</linearGradient>
<path style="fill:url(#SVGID_00000095335975332529856210000013239345700699942814_);" d="M564.4,325h225.7
	c14.7,0,26.7,11.9,26.7,26.7v151.5c0,14.7-11.9,26.7-26.7,26.7H564.4c-14.7,0-26.7-11.9-26.7-26.7V351.7
	C537.8,337,549.7,325,564.4,325z"/>
<path class="st6" d="M644.4,446.9h34.5c12.8,0,23.1,10.4,23.1,23.1l0,0v109.3l0,0h-80.8l0,0V470
	C621.2,457.3,631.6,446.9,644.4,446.9z"/>
<linearGradient id="SVGID_00000003794290375704895070000003509613680338367417_" gradientUnits="userSpaceOnUse" x1="972.1844" y1="379.7631" x2="804.6307" y2="345.3208" gradientTransform="matrix(1 0 0 -1 -230.945 878.65)">
	<stop  offset="0" style="stop-color:#FFFFFF;stop-opacity:0"/>
	<stop  offset="0.95" style="stop-color:#FFFFFF"/>
</linearGradient>
<path style="fill:url(#SVGID_00000003794290375704895070000003509613680338367417_);" d="M644.4,446.9h34.5
	c12.8,0,23.1,10.4,23.1,23.1l0,0v109.3l0,0h-80.8l0,0V470C621.2,457.3,631.6,446.9,644.4,446.9z"/>
<path class="st11" d="M978.8,382c-0.1,1.8,0.2,3.5,0.8,5.2c1.5,2.9,4.3,4.9,7.6,5.3c3.2,0.3,6.4,0,9.5-1.1
	c13.8-4.2,26.7-15.3,28.2-29.7c0.3-4.3,0-8.7-1-12.9c-1.3-6.6-3.3-13.1-6-19.3c-2.6-5.8-6.4-12-12.7-13.1
	c-6.2-1.1-12.6,4.1-16.4,9.7C978,341.7,978.4,363.6,978.8,382z"/>
<linearGradient id="SVGID_00000038412859753292052310000015376488487214060947_" gradientUnits="userSpaceOnUse" x1="1257.7299" y1="605.5947" x2="1261.2491" y2="324.7773" gradientTransform="matrix(1 0 0 -1 -260.685 876.74)">
	<stop  offset="0" style="stop-color:#010101;stop-opacity:0"/>
	<stop  offset="0.95" style="stop-color:#010101"/>
</linearGradient>
<path style="fill:url(#SVGID_00000038412859753292052310000015376488487214060947_);" d="M1016,350.2c-2.7,8.3-8.3,15.4-15.7,20
	c-2.9,1.8-6.2,2.6-9.5,2.5c-5.7-0.6-10.2-5.4-12.4-10.6c-1.9-4.7-2.8-9.7-2.9-14.8c-0.7-9.1,1.1-18.2,5.4-26.2
	c4.6-7.8,12.9-13.7,22.1-13.5C1026.2,308.1,1021.3,335.9,1016,350.2z"/>
<path class="st11" d="M939.1,266.3l5.4,34.2c1.4,11.6,3.9,23.1,7.5,34.3c3.2,8.9,8.2,17.7,16.4,22.3c8.3,4.3,18.2,4.6,26.8,0.8
	c8.5-3.9,15.7-10,20.8-17.8c13.1-18.7,16.7-42.6,14.8-65.3c-1.1-13.4-4.3-27.1-12.6-37.7c-10-12.4-25.6-18.7-41.4-16.7
	C954.9,223.6,935.8,244.1,939.1,266.3z"/>
<path class="st6" d="M1050.8,279.2c-0.8-2.5-1.8-4.9-3.1-7.1c0.5-3.4,0.8-6.9,0.8-10.4c0-35.6-28.8-64.5-64.5-64.5
	c-35.6,0-64.5,28.8-64.5,64.5c0,0,0,0,0,0.1c0,3.5,0.3,7,0.9,10.5c-1.2,2.2-2.3,4.6-3.1,7c-1.5,4.1-0.5,23.9,1.3,26.5
	c3.4,4.9,12.7,8.8,18.6,9.5c0.8,0.8,1.9,1.3,3,1.2c1.9-0.1,3.3-1.8,3.2-3.7c0,0,0,0,0,0l-3.2-35.6c-0.2-1.9-1.9-3.3-3.9-3.1
	c-0.8,0.1-1.6,0.5-2.2,1.1h-1c-2.6-0.6-4.8-2.3-6-4.6c-0.5-2.9-0.7-5.8-0.7-8.8c0-32.2,25.7-54.3,57.5-54.3
	c31.8,0,57.5,22.2,57.5,54.3c0,3-0.2,5.9-0.7,8.8c-1.3,2.2-3.4,3.8-5.8,4.3h-1c-1.4-1.4-3.6-1.5-5-0.1c-0.6,0.6-1,1.3-1.1,2.1
	l-3.2,35.6c-0.1,1.9,1.3,3.6,3.2,3.8c1.1,0.1,2.2-0.3,3-1.2c5.9-0.8,15.2-4.6,18.6-9.5C1051.3,303.1,1052.3,283.3,1050.8,279.2z"/>
<linearGradient id="SVGID_00000080186965645138519310000007389283563832932031_" gradientUnits="userSpaceOnUse" x1="1248.6827" y1="660.4548" x2="1239.8586" y2="500.6125" gradientTransform="matrix(1 0 0 -1 -260.685 876.74)">
	<stop  offset="0" style="stop-color:#010101;stop-opacity:0"/>
	<stop  offset="0.95" style="stop-color:#010101"/>
</linearGradient>
<path style="fill:url(#SVGID_00000080186965645138519310000007389283563832932031_);" d="M1050.8,279.2c-0.8-2.5-1.8-4.9-3.1-7.1
	c0.5-3.4,0.8-6.9,0.8-10.4c0-35.6-28.8-64.5-64.5-64.5c-35.6,0-64.5,28.8-64.5,64.5c0,0,0,0,0,0.1c0,3.5,0.3,7,0.9,10.5
	c-1.2,2.2-2.3,4.6-3.1,7c-1.5,4.1-0.5,23.9,1.3,26.5c3.4,4.9,12.7,8.8,18.6,9.5c0.8,0.8,1.9,1.3,3,1.2c1.9-0.1,3.3-1.8,3.2-3.7
	c0,0,0,0,0,0l-3.2-35.6c-0.2-1.9-1.9-3.3-3.9-3.1c-0.8,0.1-1.6,0.5-2.2,1.1h-1c-2.6-0.6-4.8-2.3-6-4.6c-0.5-2.9-0.7-5.8-0.7-8.8
	c0-32.2,25.7-54.3,57.5-54.3c31.8,0,57.5,22.2,57.5,54.3c0,3-0.2,5.9-0.7,8.8c-1.3,2.2-3.4,3.8-5.8,4.3h-1c-1.4-1.4-3.6-1.5-5-0.1
	c-0.6,0.6-1,1.3-1.1,2.1l-3.2,35.6c-0.1,1.9,1.3,3.6,3.2,3.8c1.1,0.1,2.2-0.3,3-1.2c5.9-0.8,15.2-4.6,18.6-9.5
	C1051.3,303.1,1052.3,283.3,1050.8,279.2z"/>
<path class="st6" d="M1035.7,313.5c-3.9-3-5.2,0-5.2,0c-2.1,3.7-14,20.3-39.8,27.7c-2.5-2.3-5.8-3.5-9.2-3.3
	c-5.8,0-10.5,2.8-10.5,6.2s4.7,6.2,10.5,6.2c5.8,0,10.4-2.7,10.5-6.2C1001,341.3,1023.5,333,1035.7,313.5z"/>
<linearGradient id="SVGID_00000065060960914029832050000011516877188197156018_" gradientUnits="userSpaceOnUse" x1="1271.7515" y1="587.5059" x2="1257.1827" y2="513.3423" gradientTransform="matrix(1 0 0 -1 -260.685 876.74)">
	<stop  offset="0" style="stop-color:#010101;stop-opacity:0"/>
	<stop  offset="0.95" style="stop-color:#010101"/>
</linearGradient>
<path style="fill:url(#SVGID_00000065060960914029832050000011516877188197156018_);" d="M1035.7,313.5c-3.9-3-5.2,0-5.2,0
	c-2.1,3.7-14,20.3-39.8,27.7c-2.5-2.3-5.8-3.5-9.2-3.3c-5.8,0-10.5,2.8-10.5,6.2s4.7,6.2,10.5,6.2c5.8,0,10.4-2.7,10.5-6.2
	C1001,341.3,1023.5,333,1035.7,313.5z"/>
<path class="st3" d="M948.9,250.7c2.4,2.3,4.5,4.8,6.5,7.5c11.2,12.9,29.3,17.3,45.2,10.9c5.2-2.2,10.6-5.7,16-4.1
	c2.8,1.2,5.5,2.7,7.9,4.5c2.6,1.5,6.2,2.3,8.6,0.4c1.5-1.5,2.3-3.6,2.2-5.7c0.3-8-4.7-15.2-9.3-21.7c-3.7-5.6-8.2-10.7-13.5-14.9
	c-4.4-3-9.4-5.1-14.6-6.2c-13.5-3.2-27.8-1.8-40.5,3.8c-4.7,1.9-8.9,4.8-12.3,8.6c-2.1,2.4-5.9,8.2-4.7,11.7
	C941.6,249,946.1,248.3,948.9,250.7z"/>
<path class="st11" d="M1053,271.4c-1.3-1-2.9-1.5-4.6-1.6c-2.2,0.3-4,1.9-4.7,4.1c-0.6,2.1-0.7,4.3-0.5,6.5l1.6,29.7
	c0.1,3.3,0.5,6.5,1.2,9.7c2.3,8.4,9.1,14.6,15.5,20.4c2.6,2.8,5.9,4.8,9.6,5.9c5.3,0.6,10.6-1.7,13.6-6.1
	C1102.4,317.5,1071.6,282.8,1053,271.4z"/>
<path class="st1" d="M1084.4,498.6c16.5,18.3,37.9,33,62.1,37.7c3,1.3,6.5,0,7.8-3c0.2-0.5,0.4-1,0.4-1.5
	c7.3-19.4,5.8-41.1,0.8-61.2s-13.4-39.2-19.8-58.9c-7.8-24-43.4-88.8-46.1-88.8c-9.6,0-19,10.6-24.7,17.2
	c0.9,22,18.3,38.2,21.6,60.1c-2.6-12.1-20.3-25.9-31.4-31.4c-4.6-2.3-24.5-14.9-28.7-11.9c-3.3,2.3,9.5,17.8,8.7,21.7
	C1027.3,420.3,1057.5,468.7,1084.4,498.6z"/>
<linearGradient id="SVGID_00000052826343553606718360000018051726842622720940_" gradientUnits="userSpaceOnUse" x1="1441.7363" y1="473.9196" x2="1011.2462" y2="288.485" gradientTransform="matrix(1 0 0 -1 -260.685 876.74)">
	<stop  offset="0" style="stop-color:#010101;stop-opacity:0"/>
	<stop  offset="0.95" style="stop-color:#010101"/>
</linearGradient>
<path style="fill:url(#SVGID_00000052826343553606718360000018051726842622720940_);" d="M1084.4,498.6c16.5,18.3,37.9,33,62.1,37.7
	c3,1.3,6.5,0,7.8-3c0.2-0.5,0.4-1,0.4-1.5c7.3-19.4,5.8-41.1,0.8-61.2s-13.4-39.2-19.8-58.9c-7.8-24-43.4-88.8-46.1-88.8
	c-9.6,0-19,10.6-24.7,17.2c0.9,22,18.3,38.2,21.6,60.1c-2.6-12.1-20.3-25.9-31.4-31.4c-4.6-2.3-24.5-14.9-28.7-11.9
	c-3.3,2.3,9.5,17.8,8.7,21.7C1027.3,420.3,1057.5,468.7,1084.4,498.6z"/>
</svg>
