<?xml version="1.0" encoding="utf-8"?>
<!-- Generator: Adobe Illustrator 26.0.1, SVG Export Plug-In . SVG Version: 6.00 Build 0)  -->
<svg version="1.1" id="Capa_1" xmlns="http://www.w3.org/2000/svg" xmlns:xlink="http://www.w3.org/1999/xlink" x="0px" y="0px"
	 viewBox="0 0 24 24" style="enable-background:new 0 0 24 24;" xml:space="preserve">
<style type="text/css">
	.st0{fill:none;}
	.st1{fill:#FFFFFF;}
</style>
<path class="st0" d="M0,0h24v24H0V0z"/>
<path class="st1" d="M18.8,7h-2.6l-5.7-3L4,7.4V17c-1.1,0-2-0.9-2-2V7.2c0-0.5,0.3-1.1,0.8-1.3L10.5,2L18,5.8
	C18.5,6.1,18.8,6.5,18.8,7z M20,8H7c-1.1,0-2,0.9-2,2v9c0,1.1,0.9,2,2,2h13c1.1,0,2-0.9,2-2v-9C22,8.9,21.1,8,20,8z M20,11.7
	L13.5,15L7,11.7V10l6.5,3.3L20,10V11.7z"/>
</svg>
