<?xml version="1.0" encoding="utf-8"?>
<!-- Generator: Adobe Illustrator 26.0.1, SVG Export Plug-In . SVG Version: 6.00 Build 0)  -->
<svg version="1.1" id="Layer_1" xmlns="http://www.w3.org/2000/svg" xmlns:xlink="http://www.w3.org/1999/xlink" x="0px" y="0px"
	 viewBox="0 0 1920 1080" style="enable-background:new 0 0 1920 1080;" xml:space="preserve">
<style type="text/css">
	.st0{opacity:0.31;fill:#FFAADC;enable-background:new    ;}
	.st1{fill:#FFAADC;}
	.st2{fill:url(#SVGID_1_);}
	.st3{fill:url(#SVGID_00000152263192540063419350000016567572642536215681_);}
	.st4{fill:url(#SVGID_00000093869891125289447210000008746914786410585260_);}
	.st5{opacity:0.19;fill:url(#SVGID_00000135692839820289543880000015688616217165753759_);enable-background:new    ;}
	.st6{fill:url(#SVGID_00000070110148345713059580000001342945344482703545_);}
	.st7{opacity:0.19;fill:url(#SVGID_00000141424740479746726430000014209553358826480008_);enable-background:new    ;}
	.st8{fill:url(#SVGID_00000067202139310999560020000017345709375040147631_);}
	.st9{fill:url(#SVGID_00000172434979932222580540000005165720530701137561_);}
	.st10{fill:url(#SVGID_00000110437962814805910140000006181257130838654350_);}
	.st11{fill:url(#SVGID_00000002348005682624147180000001839384200734309530_);}
	.st12{fill:#3F3D56;}
	.st13{fill:url(#SVGID_00000019647351243408867670000003839259643297501887_);}
	.st14{fill:url(#SVGID_00000120532004029935204810000001846032825205750414_);}
	.st15{fill:url(#SVGID_00000088101308078533859840000016559829096022518974_);}
	.st16{fill:url(#SVGID_00000020366860765982472560000001643795477626815407_);}
	.st17{opacity:0.47;fill:url(#SVGID_00000152255492274550244270000013993956248756776374_);enable-background:new    ;}
	.st18{opacity:0.47;fill:url(#SVGID_00000164499382218801796790000004342671210528169871_);enable-background:new    ;}
	.st19{opacity:0.47;fill:url(#SVGID_00000116956796663587317450000014477364960977547184_);enable-background:new    ;}
	.st20{opacity:0.19;fill:url(#SVGID_00000124136958300489867130000006788033523906071178_);enable-background:new    ;}
</style>
<path class="st0" d="M1466.9,1027.3c-37,22.8-55.5,23.4-98.9,23.4c-98.5,0-197-0.5-295.4-1.4l20.4-7.8c1.2-11.3-14.4-15.4-25.8-15.3
	l-515.2,7.5c-91.9,1.3-196.9-3-255.7-73.6c-32.8-39.2-44.2-93.5-38.4-144.3S268.3,654.1,418,521.3c49.5-44,105.2,14.3,117.7-50.8
	c18.7-97.4-55.5-194.4-38.5-292.2c9.1-52.4,44.7-98.1,90.1-125.9c45.4-27.8,99.6-38.7,152.8-38c32.1,0.4,64.6,5.1,93.6,18.8
	c28.3,13.4,52,34.8,76.7,54.1c36.2,28.3,76.1,52.9,120.4,65.3c88.6,24.7,182.1-1.9,273.5-12.3c79.2-8.9,162.1-4.9,234.3,28.9
	s131.7,101.5,139.9,180.8c9,86.5-40.6,180.8,1.5,257c11.8,21.4,35,36.6,41.9,60.1c12.1,40.9-24.5,103.8-3.9,184.1
	c12.1,47.4-33.9,110.2-80.5,136C1616.8,998.5,1555.5,972.7,1466.9,1027.3z"/>
<rect x="813.1" y="931.4" class="st1" width="318.3" height="124.2"/>
<linearGradient id="SVGID_1_" gradientUnits="userSpaceOnUse" x1="1380.412" y1="-116.0693" x2="1386.0662" y2="-265.7527" gradientTransform="matrix(1 0 0 -1 -411.535 787.305)">
	<stop  offset="0" style="stop-color:#000000"/>
	<stop  offset="0.98" style="stop-color:#000000;stop-opacity:0"/>
</linearGradient>
<rect x="813.1" y="931.4" class="st2" width="318.3" height="124.2"/>
<path class="st1" d="M1562.5,171.6v692.1c0,42.1-34.2,76.3-76.3,76.3H480.1c-42.1,0-76.3-34.1-76.3-76.3c0,0,0,0,0-0.1V171.5
	c0-42.1,34.1-76.3,76.3-76.3h1006.2C1528.4,95.3,1562.6,129.4,1562.5,171.6C1562.5,171.6,1562.5,171.6,1562.5,171.6z"/>
<linearGradient id="SVGID_00000018958811722345418630000010866181298392018859_" gradientUnits="userSpaceOnUse" x1="1395.6362" y1="604.0231" x2="1395.6362" y2="-302.5671" gradientTransform="matrix(1 0 0 -1 -412.465 787.305)">
	<stop  offset="0" style="stop-color:#FFFFFF;stop-opacity:0"/>
	<stop  offset="1.000000e-02" style="stop-color:#FFFFFF;stop-opacity:1.000000e-02"/>
	<stop  offset="0.38" style="stop-color:#FFFFFF;stop-opacity:0.43"/>
	<stop  offset="0.67" style="stop-color:#FFFFFF;stop-opacity:0.74"/>
	<stop  offset="0.88" style="stop-color:#FFFFFF;stop-opacity:0.93"/>
	<stop  offset="0.98" style="stop-color:#FFFFFF"/>
</linearGradient>
<path style="fill:url(#SVGID_00000018958811722345418630000010866181298392018859_);" d="M1562.5,171.6v692.1
	c0,42.1-34.2,76.3-76.3,76.3H480.1c-42.1,0-76.3-34.1-76.3-76.3c0,0,0,0,0-0.1V171.5c0-42.1,34.1-76.3,76.3-76.3h1006.2
	C1528.4,95.3,1562.6,129.4,1562.5,171.6C1562.5,171.6,1562.5,171.6,1562.5,171.6z"/>
<path class="st1" d="M1562.5,759v104.5c0,42.1-34.1,76.2-76.2,76.3c0,0,0,0-0.1,0H480.1c-42.1,0-76.3-34.1-76.3-76.3v0V759H1562.5z"
	/>
<linearGradient id="SVGID_00000134229869098141983270000003537283171555175870_" gradientUnits="userSpaceOnUse" x1="1377.8619" y1="249.2743" x2="1403.2788" y2="-143.3056" gradientTransform="matrix(1 0 0 -1 -412.465 787.305)">
	<stop  offset="0" style="stop-color:#000000"/>
	<stop  offset="0.98" style="stop-color:#000000;stop-opacity:0"/>
</linearGradient>
<path style="fill:url(#SVGID_00000134229869098141983270000003537283171555175870_);" d="M1562.5,759v104.5
	c0,42.1-34.1,76.2-76.2,76.3c0,0,0,0-0.1,0H480.1c-42.1,0-76.3-34.1-76.3-76.3v0V759H1562.5z"/>
<linearGradient id="SVGID_00000155864231931310098040000010394514722063177387_" gradientUnits="userSpaceOnUse" x1="1580.8866" y1="152.5522" x2="1975.0082" y2="152.5522" gradientTransform="matrix(1 0 0 -1 -412.465 787.305)">
	<stop  offset="0" style="stop-color:#183866"/>
	<stop  offset="1" style="stop-color:#1A7FC1"/>
</linearGradient>
<path style="opacity:0.19;fill:url(#SVGID_00000155864231931310098040000010394514722063177387_);enable-background:new    ;" d="
	M1562.5,857.7v5.9c0,26.2-13.4,50.5-35.6,64.5c-7.9,3.4-16.1,6.3-24.4,8.7c-20.7-44.9-41.3-89.7-62-134.6
	c-6.8-14.6-13.7-29.6-22.3-43.2c-7.1-11.6-15.9-22-26.3-30.8l-1.6,30.8c-0.5,9.2-1,18.3-1.4,27.5c-0.3,5.4-0.7,11-3.8,15.4
	c-5.8,8.1-18.9,7.6-26.9,1.5c-7.9-6.1-12-15.9-15.6-25.2c-2.4-6.3-4.8-12.7-7.1-19.1c-8.5-23.1-16.4-46.5-23.6-70
	c-29.9-4.5-52.8-36.2-47.9-65.9c1.1-6.9,3.6-13.5,4.8-20.3c1.7-8.9,1.4-18.2,1.2-27.3l-4-143.4c-14.1-0.4-28-2.1-41.8-5
	c-1.8,13.3-14,22.7-27.3,20.9c-6.7-0.9-12.8-4.5-16.7-10.1c-4.2-6-5.5-13.5-6.5-20.8c-1.4-10.2-10-47.8-1.7-55.5
	c7.5-6.9,34.5,1.4,45.6-1.3c14.7-3.6,28.3-10.5,42.5-15.7c23-8.4,47.4-12.5,71.8-12c17.7,0.4,36,3.4,50.6,13.5s24.4,28.4,20.3,45.6
	c-8.4,2.8-14.9-8.6-23.6-10.4c-4.3-0.9-8.7,0.7-12.9,2.2c-16.4,6.2-32.8,12.4-49.2,18.6c-3.1,1.2-6.4,2.5-8.2,5.4
	c-1.7,2.9-1.4,6.5-0.9,9.8c3.6,22.6,12.4,44.1,25.7,62.7c11.9,16.6,27.2,30.7,37.8,48.3c10.6,17.5,15.7,40.5,5.5,58.2
	c-0.8,1.1-1.4,2.5-1.6,3.8c-0.3,3,2.3,5.3,4.7,7.1c55.4,42.8,96.2,100.1,131,161.5C1529.6,791.3,1546.3,824.7,1562.5,857.7z"/>
<linearGradient id="SVGID_00000040537789983373129260000004531121538909606048_" gradientUnits="userSpaceOnUse" x1="1762.2303" y1="62.1345" x2="2134.7097" y2="62.1345" gradientTransform="matrix(1 0 0 -1 -412.465 787.305)">
	<stop  offset="0" style="stop-color:#ECC4D7"/>
	<stop  offset="0.42" style="stop-color:#EFD4D1"/>
	<stop  offset="1" style="stop-color:#F2EAC9"/>
</linearGradient>
<path style="fill:url(#SVGID_00000040537789983373129260000004531121538909606048_);" d="M1682.5,964l-0.2,0.1
	c-5.1,4-10.4,7.5-16.1,10.7l0,0c-9,5.2-18.6,9.3-28.5,12.2c0,0-152.3-227.8-170.7-244.8l0,0c-14.2-13-39.6-20.8-52.8-25.9
	c-2.8-0.9-5.4-2.2-7.8-3.8c-5.4-4.9-27.3-84-42.4-107.4c-16.4-25.5-16.7-38.2-10.7-44c3.4-2.8,7.7-4.4,12.1-4.5
	c11-0.8,23.8,3.3,23.8,3.3c2.9-5.7,2.1-11.8-0.7-18.6c-4.4-10.7-13.6-23.2-20.9-39.2c-12.1-26.4,8-38.9,8-38.9s56.4,60.3,88.1,85.4
	c31.7,25.1,32.4,102.2,81,147c48.6,44.8,173.3,155.6,173.3,155.6C1732.3,909.2,1708,944.2,1682.5,964z"/>
<linearGradient id="SVGID_00000152236684333812412730000005516677047162731930_" gradientUnits="userSpaceOnUse" x1="1871.9744" y1="165.2828" x2="1543.017" y2="120.5311" gradientTransform="matrix(1 0 0 -1 -412.465 787.305)">
	<stop  offset="0" style="stop-color:#183866"/>
	<stop  offset="1" style="stop-color:#1A7FC1"/>
</linearGradient>
<path style="opacity:0.19;fill:url(#SVGID_00000152236684333812412730000005516677047162731930_);enable-background:new    ;" d="
	M1432.4,684.8c4.5,8,6.3,38.4-18.2,31.5c-7.7-2.2-15.9-1.6-23.7-3.6c-2.6-0.5-5-1.6-7.1-3.1c-4.6-3.6-5.4-10.1-6.4-15.8
	c-4.3-24.7-18.4-46.8-23.2-71.3c-2.2-10.8-2.6-22.5-8.5-31.8c-3.6-5.7-9.2-11.8-6.7-18c1.2-2.8,3.9-4.7,6.5-6.4
	c2.7-1.9,5.5-3.5,8.4-5c0.5-0.2,1-0.5,1.5-0.7c2.5-1,5.2-1.6,7.7-2.6c1-0.4,1.9-0.8,2.9-1.2c11-0.8,23.8,3.3,23.8,3.3
	c2.9-5.7,2.1-11.8-0.7-18.6c8.7,7.1,37.3,45.4,28.8,82.1C1415.8,629.3,1404,633.9,1432.4,684.8z"/>
<rect x="725.2" y="1038.1" class="st1" width="499.5" height="20.4"/>
<linearGradient id="SVGID_00000132050307578008264620000012370358777106737305_" gradientUnits="userSpaceOnUse" x1="1386.4658" y1="-208.1766" x2="1386.4658" y2="-292.1685" gradientTransform="matrix(1 0 0 -1 -411.535 787.305)">
	<stop  offset="0" style="stop-color:#000000"/>
	<stop  offset="0.98" style="stop-color:#000000;stop-opacity:0"/>
</linearGradient>
<rect x="725.2" y="1038.1" style="fill:url(#SVGID_00000132050307578008264620000012370358777106737305_);" width="499.5" height="20.4"/>
<path class="st1" d="M1168.1,351.9l27.7-9.7l4.1,7.8c0,0,144.8-61.1,200.2-62.4s75.9,48.5,82.8,80.7c0,0-48.2-49.9-115.3-29.4
	c-67.2,20.5-154,50.4-154,50.4l2.7,12.5l-26.6,10.3L1168.1,351.9z"/>
<path class="st1" d="M1248.8,328.9l21.1,55c2.3,6.1,8.8,9.4,15.1,7.8l41-10.6c6-1.6,10.1-7.3,9.5-13.5l-5.5-62.2
	c-0.6-7-6.9-12.2-13.9-11.6c-0.9,0.1-1.8,0.3-2.7,0.5l-56.6,17.8c-6.7,2.1-10.5,9.3-8.3,16C1248.6,328.5,1248.7,328.7,1248.8,328.9z
	"/>
<linearGradient id="SVGID_00000129194975877172718350000003364952168744234382_" gradientUnits="userSpaceOnUse" x1="1604.1887" y1="416.1876" x2="1701.3794" y2="416.1876" gradientTransform="matrix(1 0 0 -1 -412.465 787.305)">
	<stop  offset="0" style="stop-color:#000000"/>
	<stop  offset="0.98" style="stop-color:#000000;stop-opacity:0"/>
</linearGradient>
<path style="fill:url(#SVGID_00000129194975877172718350000003364952168744234382_);" d="M1265.2,371.7
	c-30.1,10-51.7,17.5-51.7,17.5l2.7,12.5l-26.6,10.3l-21.5-60l27.7-9.7l4.1,7.8c0,0,20.7-8.7,49.5-19.6L1265.2,371.7z"/>
<linearGradient id="SVGID_00000142860309408141860750000002213467160602303927_" gradientUnits="userSpaceOnUse" x1="1718.8057" y1="459.4545" x2="1872.181" y2="459.4545" gradientTransform="matrix(1 0 0 -1 -412.465 787.305)">
	<stop  offset="0" style="stop-color:#000000"/>
	<stop  offset="0.98" style="stop-color:#000000;stop-opacity:0"/>
</linearGradient>
<path style="fill:url(#SVGID_00000142860309408141860750000002213467160602303927_);" d="M1482.8,368.2c0,0-48.2-49.9-115.3-29.4
	c-10.8,3.3-22.2,6.8-33.6,10.5l-3.9-43.9c-0.1-1-0.3-2-0.6-2.9c27.5-8.3,53.4-14.5,70.6-15C1455.5,286.2,1476,336.1,1482.8,368.2z"
	/>
<linearGradient id="SVGID_00000085217536119088480380000008490059376126744248_" gradientUnits="userSpaceOnUse" x1="1661.3446" y1="489.415" x2="1789.5707" y2="375.6186" gradientTransform="matrix(1 0 0 -1 -412.465 787.305)">
	<stop  offset="0" style="stop-color:#000000"/>
	<stop  offset="0.98" style="stop-color:#000000;stop-opacity:0"/>
</linearGradient>
<path style="fill:url(#SVGID_00000085217536119088480380000008490059376126744248_);" d="M1326.1,381.1l-41,10.6
	c-6.3,1.6-12.8-1.7-15.1-7.8l-4.7-12.2l-15.9-41.4l-0.5-1.4c-2.5-6.6,0.8-14,7.3-16.5c0.2-0.1,0.5-0.2,0.7-0.3l56.6-17.8
	c6.6-2.1,13.7,1.5,15.9,8.2c0.3,0.9,0.5,1.9,0.6,2.9l3.9,43.9l1.6,18.3C1336.2,373.8,1332.1,379.5,1326.1,381.1z"/>
<path class="st12" d="M1285,391.7l86.5,405.4c0,0,19.6,33.4,48.7,24.4s-2.9-117.1-36.1-216.8c-33.2-99.7-57.8-199.8-58-223.5
	L1285,391.7z"/>
<linearGradient id="SVGID_00000150078936436686747870000002047734004464324521_" gradientUnits="userSpaceOnUse" x1="1702.6897" y1="200.4953" x2="1827.8844" y2="200.4953" gradientTransform="matrix(1 0 0 -1 -412.465 787.305)">
	<stop  offset="0" style="stop-color:#ECC4D7"/>
	<stop  offset="0.42" style="stop-color:#EFD4D1"/>
	<stop  offset="1" style="stop-color:#F2EAC9"/>
</linearGradient>
<path style="fill:url(#SVGID_00000150078936436686747870000002047734004464324521_);" d="M1320.7,558.6c0,0-36.1,10-29.7,28
	s68.3,33.1,101,26.9c32.7-6.2,24.8-20.4,14.1-26.9s-82.7-15.5-82.7-15.5L1320.7,558.6z"/>
<linearGradient id="SVGID_00000135688498274128644510000013634368927947135904_" gradientUnits="userSpaceOnUse" x1="1763.0427" y1="180.9607" x2="1761.5088" y2="132.2494" gradientTransform="matrix(1 0 0 -1 -412.465 787.305)">
	<stop  offset="0" style="stop-color:#ECC4D7"/>
	<stop  offset="0.42" style="stop-color:#EFD4D1"/>
	<stop  offset="1" style="stop-color:#F2EAC9"/>
</linearGradient>
<path style="fill:url(#SVGID_00000135688498274128644510000013634368927947135904_);" d="M1303.9,598.8c0,0-23.8,18.4-15,35.3
	c8.7,16.9,97,23.3,113.4,18.5c16.3-4.8,9.4-21.6,4.7-25c-5.2-4.4-10.2-9-14.9-13.9C1392,613.7,1346.4,620.2,1303.9,598.8z"/>
<linearGradient id="SVGID_00000119807430014822134000000011283683358960389537_" gradientUnits="userSpaceOnUse" x1="1773.5768" y1="132.7132" x2="1773.5768" y2="104.5138" gradientTransform="matrix(1 0 0 -1 -412.465 787.305)">
	<stop  offset="0" style="stop-color:#ECC4D7"/>
	<stop  offset="0.42" style="stop-color:#EFD4D1"/>
	<stop  offset="1" style="stop-color:#F2EAC9"/>
</linearGradient>
<path style="fill:url(#SVGID_00000119807430014822134000000011283683358960389537_);" d="M1307.4,678.5c0,0-17.2-24.4,9.2-31.4
	c0,0,68.6,11,85.6,5.5c0,0,19.9,7.8,18,22C1417.7,692.8,1317.9,695.8,1307.4,678.5z"/>
<linearGradient id="SVGID_00000070112279062156251480000008639907821929378731_" gradientUnits="userSpaceOnUse" x1="1780.5785" y1="114.0572" x2="1782.1125" y2="72.534" gradientTransform="matrix(1 0 0 -1 -412.465 787.305)">
	<stop  offset="0" style="stop-color:#ECC4D7"/>
	<stop  offset="0.42" style="stop-color:#EFD4D1"/>
	<stop  offset="1" style="stop-color:#F2EAC9"/>
</linearGradient>
<path style="fill:url(#SVGID_00000070112279062156251480000008639907821929378731_);" d="M1346.3,719.7c0,0,60.6,5,70.4-9.5
	c9.8-14.5-9.8-25.4-9.8-25.4s-57.5,7.7-75,3.4S1310.1,711,1346.3,719.7z"/>
<linearGradient id="SVGID_00000102506340808011349370000012288608840580913576_" gradientUnits="userSpaceOnUse" x1="1433.887" y1="522.874" x2="1316.7731" y2="16.141" gradientTransform="matrix(1 0 0 -1 -412.465 787.305)">
	<stop  offset="0" style="stop-color:#000000"/>
	<stop  offset="0.98" style="stop-color:#000000;stop-opacity:0"/>
</linearGradient>
<path style="opacity:0.47;fill:url(#SVGID_00000102506340808011349370000012288608840580913576_);enable-background:new    ;" d="
	M961,394.9c-0.1-0.2-0.2-0.5-0.2-0.7c-2-6.9-4.7-13.5-8.2-19.8c-5.6-10-14.3-20.5-26.8-22.6c-3-0.6-4.8-3.6-4.2-6.5
	c0.6-2.7,3.2-4.6,6-4.3c30.8,5.1,42.5,45.7,43.7,50.1c12.1-3.4,24.9-3.5,37.1-0.2c1.4-5.2,13.2-44.9,43.6-49.9
	c3-0.3,5.7,1.8,6.1,4.8c0.3,2.8-1.5,5.4-4.3,6c-12.4,2.1-21.1,12.5-26.8,22.6c-3.5,6.3-6.2,12.9-8.2,19.8l-0.1,0.4
	c18.5,8.1,33.9,24,43.5,44.3h-144C927.6,418.9,942.7,403.1,961,394.9z"/>
<linearGradient id="SVGID_00000132062712172071657010000012377879149193474184_" gradientUnits="userSpaceOnUse" x1="1454.6616" y1="518.0677" x2="1337.5298" y2="11.3524" gradientTransform="matrix(1 0 0 -1 -412.465 787.305)">
	<stop  offset="0" style="stop-color:#000000"/>
	<stop  offset="0.98" style="stop-color:#000000;stop-opacity:0"/>
</linearGradient>
<path style="opacity:0.47;fill:url(#SVGID_00000132062712172071657010000012377879149193474184_);enable-background:new    ;" d="
	M1072.5,492c-0.3,7.4-1.3,14.7-3,21.9h24.7c4.5,0,8.2,3.6,8.2,8.2c0,2.2-0.9,4.3-2.4,5.8c-1.6,1.5-3.6,2.4-5.8,2.4h-25.6
	c-1.4,0-2.7-0.3-3.9-1c-2.1,5.3-4.7,10.4-7.7,15.3h16.2c4.5,0,8.2,3.7,8.2,8.2c0,4.5-3.7,8.2-8.2,8.2h-25.6c-0.9,0-1.9-0.2-2.7-0.5
	c-14.5,15.3-33.7,24.7-54.6,24.7s-40.2-9.4-54.7-24.8c-1,0.4-2,0.6-3,0.6h-25.6c-4.5,0-8.2-3.6-8.2-8.2c0,0,0,0,0,0
	c0-4.5,3.6-8.2,8.2-8.2c0,0,0,0,0,0h16.6c-3-4.9-5.6-10.1-7.7-15.5c-1.3,0.8-2.8,1.2-4.3,1.2h-25.6c-4.5,0-8.2-3.7-8.2-8.2
	c0-4.5,3.7-8.2,8.2-8.2l0,0h25.1c-1.7-7.1-2.7-14.4-3-21.8h-25.3c-4.5,0.2-8.4-3.3-8.6-7.8c-0.2-4.5,3.3-8.4,7.8-8.6
	c0.3,0,0.5,0,0.8,0h25.8c0.6-6.2,1.7-12.3,3.3-18.4h157.3c1.6,6.1,2.7,12.3,3.3,18.6c0.6-0.1,1.2-0.2,1.8-0.2h25.6
	c4.5-0.2,8.4,3.3,8.6,7.8c0.2,4.5-3.3,8.4-7.8,8.6c-0.3,0-0.5,0-0.8,0h-25.7C1073.5,492.1,1073,492.1,1072.5,492z"/>
<linearGradient id="SVGID_00000063628838655724941040000011662628110349696143_" gradientUnits="userSpaceOnUse" x1="1330.3011" y1="546.8197" x2="1213.1871" y2="40.0866" gradientTransform="matrix(1 0 0 -1 -412.465 787.305)">
	<stop  offset="0" style="stop-color:#000000"/>
	<stop  offset="0.98" style="stop-color:#000000;stop-opacity:0"/>
</linearGradient>
<path style="opacity:0.47;fill:url(#SVGID_00000063628838655724941040000011662628110349696143_);enable-background:new    ;" d="
	M874.2,391.7c-20.7,0-37.5,16.8-37.5,37.5c0,20.7,16.8,37.5,37.5,37.5c20.7,0,37.5-16.8,37.5-37.5l0,0
	C911.7,408.5,894.9,391.7,874.2,391.7z M874.2,402.9c14.5,0,26.2,11.7,26.2,26.2c0,0,0,0,0,0c0,2.3-0.3,4.6-0.9,6.8l-43.8-25.3
	C860.7,405.6,867.3,402.9,874.2,402.9z M874.2,455.4c-14.5,0-26.2-11.8-26.2-26.3c0-2.4,0.3-4.7,1-7l44,25.4
	C888.1,452.5,881.3,455.4,874.2,455.4z"/>
<linearGradient id="SVGID_00000099635013081584105600000016504140237049826694_" gradientUnits="userSpaceOnUse" x1="1879.4049" y1="-77.4086" x2="2094.9404" y2="-77.4086" gradientTransform="matrix(1 0 0 -1 -412.465 787.305)">
	<stop  offset="0" style="stop-color:#183866"/>
	<stop  offset="1" style="stop-color:#1A7FC1"/>
</linearGradient>
<path style="opacity:0.19;fill:url(#SVGID_00000099635013081584105600000016504140237049826694_);enable-background:new    ;" d="
	M1682.5,964l-0.2,0.1c-1.3,0.9-8,5.7-16.1,10.7l0,0c-10.3,6.3-22.7,12.9-28.5,12.2c0,0-152.1-227.8-170.5-244.8l0,0
	c0,0,21.2,0.2,44.3,16.8C1534.7,775.6,1682.5,964,1682.5,964z"/>
</svg>
