<?xml version="1.0" encoding="utf-8"?>
<!-- Generator: Adobe Illustrator 26.0.1, SVG Export Plug-In . SVG Version: 6.00 Build 0)  -->
<svg version="1.1" id="Capa_1" xmlns="http://www.w3.org/2000/svg" xmlns:xlink="http://www.w3.org/1999/xlink" x="0px" y="0px"
	 viewBox="0 0 24 24" style="enable-background:new 0 0 24 24;" xml:space="preserve">
<style type="text/css">
	.st0{fill:#6A6A6A;}
</style>
<path class="st0" d="M20,13H4c-1.1,0-2,0.9-2,2v4c0,1.1,0.9,2,2,2h16c1.1,0,2-0.9,2-2v-4C22,13.9,21.1,13,20,13z M16,18h-2v-2h2V18z
	 M20,18h-2v-2h2V18z M20.8,11H21l-1.7-7.4c-0.2-0.9-1-1.6-2-1.6H6.6c-0.9,0-1.7,0.7-2,1.6L3,11H20.8z"/>
</svg>
