<?xml version="1.0" encoding="utf-8"?>
<!-- Generator: Adobe Illustrator 26.0.1, SVG Export Plug-In . SVG Version: 6.00 Build 0)  -->
<svg version="1.1" id="Capa_1" xmlns="http://www.w3.org/2000/svg" xmlns:xlink="http://www.w3.org/1999/xlink" x="0px" y="0px"
	 viewBox="0 0 24 24" style="enable-background:new 0 0 24 24;" xml:space="preserve">
<style type="text/css">
	.st0{fill:#6A6A6A;}
</style>
<path class="st0" d="M21.5,6.1L17.6,10l-3.5-3.5L18,2.6c-3.3-1.4-7.1,0.2-8.5,3.5c-0.7,1.6-0.7,3.4,0,4.9l-6.3,6.3
	c-0.4,0.4-0.4,1,0,1.4c0,0,0,0,0,0l2.1,2.1c0.4,0.4,1,0.4,1.4,0c0,0,0,0,0,0l6.3-6.3c2.4,1,5.2,0.4,7.1-1.4
	C22,11.3,22.5,8.5,21.5,6.1z"/>
</svg>
