<?xml version="1.0" encoding="utf-8"?>
<!-- Generator: Adobe Illustrator 26.0.1, SVG Export Plug-In . SVG Version: 6.00 Build 0)  -->
<svg version="1.1" id="Layer_1" xmlns="http://www.w3.org/2000/svg" xmlns:xlink="http://www.w3.org/1999/xlink" x="0px" y="0px"
	 viewBox="0 0 406 306" style="enable-background:new 0 0 406 306;" xml:space="preserve">
<style type="text/css">
	.st0{opacity:0.18;fill:#FFAADC;enable-background:new    ;}
	.st1{fill:#FFAADC;}
	.st2{fill:url(#SVGID_1_);}
	.st3{fill:#FFFFFF;}
	.st4{fill:#EEA886;}
	.st5{fill:url(#SVGID_00000051373354474213628060000015036905035941544614_);}
	.st6{fill:url(#SVGID_00000070836221572970657640000001916863270051431598_);}
</style>
<path class="st0" d="M396,233c-4.6,9.4-11.4,17.5-19.8,23.7c-2.3,1.7-4.7,3.2-7.2,4.5c-18.2,9.5-39.8,8.8-60.3,9.8
	c-25.3,1.2-50.3,5.3-75.6,7.4c-11.2,1-22.6,1.4-33.8-0.4c-12.4-2.1-24.2-7.1-36.4-10.2c-15.5-3.9-31.5-4.8-47.5-4.3
	c-11.4,0.3-24.2,0.9-32.6-6.8c-1.7-1.5-3.1-3.3-5.1-4.2s-4.6-1-6.9-0.9l-25.1,0.8c-4.3,0.1-8.7,0.2-13-0.1c-7.2-0.5-14.2-2-20-6.3
	c-0.4-0.3-0.7-0.6-1.1-0.9c-9.7-8-12.5-22-11.7-34.6c2.4-41.5,34.9-76.3,72.5-93.9s80-21.1,121.5-24.3
	c51.4-4.1,104.9-12.9,156.5-12.2c19,0.3,24.2,11,31.6,27.1c9.2,20.1,22.9,45.5,22.9,68.1C407.7,194.7,404.8,215.8,396,233z"/>
<rect x="35.4" y="26.8" class="st1" width="337.6" height="232.6"/>
<linearGradient id="SVGID_1_" gradientUnits="userSpaceOnUse" x1="232.1724" y1="401.4038" x2="218.8624" y2="-484.1362" gradientTransform="matrix(0.975 0 0 -0.975 -18.9349 317.4053)">
	<stop  offset="0" style="stop-color:#000000;stop-opacity:0"/>
	<stop  offset="0.99" style="stop-color:#000000"/>
</linearGradient>
<rect x="35.4" y="26.8" class="st2" width="337.6" height="232.6"/>
<rect x="44.3" y="33.8" class="st1" width="319.6" height="217.2"/>
<path class="st3" d="M46.9,241.6c0.4,0.4,0.8,0.6,1.4,0.6c0.5,0.1,1,0.2,1.5,0.3c1.3,0.4,2.7,0.4,4,0.2c0.3,0,0.6,0.1,0.8,0.3
	c0.6,0.5,1.2,0.7,1.9,0.7c0.9,0.1,1.8,0.3,2.7,0.4c1.8,0.2,3.7,0.4,5.6,0.6c0.9,0.2,1.9,0.1,2.8-0.1c0.1,0,0.2,0,0.4,0
	c0.6,0,1.1,0.1,1.7,0s0.6-0.1,0.8,0.7c0.7-0.3,1.6-0.3,2.3,0.1c0.4,0.1,0.7,0.1,1.1,0.1c0.4-0.1,0.9,0,1.2,0.2
	c0.4,0.4,1,0.5,1.6,0.4c0.2,0,0.4,0,0.6,0c1.7,0.3,3.4,0.4,5.1,0.2c0.4,0,0.9,0.1,1.3,0.1l2.2,0.2l-0.3-1.5l-0.5-0.1
	c-1.2-0.3-2.3-0.7-3.5-1c-0.7-0.2-1.3-0.7-1.6-1.4c-0.2-0.6-0.7-1-1.2-1.3c-0.1,0-0.2-0.1-0.3-0.2c-0.4-0.2-0.6-0.7-0.5-1.1
	c0.1-0.4,0.5-0.8,1-0.8c1.3-0.2,2.5-0.4,3.8-0.7c0.7-0.1,1.3-0.3,2-0.5c-1.2-1.2-2.5-1.4-3.7-0.6c-0.2,0.1-0.4,0.1-0.7,0.2
	c-0.1-0.1-0.1-0.3-0.1-0.4c0.1-0.6-0.2-0.9-0.7-1.2c-0.5-0.3-1.1-0.5-1.7-0.6c-0.6-0.1-1.2-0.5-1.7-1l1.8-0.1v-0.1
	c-0.2-0.1-0.5-0.1-0.7-0.2c-0.2,0-0.7-0.1-0.8-0.5c-0.1-0.3-0.5-0.5-0.7-0.8l0.1-0.8c0.9,0,1.8,0,2.8,0c0.5,0.1,1,0.3,1.4,0.6
	c0.8,0.6,1.8,0.8,2.7,0.5c0.3-0.1,0.5-0.2,0.8-0.4c0.2-0.2,0.5-0.3,0.8-0.2l0,0c0.1,0.1,0.2,0.2,0.2,0.2c0.5-0.1,1.1-0.3,1.7-0.5
	c-0.1-0.3-0.1-0.6-0.2-1c-0.1-0.5,0.1-0.8,0.6-1c0.3-0.2,0.7-0.4,1-0.5c0.2-0.1,0.4-0.2,0.7-0.2c0.7,0,1.4-0.1,2-0.3
	c0.4-0.1,0.9-0.1,1.3-0.2c0.5-0.1,1-0.3,1.4-0.5c0.9-0.6,2-0.7,2.9-0.1c0.5,0.3,1.1,0.6,1.6,1c1.8,1.3,3,0.6,4.2-1
	c0.5-0.7,1-1.5,1.6-2.2c0.4-0.5,0.9-0.9,1.3-1.4c0.7-0.7,1.8-1,2.7-0.6c1.1,0.4,2.1,0.9,3.2,1.4c1.7,0.6,3.4,1.1,5.1,1.3
	c1,0.1,2-0.4,2.7-1.2c0.5-0.5,1-1,1.6-1.4c0.5-0.2,1-0.3,1.5-0.2c0.6,0.1,1,0,1.2-0.6c0.2-0.3,0.4-0.5,0.6-0.8
	c0.2,0.1,0.4,0.1,0.7,0.1c0.4,0,0.8,0.3,0.8,0.7c0,0,0,0,0,0c0,0.6,0.5,1.1,1.1,1.1c0,0,0,0,0.1,0c0.2,0,0.3,0.2,0.5,0.2
	c0.4,0.1,0.8,0.2,1.2,0.3c0.4,0.1,0.6,0.1,1,0.1c1.5,0.1,3,0.3,4.5,0.4c0.5,0,1-0.2,1.5-0.2c0.7-0.1,1.4,0,2,0.1
	c0.5,0.2,1.1,0.2,1.6,0.2c0.3,0,0.7,0,1,0c0.1-0.2,0.2-0.4,0.4-0.6c0.2-0.2,0.4-0.3,0.6-0.5c0.1,0,0.5,0,0.6,0.2
	c0.6,0.4,1.4,0.7,2.1,0.8c0.4,0.1,0.8,0.1,1,0.4c0.4,0.5,0.8,0.3,1.2,0.3c0.6-0.1,1.2-0.3,1.9-0.5c0.5-0.1,1-0.5,1.2-1
	c0.1-0.2,0.3-0.4,0.4-0.6c0.1-0.2,0.2-0.5,0.3-0.7c-1-0.9-1.6-2.1-1.5-3.5c0.2,0,0.4-0.1,0.6-0.2c0.1-0.1,0.3-0.3,0.3-0.4
	c-0.1-0.3,0.1-0.4,0.2-0.5c0.1-0.1,0.1-0.2,0.1-0.4c-0.3-0.5,0.1-0.8,0.2-1.3l-0.7-0.3l0.1-1l0.8,0.7l0.3-1c0.2-0.1,0.7,0,0.5-0.5
	c0-0.1,0.2-0.2,0.4-0.3c0.3-0.2,0.6-0.3,1-0.4c0.1,0,0.3-0.1,0.3-0.2c0.1-0.7,0.8-0.7,1.2-1c0.3-0.1,0.6-0.3,0.8-0.5
	c0.7-0.8,1.8-1,2.6-1.5c0.2-0.2,0.5-0.2,0.7,0c0,0,0,0,0.1,0.1c-0.6,0.4-1.3,0.5-1.5,1.4c-0.4-0.2-0.8-0.1-1,0.2
	c-0.4,0.3-0.8,0.7-1.2,1l-0.8,1.8l-0.6-0.6l-0.4,0.9c-0.8,0.1-1.4,0.9-1.3,1.7c0.2,0.4,0.4,0.7,0.8,1c0.2,0,0.4,0,0.6-0.1
	c0.2-0.2,0.4-0.3,0.6-0.5c0,0.7,0.2,1.4,0.7,1.9c0.1,0.1,0,0.5,0,0.8l0.4,0.3l-0.1,0.4c0.2,0.1,0.4,0.2,0.6,0.4
	c0.1,0.1,0.3,0.4,0.2,0.5c-0.3,0.4,0.2,0.5,0.2,0.8l-0.7,0.5l0.7,0.2l-0.1,1.4h0.6l0.1,0.1l-0.7,0.6c0,0.2,0.6,0.7-0.2,0.8l0.3,0.7
	c-0.5,0.2-0.8,0.9-1.6,0.6c-0.1,0.7-0.1,0.6,0.5,0.8c0.3,0.1,0.7,0.2,0.8,0.5c0.2,0.4,0.5,0.5,0.8,0.6c0.8,0.2,1.4,0.4,1.5,1.5
	c0,0.6,0.6,0.9,1,1.1c1,0.5,2.1,0.7,3.1,0.6c0.6,0,1.2,0,1.8,0.2c1.2,0.3,2.4,0.6,3.7,0.7c0.8,0.1,1.5,0.2,2.2,0.4
	c0.3,0.1,0.7,0.1,1,0c0.8-0.3,1.6-0.3,2.4,0c0.2,0.1,0.5,0.1,0.7,0.1c0.4,0.1,0.7-0.1,1-0.4c0.3-0.3,0.7-0.6,1.1-0.8
	c0.1-0.1,0.3-0.1,0.3-0.2c0.6-1.1,1.7-0.8,2.6-1.1c0.1,0,0.3,0,0.4-0.1c1-0.6,2-1,3.2-1.2c0.3-0.1,0.5-0.2,0.7-0.3l-0.4-0.8
	c0.7-0.5,1.5-0.9,2.3-1.1l0.1-0.6l-1.9-0.7c0.1-0.2,0.2-0.4,0.3-0.4c0.8-0.2,1.7-0.6,2.5,0c0.4,0.3,0.9,0.5,1.5,0.5l0.1-0.9l0.6-0.1
	c-0.3-0.8,0.7-0.6,0.8-1.3l1.4,0.5c0.5-0.7,1.3-0.7,2-0.8c0.9,0,1.7-0.3,2.4-0.9c0.2-0.2,0.3-0.4,0.4-0.6c0.2-0.6,0.4-0.8,1-0.8
	c0.4,0,0.9,0.1,1.3,0.2c0.3,0.1,0.6,0.1,0.8,0c0.7-0.2,0.7-0.2,0.5-1c0.3,0,0.6,0,0.8,0c0.5,0.2,1.2,0,1.4-0.5c0-0.1,0-0.1,0.1-0.2
	c0.8,0.2,1.5-0.3,2.3,0c0.1,0,0.3-0.2,0.4-0.4c-0.2-0.3-0.1-0.7,0.2-0.9s0.7-0.1,0.9,0.2l0,0c1,1.2,2.3,1.3,3.7,1.4
	c0.1,0,0.2,0,0.3-0.1c0.5-0.5,1.2-0.6,1.8-0.3c0.6,0.2,1.3,0.2,1.9,0.5c0.1,0.1,0.2,0.1,0.3,0.1c0.7,0,1.5-0.1,2.2-0.2l1-1.5
	l1.1,0.7c0.7-0.2,1.4-0.2,2.1,0.2c0.4,0.2,0.8,0.3,1.2,0.4c0.6,0.2,1.3,0,1.8,0.4c0.1,0,0.2,0,0.3,0c0.6-0.2,1.2-0.4,1.9-0.6
	c0.4-0.1,0.9-0.1,1.3,0c0.6,0.2,1.3,0,1.7-0.5c0.1-0.1,0.3-0.2,0.4-0.3c1-0.2,1.9-0.7,2.7-1.3c0.6-0.5,0.8-0.5,1.2,0.2
	c0.2,0.4,0.4,0.9,1,1c0.3,0.1,0.5,0.1,0.8,0c0.6-0.3,1.2-0.1,1.5,0.5c0,0,0,0,0,0l0.2,0.2c0.5-0.3,0.8-0.9,0.9-1.4
	c0-0.1,0.1-0.2,0.1-0.3c1-1,1.8-1.9,3.3-2.1c0.5-0.1,1.1-0.3,1.6-0.4c0.5-0.1,1-0.1,1.6,0c0.3,0.1,0.6,0.3,0.9,0.5
	c0.1-0.2,0.1-0.4,0.2-0.5c0-0.9,0.6-1.6,1.5-1.8c0.2,0,0.3-0.1,0.5-0.2c0.7-0.6,1.6-0.7,2.5-0.5c0.7,0.2,1.4,0.6,1.9,1.2l0.1,0.3
	l-0.8,0.3l0.1,0.2c0.7-0.1,1.4,0.1,1.9,0.5c0.1,0,0.1,0,0.2,0c0.8-0.2,1.7-0.1,2.5,0.2c0.1,0,0.2,0,0.3-0.1c0.6-0.3,1.4-0.4,2-0.1
	c0.8,0.1,1.5,0.3,2.2,0.4c0.3,0,0.6,0,0.9,0l0.6,1.8l1.9-0.3c0.4,0.6,0.8,1.2,1,1.9c0.3-0.1,0.6-0.3,1-0.4c0.4-0.1,0.8-0.3,1.1-0.4
	s1-0.2,1.1-1c0.1-0.4,0.5-0.8,0.9-0.8c0.4-0.1,0.7-0.2,1.1-0.4c0.2-0.1,0.4-0.1,0.4-0.3c0.3-0.6,0.8-0.8,1.4-1
	c0.9-0.4,1.9-0.8,2.8-1.2c0.1,0,0.3,0,0.4,0c0.6,0.2,1.2,0.3,1.8,0.5c0.3,0.1,0.6,0.1,0.8,0.1c0.6-0.2,1.2-0.2,1.8-0.1
	c0.3,0,0.7,0.2,1-0.2c0-0.1,0.2-0.1,0.3,0c0.5,0.2,1.1,0.3,1.7,0.2c0.3,0,0.7,0.1,1,0.1c0.1,0,0.3,0.1,0.3,0c0.4-0.4,0.8-0.2,1.2,0
	c0.2,0.1,0.4,0.1,0.6,0.1l2.5,0.2c0.3,0,0.7,0,1,0c1-0.1,2.1-0.2,3.1-0.4c0.7-0.2,1.3-0.5,1.9-0.8c0.4-0.2,0.8-0.3,1.2-0.2
	c0.9,0.2,1.7,0.5,2.5,0.9c0.7,0.2,1.4,0.4,2.2,0.5c0.4,0.1,0.8,0.2,1.1,0.4c1.1,0.6,2.4,0.8,3.6,0.5c0.6-0.2,1.3-0.5,1.9-0.7
	c0.6-0.3,1.1-0.7,1.8-0.3c0.1,0,0.2,0,0.3,0c0.8-0.2,1.6-0.4,2.3-0.6c1-0.4,2.2-0.3,3.1,0.4c0.3,0.2,0.7,0.3,1,0.3
	c1-0.1,2.1,0.1,3.1,0.4c0.4,0.1,0.9,0.1,1.4,0.1c0.5-0.1,1.1,0,1.5,0.4c0.4,0.5,1,0.7,1.7,0.6c0.4,0,0.9,0.2,1.1,0.5
	c0.2,0.3,0.4,0.6,1,0.4c0.1-0.1,0.3,0.1,0.5,0.1c0.2,0.1,0.3,0.2,0.4,0.2c1.1-0.2,1.8,0.6,2.7,0.9c0.1,0,0.2,0.1,0.2,0.1
	c0.9-0.2,1.6,0.4,2.4,0.4c0.3,0,0.5,0,0.8,0c0.7-0.1,1.4,0.2,1.8,0.8c0.3,0.3,0.7,0.7,1.1,1l0.7-1h0.2l0.3,1.1
	c0.5,0.2,1.1,0.2,1.6,0c0.3-0.1,0.7-0.1,1,0.1c0.7,0.4,1.4,0.7,2.2,1.1c0.2,0.1,0.3,0.2,0.5,0.3c0.3,0.1,0.6,0.2,0.8,0.2
	c0.3,0.3,0.3,0.5,0.1,1c-0.2,0.9-1.1,1.4-1.9,1.3c-0.3,0-0.7,0.1-1,0.1c-0.1,0.5-0.3,1-0.4,1.5c0,0.1-0.2,0.2-0.3,0.3
	c-0.6,0.2-1.2,0.3-1.9,0.5c-0.4,0.3-0.4,1-1,1.3c-0.2,0.1-0.2,0.7-0.3,1.1c0,0.3,0.1,0.6,0.1,0.8c0,0.3,0,0.5-0.1,0.8l0.5,0.1
	c0.1,0.3,0.3,0.5,0.4,0.8c0.1,0.2,0.2,0.5,0.6,0.4c0.1,0,0.6,0.4,0.6,0.5c-0.2,0.5,0.4,0.6,0.6,1c-0.4-0.1-0.8-0.2-1-0.3
	c-0.1,0-0.2-0.2-0.3-0.1c-1,0.2-2.1,0-3,0.7c-0.3,0.3-0.6,0.5-0.8,0.8c0.6,1,0.4,1.9,0.6,3c0.5,0.4,1,0.6,1.6,0.8
	c0.5,0,0.6,0.5,0.6,1c1,0.1,1.9,0.6,2.6,1.3c0.2,0.2,0.4,0.3,0.6,0.3c1.2,0.3,2.4,0.4,3.6,0.7c0.9,0.2,1.9,0.1,2.8-0.1
	c0.5,0.6,1.3,0.9,2,0.8c0.7,0.1,1.4,0.2,2.1,0.3c1.3,0.2,2.5,0.3,3.8,0.5c0.8,0.1,1.5,0.2,2.2,0.3c0.4,0,0.8,0,1.2,0
	c0.8-0.1,1.7-0.1,2.5,0c0.4,0.1,0.8,0.1,1.1,0c0.5-0.1,0.9,0,1,0.6c0.7-0.3,1.5-0.2,2.1,0.2c0.3,0.2,0.7,0.2,1.1,0.1
	c0.4-0.1,0.9,0,1.2,0.3v2.4H46.9V241.6z M85.9,238v-0.2h-0.4L85.9,238z"/>
<path class="st3" d="M59.8,67.9c-0.1,0.2-0.2,0.4-0.3,0.5c-0.4,0.7-1.2,1-1.9,0.7c-0.3-0.1-0.6-0.3-1,0.1l0.6,0.2l-0.1,0.3
	c0.2,0.2,0.6,0.3,0.6,0.5c0.2,0.7,1,1.1,0.6,2c-0.3,0-0.5,0-0.8-0.1c-0.6-0.2-1.3-0.1-1.8,0.2c-0.2,0.1-0.4,0.2-0.5,0.3
	c-1,0.4-2,1-2.8,1.7c-0.2,0.3-0.4,0.6-0.6,0.9c-0.5-0.2-1-0.4-1.5-0.7c-0.3-0.2-0.8-0.2-1,0.2c0,0,0,0,0,0.1c-0.5,0.7-1.4,1-2.3,1
	V60.1h0.9c-0.1,0.4,0.1,0.8,0.4,1.1c0.7,0.5,0.9,0.5,1.6,0.3l0.7,1.4c0.7,0.1,1.3-0.3,1.7-0.8l-0.5-1.4c0.2,0,0.4,0,0.6,0
	c0.9,0.2,1.8,0.3,2.7,0.1c0.5,0,0.9,0.2,1.2,0.5c0.3,0.2,0.6,0.4,1,0.4c0.6-0.1,1.3,0.2,1.7,0.7c0.3,0.4,0.8,0.7,1.3,1
	c0.4,0.3,0.9,0.6,1.2,1c0.3,0.2,0.5,0.4,0.8,0.5c0.7,0.2,1.2,0.9,1.1,1.7c0.1-0.4,0.5-0.7,0.9-0.6c0,0,0,0,0.1,0
	c0.4,0.1,0.8,0.2,1.2,0.4c0.5,0.3,1,0.7,1.4,1.1c-0.4,0.7-0.4,0.7-1.6,0.8c0.5,0.6-0.4,1-0.3,1.5c-0.5,0.1-1-0.1-1.4-0.4
	c-0.2-0.2-0.5-0.1-0.9-0.1c-0.1-0.2-0.1-0.3-0.2-0.5c-0.3-0.8-0.7-1.1-1.4-0.6C60.5,68.4,60.2,67.9,59.8,67.9c0.1-0.3,0.5-0.5,0-0.8
	C59.4,67.6,59.4,67.6,59.8,67.9z"/>
<path class="st3" d="M46.9,221.8c1.1,0.2,1.9,1,2.9,1.3c0.3,0.1,0.6,0.3,1,0.4c0.2,0.6-0.1,1.2-0.5,1.6c-0.7,0.5-1.6,0.6-2.5,0.5
	c0.1,0.5,0,1-0.2,1.5c-0.1,0.3-0.4,0.5-0.7,0.4c0,0,0,0,0,0L46.9,221.8z"/>
<path class="st3" d="M46.9,162.5l1.2,0.7l-0.1,0.2l-1.1-0.4V162.5z"/>
<path class="st3" d="M237.4,128.9c-0.1,0.4-0.1,0.7-0.2,1.2c0.1,0.1,0.2,0.3,0.3,0.5c0.3,0.5,0.6,0.6,1.2,0.4c0.3,0,0.6-0.1,0.8,0
	c0.2,0,0.5,0,0.7-0.1c0.5-0.3,1.2-0.5,1.8-0.5c0.5-0.1,0.9-0.2,1.4-0.5c0,1.2-0.2,2.3-0.7,3.4c-0.3,0.6-0.5,1.2-0.8,1.7
	c-0.2,0.8-0.6,1.5-1,2.2c-0.7,1.1-1.5,2-2.5,2.8c-1.1,0.8-1.9,1.8-2.4,3c-0.3,0.5-0.6,0.9-1.1,1.3c-0.3,0.3-0.5,0.6-0.7,1
	c-0.2,0.6-0.3,1.3-0.6,1.9c-0.1,0.4,0,0.8,0.3,1.1c0.4,0.3,0.3,0.6,0.2,1c-0.3,0.8-0.1,1.7,0.5,2.3c0.1,0.1,0.2,0.3,0.3,0.5
	c0.1,1,0.2,1.9,0.2,2.8c0,0.7,0,1.3-0.1,1.9c-0.1,0.7-0.6,1.4-1.2,1.7c-0.7,0.4-1.5,0.8-2.2,1.1c-0.3,0.5-0.6,0.9-1,1.3
	c-0.4,0.3-0.5,0.7-0.3,1.2c0.4,1.1,0.6,2.3,0.6,3.5c0,0.4-0.2,0.7-0.5,0.8c-0.3,0.2-0.7,0.3-1,0.5c-0.3,0.2-0.5,0.3-0.8,0.5
	c0.3,0.7,0.3,1.4,0.1,2.1c-0.1,0.3-0.2,0.7-0.1,1.1c-0.6,0.4-1,0.9-1.3,1.5c-0.5,0.8-1.1,1.5-1.7,2.2c-0.1,0.1-0.2,0.2-0.3,0.3
	c-0.7,0.9-1.7,1.5-2.9,1.5c-0.8,0-1.7,0.1-2.5,0.2c-0.3,0.1-0.6,0-0.9,0.2c-0.4,0.3-0.9,0.3-1.3,0c-0.2-0.1-0.4-0.2-0.6-0.2
	c-0.1-0.3-0.2-0.6-0.3-1c0-0.3-0.2-0.5,0.1-0.9c0.2-0.4,0.2-0.8,0.1-1.2c-0.3-1-0.8-1.9-1.2-2.9c-0.1-0.1-0.1-0.3-0.2-0.4
	c-0.7-0.3-0.8-1.1-0.9-1.7c-0.2-1.1-0.3-2.2-0.4-3.3c0-0.9-0.3-1.9-0.8-2.6c-0.2-0.3-0.3-0.6-0.3-0.9c0-0.5-0.3-1-0.6-1.4
	c-0.1-0.1-0.3-0.2-0.3-0.3c-0.1-0.9-0.1-1.9,0.1-2.8c0.2-0.4,0.3-0.9,0.4-1.3c0.2-0.5,0.4-1,0.6-1.4c0.5-0.7,0.5-1.6,0.2-2.3
	c-0.2-0.4-0.2-0.9-0.2-1.4c0.1-0.6,0-1.1-0.2-1.7c-0.3-0.8-0.5-1.6-0.8-2.4c-0.1-0.2-0.2-0.4-0.3-0.6c-0.5-0.6-1-1.2-1.5-1.8
	c-0.3-0.4-0.6-0.9-0.8-1.4c0.3-0.7,0.5-1.4,0.5-2.1c0.1-0.5,0.2-1.1,0.3-1.6c0.2-0.9-0.4-1.7-1.3-1.9c0,0,0,0,0,0
	c-0.2,0-0.3-0.1-0.5,0.1c-0.2,0.1-0.4,0.2-0.7,0.2c-0.5,0.1-1.1-0.2-1-0.7c0.2-0.8-0.4-1-0.8-1.2c-0.5-0.3-1.2-0.3-1.7,0
	c-0.6,0.5-1.4,0.4-2,0.7c-0.6,0.2-1.3,0.4-1.9,0.6c-0.4,0.1-0.7,0.1-1.1,0c-0.6-0.3-1.4-0.3-1.9,0.2c-0.9,0.7-1.7,0.5-2.5-0.4
	c-0.6-0.7-1.3-1.3-2-1.8c-0.6-0.4-0.8-1.2-1.1-1.8c-0.3-1-0.8-1.8-1.5-2.6c-0.3-0.2-0.5-0.6-0.8-0.9c-0.2-0.2-0.2-0.4-0.3-0.6
	c-0.2-0.6-0.3-1.2-0.4-1.9c0.7-1.4,0.9-2.9,0.6-4.4c0-0.1,0-0.3,0-0.4c0.1-0.5,0-1-0.3-1.4c-0.2-0.4-0.2-0.9,0.1-1.2
	c0.6-1.2,1.1-2.4,1.8-3.6c0.3-0.8,0.9-1.4,1.5-1.9c0.9-0.5,1.6-1.2,2.1-2.1c0.2-0.4,0.3-0.9,0.2-1.3c-0.3-1.2,0.3-2.3,1.4-2.9
	c0.7-0.3,1.3-0.9,1.5-1.6c0.1-0.4,0.2-0.9,0.7-1.1c0.3,0.8,0.9,0.7,1.6,0.7c0.3,0,0.5-0.2,0.8,0c0.2,0.1,0.5,0,0.6-0.1
	c0.4-0.5,1-0.5,1.5-0.8l1-0.5c0.1-0.1,0.3-0.1,0.4-0.2l2.6-0.1h0.4c0.3,0,0.7-0.2,1,0c0.2,0.2,0.6-0.3,1-0.1c0.1,0,0.2,0,0.3,0
	c0.7-0.3,1.6-0.2,2.2,0.3c0-0.1,0,0,0,0c-0.3,0.4-0.4,1-0.3,1.5c0.1,0.4-0.1,0.8-0.3,1c-0.3,0.4-0.3,0.6,0.2,0.8
	c0.2,0.1,0.3,0.3,0.5,0.4c0.3,0.2,0.6,0.4,0.9,0.5c0.9,0,1.8,0.4,2.3,1.2c0.5,0.6,1.2,0.7,1.9,1c0.4,0.1,0.8,0.2,1.2,0.3
	c0.8-0.6,0.8-0.6,0.4-1.5c0.2-0.2,0.4-0.5,0.6-0.7c0.5-0.5,1.3-0.5,1.8,0c0.4,0.2,0.8,0.4,1.2,0.5c0.8,0.4,1.7,0.7,2.6,1
	c1,0.3,2,0.2,3-0.1c0.1,0,0.3-0.1,0.3-0.1c0.4,0.5,1,0.1,1.4,0.2c0.8,0.1,1.1-0.3,1.4-1.3c0.2-0.6,0.4-1.2,0.6-1.9c0-0.3,0-0.7,0-1
	c0-0.6-0.1-1.1-0.1-1.8l-1.3,0.6c-0.5,0.3-1.1,0.3-1.6-0.1c-0.3-0.2-0.6-0.4-1-0.5l-0.8,0.9l-2.1-1.4c-0.2-0.7-0.2-0.7-0.6-1
	c0.1-0.3,0.2-0.5,0.2-0.8c0.1-0.3,0-0.6-0.4-0.7c-0.1,0-0.2-0.3-0.1-0.4c0.2-0.4-0.1-0.8-0.3-1.1h-1.8l0.4,0.6l-0.6,0.3l-0.4-0.5
	c-0.1,0.2-0.2,0.3-0.2,0.4c0,0.1,0.2,0.4,0.3,0.6c0.1,0.2,0.1,0.4,0.1,0.6c0.5,0.3,1,0.6,1.3,1.1l-0.5-0.1c-0.1,0.2,0,0.8-0.6,0.3
	c0,0.2,0,0.5-0.1,0.5c-0.4,0.2-0.8,0.5-1.4,0.2c0.3-0.4-0.6-0.8,0.3-1.2l-0.4-0.1c-0.3-0.6-0.7-1.3-1.1-1.8c-0.4-0.4-0.6-1-0.4-1.5
	c0-0.2,0-0.5,0-0.7c-1-0.5-1.9-1.3-2.9-1.8c-0.7-0.3-0.8-1-1-1.5c0-0.2-0.1-0.4-0.1-0.5l-0.8,0.8l-0.2-1.2l-0.7,0.2
	c-0.1,0.3-0.1,0.6-0.2,0.9c-0.1,0.4-0.1,0.7,0.3,0.9c0.5,0.2,0.9,0.6,1,1.1c0.3,0.6,0.6,1.1,1.4,1.2c0.1,0,0.2,0,0.2,0.1
	c0.2,0.8,1.2,0.8,1.6,1.4c0.1,0.2,0.3,0.3,0.2,0.6l-1-0.5c-0.3,0.2-0.4,0.5-0.3,0.8c0,0,0.1,0.1,0.1,0.1c0.4,0.7,0,1.5-0.9,1.9
	c0.1-0.3,0.1-0.5,0.2-0.8c0.1-0.7,0.2-1.3-0.5-1.7c-0.3-0.2-0.5-0.6-0.8-0.8c-0.2-0.2-0.4-0.3-0.7-0.4c-0.8-0.4-1.5-1-1.9-1.7
	c-0.1-0.2-0.2-0.5-0.3-0.7c-0.2-0.6-0.7-1.1-1.4-1.3c-0.6,0.4-1.1,0.9-1.7,1.3c-0.2,0.1-0.4,0.1-0.6,0.1c-0.2-0.1-0.4-0.2-0.7-0.3
	c-0.5-0.2-1.1-0.1-1.3,0.4c-0.1,0.2-0.1,0.5-0.1,0.7c0.1,0.3-0.1,0.6-0.4,0.8c-0.5,0.3-0.9,0.6-1.4,1c-0.4,0.4-0.7,0.9-1,1.3
	l0.3,0.7c-0.7,0.4-0.7,1.4-1.5,1.7c-0.2,0.1-0.3,0.2-0.4,0.4c-0.2,0.4-0.6,0.6-1,0.5c-0.5-0.1-0.9,0-1.3,0.3c-0.6,0.3-0.6,0.3-1-0.3
	c-0.2-0.4-0.7-0.7-1.1-0.5c0,0,0,0,0,0c-0.3,0-0.7,0-1-0.1c-0.1-0.7-0.3-1.2-0.3-1.8c0-0.3,0-0.6,0.1-0.8c0.5-1.3,0.5-2.7-0.1-3.9
	c0.7-0.2,1.2-0.9,2.1-0.6c0.6,0.1,1.3,0.2,1.9,0.2c0.5,0,1,0.1,1.5,0.2c0.4,0.2,0.9-0.1,1-0.5c0-0.1,0.1-0.2,0.1-0.3
	c0.1-0.6,0.1-1.2,0-1.8c-0.1-0.2-0.2-0.5-0.4-0.6c-0.3-0.2-0.5-0.5-0.7-0.8c-0.4-0.7-1.1-1.2-1.9-1.4l0-0.8c0.4,0.1,0.8-0.4,1.3,0
	c0.2,0.2,0.7-0.1,1.2-0.2l-0.2-1.3c0.2,0,0.3,0,0.4,0.1c0.1,0.2,0.3,0.4,0.6,0.3c0.2,0,0.4-0.1,0.6-0.2c0.3-0.3,0.7-0.5,1-0.8
	l0.1-0.8c0.7-0.4,1.4-0.6,2.2-0.7l0.3-0.8c0.2-0.8,1-1.3,1.8-1.2c0.5,0,0.9-0.1,1.4-0.2c0.2-0.1,0.3-0.3,0.4-0.5
	c0-0.7-0.1-1.3-0.4-1.9c-0.2-0.5-0.3-1-0.3-1.5c0.5,0,1-0.4,1.2-0.8l-1,0.4c0-0.1,0-0.2,0-0.2c0.2-0.1,0.4-0.3,0.6-0.4
	s0.4-0.2,0.6-0.3s0.4-0.3,0.6-0.5c0.2,0.8-0.8,1.6,0.3,2l-0.7,1c0.5,0.3,0.5,0.3,0.5,0.8l-0.6-0.3c0.2,1.1,0.2,1.1,1.2,1.8
	c0.1-0.1,0.2-0.1,0.3-0.2c0.4-0.4,0.9-0.5,1.4-0.2c0.8,0.3,1.6,0.2,2.3-0.2c0.4-0.2,0.9-0.4,1.3-0.5c0.3-0.1,0.4,0.1,0.3,0.4
	c0.6,0,1.1-0.1,1.1-0.9c0-0.2,0.5-0.3,0.8-0.5c0.1-2.1,0.3-2.6,1.1-3c0.6,0.9,0.6,0.9,1.3,0.7c0.3-0.9-0.2-1.8-0.1-2.7
	c0.6-0.3,1.3-0.4,2-0.4c0.4,0,0.7-0.3,1.1,0c0,0,0.2,0,0.2-0.1c0.5-0.5,1.2-0.4,1.8-0.6c-0.4-0.7-1.5-0.2-1.7-1.1
	c-0.7,0.2-1.3,0.4-1.9,0.6c-0.2,0.1-0.4,0.2-0.6,0.3c-0.4,0.3-0.7,0.6-1.2,0.1c0-0.1-0.3,0.1-0.5,0.1c-0.3-0.4,0.2-0.4,0.4-0.6
	c-0.2-0.2-0.4-0.3-0.5-0.4c-0.5-0.2-0.7-0.4-0.6-0.9c0.2-0.6,0-1.2-0.3-1.8c0.4-0.5,0.8-0.9,1.2-1.2c0.4-0.3,0.7-0.7,1-1.1
	c0.1-0.1,0.1-0.3,0.2-0.4c0.6-0.3,0.5-0.8,0.4-1.3c-0.6-0.5-1.3-0.2-1.9-0.3c-0.6,0.6-1.4,1.2-1,2.2c-0.3,0.6-0.8,1-1.4,1.1
	c-0.8,0.2-1,1.2-1.6,1.5c-0.1,0.6-0.1,1.1-0.2,1.7c0,0.3,0,0.6,0.1,0.9c0.3,0.1,0.6,0.2,0.8,0.4c0.3,0.2,0.7,0.5,0.5,1
	c-0.2,0.5-0.3,1.1-1.1,1.2c-0.7,0.1-0.7,0.1-0.7,0.8c0,0.4-0.1,0.7-0.2,1s-0.1,0.8-0.1,1.3c-0.2,0.1-0.4,0.1-0.7,0.1
	c-0.9,0.1-1,0.1-1.3,1.1l-1.1,0.1c-0.1-0.3-0.1-0.7,0-1c0.2-0.5,0-0.9-0.3-1.2c-0.3-0.4-0.7-0.7-0.5-1.3c0.1-0.3-0.3-0.7-0.5-1.1
	c-0.8,0.4-1.6,0.8-2.5,1.2c-0.4,0.2-0.7,0.1-1.1,0c-0.3,0-0.6-0.3-0.7-0.6l0.4-1l-0.9-0.2l1-1.1c-0.6,0.2-0.8-0.2-1.1-0.5
	c0.3-0.2-0.1-0.8,0.5-1l-0.6-0.1v-0.5l0.5-0.1l-0.2-0.4l1.1-0.3l-0.2-0.4c0.4-0.1,1,0,0.7-0.6l1.3-0.6l-0.2-0.7
	c0.4,0.1,0.7,0.2,1.1,0.4c0.3,0.2,0.5,0.2,0.6-0.2l-0.6-0.1c0.7-0.7,1.1-1.6,2-1.7c-0.1-0.8,0.8-0.7,1.1-1.2v-0.7
	c0.7-0.4,1.4-0.8,1.9-1.4l-0.3-0.8l0.7,0.1l-0.3-0.5l0.8-0.4l0.3-1.1l0,0l1-0.5c0.1-0.1-0.5-0.8,0.3-0.5c0.1,0,0.4-0.2,0.6-0.4
	l0.7,0.2c0.1-0.2,0.1-0.6,0.6-0.4l-0.4-0.4c0.1-0.4,0.5-0.3,1.4,0.3c0.2-0.2,0.4-0.3,0.7-0.5c0.2-0.2,0.3-0.5,0.6-0.2l0.2-0.5l1,0.4
	l-0.5,1l0.1,0.1l1.1-1.5l0,0.9l0.9-1.4c0.6,0.2,0.6,0.2,0.4,0.8l0.6-0.4l1.5,1l-1.3,0.6c0.8,0.2,1.7-0.1,2.5,0.2l-0.2,0.4
	c2.2,0.4,4.3,1.3,6.2,2.7c0.7,0.5,0.8,1.1,0.1,1.7c-0.5,0.6-1.3,0.8-2,0.7c-1.5-0.3-2.9-0.9-4.3-1.7c0,0.2,0.1,0.4,0.2,0.5
	c0.1,0.2,0.3,0.4,0.4,0.7c0.2,0.3,0.5,0.5,0.8,0.6c0.7,0.3,0.6,0.2,0.7,1c0.1,0.5,0.2,1,0.3,1.4c0.2,0,0.5,0.1,0.5,0.1
	c0.2,0.6,0.8,0.4,1.1,0.6c0.1,0,0.5-0.1,0.5-0.2c0.1-0.2,0-0.5-0.1-0.7c-0.2-0.2-0.4-0.4-0.6-0.6l0.3-0.8c0.1,0,0.2,0,0.3,0
	c0.6,0.6,1.3,0.9,2.1,0.9l-0.8-1.2l1.7-1.3l1.1,0.7c0.2-0.3,0.4-0.7,0.5-1.1c0-0.1,0.1-0.2,0-0.2c-0.6-0.7,0.2-1.1,0.3-1.8l-0.5-0.7
	c1.2,0.1,2.1,0.4,2.4,1.6c-1.2,0.5-1.2,0.5-0.8,1.7l1.2-0.4c0.1-0.1,0.1-0.2,0.1-0.2c-0.1-0.6,0.3-1.1,0.8-1.2
	c0.8-0.3,1.5-0.7,2.2-0.9c0.5-0.1,1-0.4,1.4-0.8l0.6,0.8l-0.6,0.3c0.5,0.1,1.1,0,1.6-0.3c0.5-0.5,1.2-0.5,1.7-0.1l1.3-0.5l0.5,1.1
	l0.3-0.6l0.7,0.1c0.5-0.5,0-1-0.1-1.5c0.3-0.3,0.7-0.5,1.2-0.4c0.2,0.1,0.5-0.1,0.7-0.2l1.2,0.5c0.1,0,0.2,0.1,0.2,0.1
	c0.1,0.3,0.3,0.3,0.6,0.4c0.5,0.2,0.9,0.5,1.3,0.9c0.2,0.2,0.5,0.5,0.7,0.7c0.3-0.3,0.5-0.6,0.2-1c-0.1-0.3-0.2-0.6-0.2-1l-0.8-0.3
	c0.2-0.4,0.3-0.8,0.3-1.3c0-0.4-0.1-0.8-0.2-1.2c0.7-0.5,1.3-1.2,1.7-1.9c0.2-0.4,0.4-0.7,0.8-0.8c0.6-0.1,1.2-0.3,1.7,0.1
	c0.2,0.2,0.4,0.5,0.4,0.8c-0.1,0.6-0.2,1.2-0.4,1.7c-0.2,0.3-0.1,0.7,0.1,1c0.3,0.3,0.4,0.7,0.3,1.1c-0.4,0.8-0.1,1.8,0.6,2.3
	c-0.3,0.7,0,1.6-0.8,2.2c-0.3,0.2-0.6,0.3-1,0.4c-0.4,0-0.8,0-1.2,0c0.1,0.4,0.4,0.7,0.8,0.6c0,0,0,0,0.1,0c0.7-0.1,1.2,0.2,1.5,0.9
	c0.1-0.4,0-0.9-0.3-1.3c0.2-0.1,0.5-0.2,0.7-0.3c0.4,0,0.7-0.3,0.8-0.7c0.1-0.5,0.5-1,0.2-1.6c0-0.3,0.1-0.5,0.3-0.7
	c0.4-0.3,1-0.5,1.5-0.4c0.4,0.6,0.5,1.3,0.4,2c-0.1,0.5,0.2,0.7,0.7,0.5c0.1,0,0.3,0,0.4,0c0.1,0,0.2,0,0.4-0.1l-0.3-0.2
	c-0.8-0.4-0.8-0.5-0.2-1.2c-0.2-0.4-0.4-0.8-0.6-1.1c-0.4-0.4-1-0.6-1.6-0.4l-1.1,0.3c-0.2-0.5-0.3-1-0.2-1.5
	c0.1-0.3-0.2-0.7-0.3-1.1h-0.2c0.2-0.4,0.5-0.8,0.7-1.2c0.1-0.3,0.3-0.7,0.3-1.1c0-0.3,0-0.6,0-0.8c0.4,0.2,0.6,0.7,0.4,1.2
	c-0.3,0.7,0.3,1.1,0.3,1.7c0,0.1,0.3,0.2,0.4,0.2c0.5,0,1-0.1,1.6-0.2l-1.2-0.8c0.2-0.7,0.4-0.7,1.3-0.2c0.5-0.2,0.3-0.4,0-0.7
	c0.8-0.6,1.2-0.6,1.9,0c0.4,0.4,1,0.6,1.6,0.6c0.1,0,0.2,0.1,0.4,0.2c-0.9,0.6-0.6,1.5-1,2.3c0.8-0.3,0.7,1,1.6,0.6l-0.8-0.6
	c0.5-0.4,0.5-0.4,0.4-1.2c0-0.3,0.1-0.6,0.1-0.8c0-0.2,0-0.5-0.1-0.5c-0.4-0.2-0.7-0.4-1.1-0.6c-0.8-0.3-1-0.5-0.8-1.4
	c0-0.1,0.1-0.3,0.1-0.4c0-0.5,0.4-0.8,0.8-0.8c0.8,0,1.5-0.4,2.3-0.1c0.2,0.1,0.4-0.1,0.7-0.1c0.7-0.1,0.7-0.1,1,0.5
	c0.3-0.4,0.1-0.7-0.6-1.4l0.5-0.4l-0.5-0.5l0.8,0.2c-0.1-0.4,0.6-0.5,0.3-0.9c0.5-0.2,1.1-0.4,1.7-0.6c0.7-0.2,1.4-0.2,2.1-0.3
	c0.8-0.3,1.7-0.5,2.5-0.4c0.4,0.1,0.1-0.4,0.4-0.4h0.7l-0.3,1c0.8,0.2,1.4-0.4,1.9-0.8c0.1-0.1,0.1-0.2,0.2-0.2c0.5,0,1,0,1.5,0
	l-0.3-0.5c0.3-0.3,0.6-0.7,1-1c0.1-0.1,0.2-0.2,0.4-0.2c0.5,0,0.9-0.1,1.4-0.2c0.4,0,0.8,0.2,1.2,0.4l-0.2,0.5l1.4,0.3v0.8
	c0.6-0.3,1.1-0.5,1.7-0.7c0.6-0.1,1.2-0.1,1.8,0c0,0.4,0.4,0.8,0.8,0.8c0.4,0.3,0.6,0.7,0.8,1.2c-0.1,0.2-0.2,0.4-0.3,0.5
	c0.1,0.1,0.2,0.2,0.2,0.3c0.1,0.2,0.1,0.3,0.2,0.5c-0.5,0.2-1,0.4-1.5,0.5c-0.5,0.1-1.1,0.2-1.7,0.4c-0.2,0.1-0.5,0.3-0.6,0.4
	c-0.2,0.8-0.8,1.2-1.5,1.5c-0.4,0.2-0.9,0.5-1.3,0.8c0.7,0,1.1-0.5,1.8-0.5c0.5-0.1,1-0.2,1.5-0.5c-0.4-0.5-0.1-0.8,0.3-1.1
	c0.3,0.1,0.7-0.1,1,0.4c0.1,0.3,0.7,0.2,1.2-0.1l0.3,0.4c0.1,0,0.2-0.1,0.2-0.1c0.6-0.6,1.4-0.8,2.2-0.5c0.5,0.1,0.9,0.1,1.4,0.1
	v0.9c0.5,0.2,1,0.4,1.5,0.5c0.7,0,1.4,0.1,2,0.4c0.6,0.3,0.9,0.1,1.2-0.6c-0.3-0.1-0.6-0.3-0.9-0.5c-0.2-0.2-0.3-0.5-0.1-0.7
	c0.1-0.1,0.1-0.1,0.2-0.2c0.4-0.3,1-0.3,1.5,0c0.3,0.2,0.7,0.4,1.1,0.6c-0.2,0.6-0.8,0.7-1.2,0.9c0,1,0,1,0.9,0.7
	c0.2,0.2,0.1,0.7,0.6,0.7l0.9-0.2l-0.2-0.5h0.6l-0.1,0.6c0.4,1.1,1.4,1.8,2.5,1.9v0.6c1-0.6,0.7-1.7,1.3-2.5l0.6,0.9
	c0.2-0.1,0.4-0.2,0.6-0.3c0.4-0.3,1-0.3,1.4,0.1c0.4,0.2,0.7,0.4,1.1,0.6c0.1,0,0.3,0,0.4,0l0.3-0.7l1,0.5l0.2-0.1
	c-0.4-0.6-0.1-1.1-0.1-1.8l0.8-0.1v-0.4l3.5,0.7v0.1l-0.7,0.1c0.2,0.4,0.5,0.3,0.8,0.3c0.3,0,0.7,0,1-0.1c0,0.1-0.1,0.3-0.2,0.4
	c-0.7-0.1-0.7,0.4-0.8,1c0.4,0,0.7,0,0.9-0.4c0.1-0.2,0.2-0.3,0.3-0.4c0.2-0.3,0.3-0.7,0.7-0.7c0.6-0.1,1.3,0.1,1.8,0.5
	c0.1,0.1,0.1,0.3,0.1,0.4c-0.2,0.1-0.4,0.1-0.7,0.2c0.2,0.3,0.5,0.5,0.8,0.5c-0.2,0.4-0.4,0.8-1,0.6c1.1,0.2,2.1,0.2,3.2,0
	c0.3,0,0.6,0,0.8,0c0.1,0,0.3,0.1,0.3,0c0.9-0.5,1.9,0.1,2.9-0.3c0.2-0.1,0.7,0.2,1,0.4c0.3,0.2,0.5,0.4,0.8,0.6
	c-0.4,0.8,0.6,1.1,0.7,1.8c0-0.6,0.4-1.1,1-1.2c0.6-0.2,1.2-0.1,1.7,0.1c0.1,0.1,0.3,0,0.5,0c0.2,0,0.6-0.1,0.8,0
	c0.5,0.3,1.1,0.2,1.6-0.1l0.8,1.5c0.4,0,0.8-0.2,1.1-0.4c0.5-0.5,0.5-0.4,0.2-1.1c-0.1-0.2-0.1-0.5-0.1-0.8c1.2,0.1,2.3,0.1,3.3,0.2
	c0.5,0.1,1,0.3,1.5,0.6c0.2,0.1,0.5,0.2,0.8,0.2c0.6-0.1,1.1,0.1,1.5,0.6c0.3,0.6,0.8,1,1.4,1.2c0.2,0.1,0.4,0.4,0.6,0.5
	c0.5,0.4,1,0.7,1.5,1c0.6,0.2,0.9,0.7,1,1.3c0.2-0.1,0.4-0.2,0.6-0.3c0.5-0.2,1-0.1,1.4,0.2c0.5,0.4,1,0.9,1.5,1.3l-0.5,0.7
	l-1.3-0.1l0.4,0.4c-0.1,0.3-0.7,0.6,0,1c-0.5,0.2-1.1,0.1-1.6-0.2c-0.3-0.1-0.6-0.2-0.9-0.3c-0.3,0-0.5-0.2-0.6-0.5
	c-0.2-0.8-0.6-1-1.4-0.6c-0.4,0.2-0.4,0.2-1.1-0.2c0.1-0.3,0.3-0.7-0.2-1c-0.1,0.3-0.4,0.6,0,1c0.2,0.2-0.1,0.8-0.4,1
	c-0.5,0.4-1.2,0.4-1.7,0h-0.8c0.4,0.5,0.6,0,0.8,0l-0.4,0.8l0.5-0.1c0.3,0.5,0.6,1.1,1,1.7c0.1,0.2,0.1,0.5-0.2,0.6
	c-0.1,0-0.1,0.1-0.2,0.1c-0.2,0-0.3,0-0.5-0.1c-0.5-0.1-1-0.1-1.4,0c-1.4,0.5-2.8,1.3-3.9,2.3c-0.3,0.3-0.6,0.7-1,1.1
	c-0.1-0.1-0.3-0.3-0.5-0.5c-0.6-0.8-1.2-0.8-1.9,0c-0.2,0.2-0.4,0.4-0.7,0.8l-0.1-1l-1,0.7l-0.7-0.1c-0.5,0.6-1,1.3-1.4,1.9
	c-0.3,0.4-0.1,0.6,0.3,0.8c0.1,0,0.3,0.1,0.4,0.2c-0.1,0.2-0.2,0.4-0.3,0.6c-0.4,0.6-0.4,0.8,0.2,1.3c0.1,0.1,0.1,0.2,0.2,0.3
	c0,0-0.2,0.1-0.3,0.2c-1.2,0.3-1.3,0.7-0.6,1.8c-0.2,0.1-0.3,0.4-0.5,0.4c-1.1,0.2-1.4,0.6-1.4,1.7c0,0,0,0.1,0,0.2
	c-0.2,0-0.3,0.1-0.5,0.2c-0.2,0.1-0.4,0.3-0.4,0.5c0,0.9-0.6,1.3-1.4,1.8c-0.2-1-0.4-1.9-0.5-2.9c-0.1-0.6-0.1-1.2-0.3-1.8
	c-0.1-0.8-0.1-1.7,0.2-2.5c0-0.1,0.1-0.2,0.2-0.3c0.7-0.3,0.6-0.9,0.6-1.4c0.7-0.1,1.3-0.5,1.8-1c0.5-0.5,1-1,1.5-1.6
	c0.3-0.4,0.5-0.8,0.7-1.2c0.1,0,0.3-0.1,0.4-0.1c0.3-0.1,0.8-0.1,1-0.3c0.2-0.4,0.3-0.8,0.3-1.3c0-0.4,0.2-0.7,0.6-0.8
	c-0.2-0.4-0.5-0.3-0.8-0.1c-0.3,0.1-0.4,0.5-0.4,1.3c-0.8-0.1-0.8-0.1-1.5,0.6c-0.2,0.3-0.5,0.6-0.7,0.9l-0.5-0.7l0.3-0.7
	c-0.3-0.1-0.7-0.2-1-0.3c-0.8-0.1-1.7,0.2-2.2,0.9c-0.2,0.4-0.5,0.7-0.9,0.9c-0.5,0.3-0.8,0.8-0.8,1.4l0.7,0c0,0.1,0,0.3,0,0.3
	c0,0-0.3,0.3-0.4,0.2c-0.6-0.1-1.1,0.3-1.7,0.4c-0.4,0.1-0.8,0.2-0.9-0.4l0.8-0.2l-0.4-0.6c-0.3,0-0.6,0.1-1,0.1
	c-0.3,0-0.6-0.1-1-0.2l-0.3,0.8l-1.9-0.3l-0.3,0.2c-0.1,0-0.1,0-0.1,0c-0.6-1-1.6-0.2-2.4-0.6c-0.4,0.2-0.8,0.5-1.2,0.8
	c-0.3,0.4-0.6,0.9-0.9,1.4c-0.2,0.3-0.5,0.6-0.8,0.8c-0.6,0.4-1,0.9-1.3,1.5c-0.2,0.5-0.8,0.8-1.2,1.2l-1.2,1.2l1.3,0.2
	c0,0.1,0.1,0.3,0.1,0.5c0,0.2,0,0.3,0,0.6l0.6-0.4l0.1,0.8c0.2-0.2,0.4-0.3,0.5-0.4c0.3-0.4,0.8-0.5,1.3-0.2
	c0.1,0.1,0.2,0.1,0.2,0.2c0.4,0.4,0.7,0.7,1.1,1.1l-0.5,0.1c0.2,0.6,0.1,1.2-0.3,1.7c-0.2,0.3-0.1,0.9-0.1,1.3
	c0,0.7-0.1,1.3-0.4,1.9c-0.3,0.4-0.5,0.8-0.9,1.2c0,0-0.1,0.1-0.1,0.1c-0.4,1.4-1.5,2.3-2.3,3.3c-0.4,0.6-0.8,1.1-1.2,1.6
	c-0.5,0.6-0.8,0.6-1.3,0l-0.5-0.5c0,0-0.1,0-0.1,0c-0.5,0.4-1,0.9-1.5,1.3c-0.3,0.2-0.5,0.6-0.4,1c0.1,0.3,0,0.6-0.3,0.8
	c-0.3,0.3-0.6,0.5-1,0.7c-0.3,0.1-0.5,0.5-0.4,0.9c0.2,0.4,0.4,0.7,0.6,1.1c0.1,0.3,0.3,0.5,0.4,0.8c0.3,0.6,0.5,1.3,0.4,1.9
	c0,0.5-0.3,0.9-0.8,1c-0.4,0.2-0.8,0.4-1.2,0.6c-0.1,0-0.3,0-0.4,0c0.3-1.2,0.4-2.4,0.3-3.7h-1l-0.6-0.7c0.1-0.2,0.2-0.3,0.3-0.5
	c0.3-0.3,0.2-0.7,0-1c0,0-0.1-0.1-0.2-0.1c-0.4-0.3-0.9-0.3-1.3,0l-1.2,1c-0.3-0.8,0.3-1.4,0.6-2c-0.8-0.5-0.9-0.4-1.4,0.3
	c-0.2,0.2-0.4,0.5-0.7,0.7c-0.1,0.1-0.3,0.2-0.4,0.3c-0.2,0.4-0.7,0.7-1.2,0.6c-0.4,1,0.5,1.4,0.7,2.1c0.5-0.3,1-0.5,1.6-0.7
	c0.6,0,1.2,0.1,1.8,0.3c-0.3,0.3-0.4,0.5-0.6,0.6c-0.9,0.3-1.6,1-2.1,1.8c-0.2,0.4-0.2,0.9,0.1,1.2c0.3,0.6,0.7,1.2,1.1,1.8l0.4,0.6
	l-1,0.1c0.7,0.1,1.2,0.2,1.2,0.9l-0.6,0.6l1.1,0.3c-0.4,0.3-0.1,0.9-0.7,1.1c-0.1,0,0,0.5,0,0.6c-0.3,0.4-0.5,0.8-0.7,1.1
	c-0.1,0.2-0.3,0.4-0.5,0.5c-0.3,0.1-0.5,0.5-0.4,0.8c0,0,0,0.1,0,0.1c0.1,0.3,0,0.4-0.2,0.7c-0.6,0.7-1.3,1.3-2,1.9
	c-0.1,0.1-0.2,0.1-0.3,0.2c-0.1,1-1.1,0.6-1.6,1c0,0-0.2-0.1-0.4-0.2c-0.3,0.5-0.8,0.8-1.4,0.9c-0.5,0.2-1,0.5-1.5,0.9
	c-0.1,0.1-0.1,0.4-0.1,0.6c-0.6,0-0.7-0.1-0.7-1.2c-0.4-0.3-0.8-0.1-1.2,0.1c-0.6,0.5-1.2,1-1.6,1.6c-0.3,0.4-0.4,0.9-0.2,1.3
	c0.1,0.4,0.3,0.7,0.6,1c0.7,0.7,1.3,1.5,1.8,2.4c0.5,1,0.7,2.1,0.6,3.1c-0.1,0.4-0.4,0.8-0.7,1c-0.5,0.5-1.2,0.8-1.9,0.7l0.3,0.5
	c-0.7,0-0.4,1-1.1,1c-0.3-0.3-0.3-0.6-0.2-1c0.1-0.3-0.1-0.7-0.4-0.8c0,0,0,0-0.1,0c-0.4-0.2-0.6-0.5-0.9-0.9
	c-0.5-0.7-1-1.3-1.6-1.9c-0.1-0.1-0.3-0.1-0.4-0.1c-0.2,1.2-0.5,2.3-0.7,3.5c0,0.3,0,0.6,0.2,0.8c0.2,0.4,0.4,0.8,0.6,1.2
	c0,0.1,0.1,0.2,0.2,0.3c0.7,0.3,0.9,1,1.4,1.5c0.6,0.5,0.9,1.2,0.8,1.9c-0.1,0.8,0.3,1.3,0.6,2l-0.7,0.4l-0.2-0.1
	c-1.4-0.7-1.8-2.1-2.1-3.5c0-0.5-0.1-1-0.3-1.5c-0.2-0.5-0.5-0.9-0.8-1.2c-0.4-0.4-0.5-1-0.4-1.5c0.3-0.8,0.3-1.6,0-2.4
	c0.2-1.1-0.4-2.1-0.7-3.1c-0.2-0.7-0.2-1.6-1-1.9c-0.3,0.4-0.7,0.7-1.1,1c-0.2,0.1-0.6,0-1-0.1c0-0.3,0.1-0.6,0.1-0.9
	c0.2-0.5,0.2-1.1-0.1-1.6c-0.2-0.5-0.4-1-0.4-1.6l-0.6,0.1c-0.4-0.5-0.6-1.1-0.6-1.7c0-0.6-0.4-1.1-1-1.2c-0.4,0.2-0.3,0.6-0.2,1
	c-0.4,0.2-0.8,0.3-1.1,0.4c-0.2,0-0.3,0-0.5,0c-0.6-0.1-1.1,0.1-1.2,0.8c0,0.5-0.3,0.9-0.8,1c-0.5,0.2-1,0.6-1.3,1.1
	c-0.3,0.5-0.8,1-1.4,1.2c-0.2,0.1-0.4,0.2-0.5,0.3c-0.2,0.7-0.8,1-1.4,1.2c-0.3,0.1-0.4,0.3-0.4,0.6c0,0.8,0,1.7,0,2.5
	c0,0.2,0,0.5-0.1,0.7c-0.3,0.5-0.4,1.1-0.2,1.7c-0.3,0.5-0.6,0.9-0.8,1.2c-0.3,0.4-0.6,0.7-1,1.2c-0.3-0.8-0.8-1.2-0.9-1.9
	c-0.2-0.7-0.5-1.3-0.9-1.9c-0.2-0.5-0.4-1-0.5-1.5c-0.2-0.5-0.4-1.2-0.5-1.8c-0.3-1.2-0.5-2.3-0.8-3.5c0-0.2-0.1-0.4-0.1-0.7
	c0-0.2-0.1-0.5,0-0.7c0.4-0.8,0-1.4-0.2-2.2c0,0.4-0.1,0.7-0.3,1.1c-0.3,0.3-0.6,0.5-1,0.6l-1.4-1.6l1.1-0.6v-0.2l-0.6-0.1
	c-0.4-0.1-0.8-0.1-0.8-0.6c0-0.1-0.1-0.2-0.2-0.3c-0.4-0.4-0.8-0.7-1.2-1.1c-0.2-0.3-0.4-0.6-0.5-0.9c-0.8,0.1-1.5,0.2-2.3,0.4
	c-1.4,0.1-2.8,0-4.1-0.3c-0.4,0-0.7-0.3-0.7-0.7c0-0.4-0.3-0.8-0.7-1l-0.7,0.3c-0.8,0.6-2,0.3-2.5-0.5c0,0,0,0,0,0
	c-0.7-0.8-1.2-1.7-1.5-2.6c-0.1-0.1-0.1-0.3-0.2-0.4c-0.3-0.1-0.6-0.2-0.9-0.2c-0.3-0.1-0.6,0.1-0.8,0.3c-0.3,0.3-0.1,0.5,0,0.8
	c0.3,0.9,0.8,1.8,1.5,2.5c0.1,0.2,0.2,0.4,0.2,0.6c0,0.2,0,0.4,0.1,0.8l0.8-0.8v1.4c0.3,0.7,1,0.1,1.4,0.3c0.6,0.4,1-0.2,1.4-0.5
	c0.4-0.4,0.8-0.8,1.1-1.3c0,0.1,0.1,0.3,0.1,0.4c-0.1,0.8,0.4,1.5,1.1,1.8c0.8,0.3,1.4,1,1.7,1.8c-0.3,0.6-0.6,1.3-1,2
	c-0.3,0.4-0.5,0.9-0.5,1.5c-0.4,0.2-1,0.3-1.1,0.8c-0.7,0.1-1,0.8-1.6,1c-0.3,0.2-0.7,0.3-1.1,0.4c-0.3,0.1-0.6,0.4-0.7,0.7
	c-0.2,0.3-0.4,0.6-0.8,0.8c-0.9,0.4-1.8,1-2.7,1.4c-0.5,0.3-1.1,0.5-1.7,0.6c-0.1,0-0.1,0-0.2,0.1c-0.4,0.7-1.1,0.4-1.7,0.4
	c-0.3-1-0.5-2.1-0.5-3.1c0.1-0.6-0.1-1.2-0.5-1.6c-0.3-0.3-0.5-0.8-0.6-1.2c-0.1-0.6-0.5-1.1-1.1-1.4c-0.3-0.2-0.5-0.6-0.6-1
	c-0.2-0.6-0.3-1.2-0.2-1.8c0.1-0.3,0-0.7-0.2-1c-0.5-0.7-1-1.5-1.4-2.3c-0.3-0.6-0.7-1.1-1-1.7c-0.2-0.4-0.6-0.7-0.8-0.6
	c-0.4,0.4-0.7,0-1.1,0c0-0.5-0.2-0.9-0.6-1.1c0,0.4,0.3,0.8,0.6,1.1c0.2,0.9,0.5,1.8,1,2.6c0.4,0.5,0.7,1.2,0.7,1.9
	c0,0.4,0.2,0.8,0.5,1.1c0.8,0.7,1.1,1.8,0.9,2.8c-0.1,0.4,0.1,0.9,0.4,1.2c0.8,0.5,1.2,1.4,1.2,2.4c0,0.4,0.1,0.7,0.3,1
	c0.8,0.7,1.6,1.5,2.2,2.4C236.9,128.7,237.2,128.8,237.4,128.9z M270.6,62.8l0.6,0.4C271,62.7,270.8,62.8,270.6,62.8
	c-0.1-0.4-0.1-0.4-0.5-0.1L270.6,62.8z M285.3,53.2c-0.4,0.3-1,0.4-1.5,0.3l-0.1,0.6l0.5,0.2l0.4-0.3c0.1-0.1,0.3-0.2,0.4-0.3
	C285.1,53.5,285.2,53.4,285.3,53.2l0.7,0.1l-0.2-0.4L285.3,53.2z M265.5,92.3c-0.4,0-0.8,0-1.3,0c-0.7-0.2-1.4-0.1-2.1,0.3
	c-0.5,0.4-0.9,0.8-1.4,1.2l0.5,0.7c0.4-0.7,1-1.2,1.6-1.5c0.4-0.3,0.9-0.5,1.4-0.3c0.3,0.1,0.6,0.1,0.9,0
	C265.3,92.6,265.4,92.4,265.5,92.3c0.6,0.1,0.6,0.1,0.7-0.5L265.5,92.3z M232.5,94.7c0-0.1,0-0.2,0-0.2c0.4-0.1,0.6-0.4,0.7-0.8
	l-0.3-0.3l1.1-0.8c-0.3,0-0.7,0-1,0.1c-1,0.3-1.9,1.1-3.1,0.9c0.3,0.4,0.5,0.6,0.8,0.9c0.1,0.1,0.2,0.1,0.3,0.1
	C231.5,94.5,232,94.6,232.5,94.7l-2.8,1c0-0.6-0.2-1-0.8-1.2l0.9-0.5c-0.2-0.2-0.5-0.3-0.8-0.2c-0.5,0-0.7-0.1-0.8-0.6
	c-1.1,0-1.4,0.8-1.8,1.6c-0.1,0.3-0.1,0.6-0.4,0.8s-0.2,0.5-0.3,0.8c-0.1,0.2-0.2,0.4-0.3,0.6c-0.2,0.3-0.4,0.6-0.6,1l1.1,1.3
	c-0.2,0.1-0.5,0.1-0.7,0.2c-0.2,0.1-0.4,0.2-0.7,0.4c0.6-0.3,1.6,0.5,1.6-0.8c0.2,0,0.4,0,0.6,0c0.6,0.1,1.2,0,1.6-0.4
	c0.9-0.6,2.1-0.7,3-0.1c0.6,0.3,1.2,0.3,1.8,0.6c0.2,0.1,0.6,0,0.8,0c0.2,0,0.4,0,0.6,0c0.5,0,1-0.2,1.2-0.6
	c0.2-0.4,0.1-0.9-0.2-1.2c-0.2-0.2-0.3-0.3-0.5-0.4C234.1,96.3,233.3,95.5,232.5,94.7z M245.9,95c0.1-0.3,0.2-0.5,0.1-0.7
	c-0.2-0.4-0.4-0.8-0.8-1.1c-0.5-0.4-1.1-0.7-1.7-1.1c-0.5,0.3-0.9,0.4-1.3,0.7c-0.3,0.1-0.6,0.3-0.8,0.5c-0.2,0.2-0.3,0.3-0.6,0.2
	c-0.2,0-0.4,0-0.5,0.2c-0.2,0.6-0.4,1.2-0.6,1.8l0.6,0.2c-0.1,1.7,1.1,2.8,2.1,4c-0.7,0.2-0.5,0.9-0.8,1.3c-0.4,0.7-0.3,1.5,0.2,2.1
	c0.9-0.2,1.3,0.8,1.9,0.9l1.6-0.4c0-0.2,0-0.3,0-0.5c-0.1-0.5-0.3-1,0.1-1.5c0-0.1,0-0.3-0.1-0.4c-0.2-0.3-0.4-0.6-0.6-1h-0.5
	l0.3-1.1c0.8,0.5,0.8,0.5,1.4-0.2c-0.2-0.2-0.4-0.4-0.5-0.7c-0.3-0.5-0.4-0.5-0.8-0.1l-0.3,0.2l-0.2-0.1l0.2-1.1
	c-0.9-0.2-1.1-1.1-1.9-1.7l0.9-0.1l-0.2-0.5l1.1-0.6L245.9,95z M250.1,96.5c0.2,0,0.4-0.1,0.4-0.1c0.3,0.3,0.5,0.2,0.7,0
	c0.3-0.4,0.6-0.8,0.9-1.2c-0.5-0.3-0.7-0.6-0.6-1.1c0.1-0.4,0.2-0.8,0.3-1.1c-0.9,0-1.3,0.7-1.8,1.1l-0.3-0.2
	c-0.5,0.6-0.7,1.5-0.5,2.2c0,0,0.1,0.1,0.1,0.1l0.6-0.1L250.1,96.5z M229.7,141.5c-0.2,0-0.5,0.1-0.7,0.1c-0.6,0-0.7,0.1-0.8,0.8
	c0,0.4,0,0.9,0,1.3c-0.1,0.4,0,0.8,0.3,1.1c0.4-0.3,0.8-0.6,1.2-0.1l0.5-0.4c-0.5-0.7,0.2-1.2,0.2-1.7L229.7,141.5z M285.3,87.4
	c0.3,0.3,0.9,0.4,1.2,0.1c0,0,0,0,0.1-0.1c0.2-0.2,0.4-0.5,0.6-0.7c0.2-0.2,0.3-0.5,0.7-0.6c0.4-0.1,0.7-0.4,1-0.6
	c0.4-0.3,0.3-1.1,0.9-1.3c0.1,0,0.1-0.2,0.2-0.3c0,0,0-0.1,0-0.1V82l-0.3,0.6c-0.4,1-1,1.9-1.9,2.6c-0.4,0.2-0.7,0.5-0.9,0.9
	C286.5,86.7,286,87.1,285.3,87.4z M229.2,75.2c-0.9-1.6-1.4-1.9-2.2-1.1l1,1.7L229.2,75.2z M226.5,147.5c0.2-0.9,0-1.8-0.4-2.6
	c-0.1,0.3-0.1,0.6-0.1,1c0.1,0.3,0.1,0.6,0.1,1c-0.1,0.5,0.1,1.1,0.4,1.4c0.4,0.5,0.8,1.1,0.9,1.7h0.6v-0.1
	c-0.3-0.4-0.7-0.8-0.7-1.2C227.3,148.2,226.9,147.9,226.5,147.5L226.5,147.5z M230.1,151.1l-0.2,0.1c0.2,1.3-0.2,2.8,0.5,4.2
	c0-1.1-0.1-2-0.1-3c0-0.3,0-0.5,0-0.8C230.3,151.5,230.2,151.4,230.1,151.1L230.1,151.1z M230.8,72.5c0.2,0.2,0.4,0.4,0.4,0.5
	c0,0.1-0.3,0.4-0.5,0.7l1.2,1c0-0.3,0-0.6,0-0.8c-0.1-0.4-0.3-0.8-0.5-1.2L230.8,72.5z M238.4,102.5c0.2,0.4,0.3,0.8,0.5,1.2
	c0.2,0.4,0.4,0.3,0.7,0C239.3,103.3,239.1,102.7,238.4,102.5z M213.7,76.7l-1,1.3c0.7,0,1.1-0.2,1.3-0.6
	C214.1,77.2,213.9,77,213.7,76.7z M232.6,77.8c0.4,0.2,0.6,0.5,1,0.5c0.3,0,0.4-0.3,0.4-0.6C233.5,77.3,233.1,77.6,232.6,77.8z
	 M265.3,97.1c-0.9,0-0.9,0-1.3,0.3C264.4,97.8,264.7,97.5,265.3,97.1z M231.8,137.3c-0.3,0.6-0.4,1,0.2,1.3L231.8,137.3z
	 M231.1,71.6c-0.2-0.3-0.3-0.5-0.7-0.5C230.4,71.4,230.5,71.7,231.1,71.6L231.1,71.6z M225.1,77.4h-0.2c-0.1,0.5-0.1,0.5,0.4,0.9
	L225.1,77.4z M308,95.2h0.2c0-0.3,0.3-0.6-0.2-0.9V95.2z M215.2,127.7l-1-0.2C214.3,127.8,214.4,127.8,215.2,127.7L215.2,127.7z
	 M225.8,144c0.4-0.3,0.5-0.5,0.2-0.7c0,0-0.1,0-0.2,0V144z M237.2,102.1c-0.5-0.2-0.5-0.2-0.8,0.1L237.2,102.1z M207.9,74.5v0.1
	l0.4,0.1v-0.1C208.2,74.6,208,74.6,207.9,74.5L207.9,74.5z M225.9,142.4l0.1,0.1l0.3-0.4l-0.1-0.1L225.9,142.4z M232.9,130.4
	c-0.3-0.2-0.4-0.3-0.4-0.2c-0.1,0-0.2,0.1-0.2,0.2c0.1,0.1,0.1,0.2,0.2,0.2C232.6,130.5,232.7,130.4,232.9,130.4L232.9,130.4z"/>
<path class="st3" d="M98.6,61.8c1.1,0.1,1.8-0.2,1.6-1.6c0.3-0.2,0.5,0,0.7,0.2l2.6,2.4l0.4-1.4l0.4,1.2c1-1,1.8-0.5,2.7,0
	s1.9,0.8,2.8,1.1c0.1,0,0.2,0,0.3,0c1-0.3,1.1-0.2,1.6,0.7c-0.4,0.1-0.8,0.2-0.8,0.7c0.7,0.5,2,0.3,3.4-0.3c0.2,0.5,1,0.3,1,1
	c0.5,0.1,0.3,0.7,0.7,0.9c0.3-0.3,0.3-0.3,0-1.4l1.4-1v-0.1l-1.7,0.6l0.4-1.1c0.4-0.1,0.9-0.1,1.3-0.2c0.8-0.1,0.8,0,1.1,0.8
	c0,0.1,0.1,0.2,0.1,0.3l0.6-0.1l0.1,0.4c0,0,0,0,0.1,0c0.7-0.3,1.2,0.5,1.9,0.5c0,0,0.1,0,0.1,0c0.4-0.1,0.8-0.2,1.2-0.2
	c0.4,0,0.8,0.1,1.2,0.1c0.1,0,0.2-0.1,0.3-0.1c0-0.3,0-0.5,0.1-0.8c0,0,0.1-0.1,0.2-0.2l1.2,0.6v1.1l1,0.7l0.1-0.1l-0.4-0.7
	c0.5-0.8,1.2-1.4,2-1.7l-0.5-0.1h-0.3V63c0.7-0.1,0.7-0.1,0.8-0.6h-0.3l-0.4,0.1l-0.5-0.9l-0.7,0.6c0-0.1-0.1-0.2-0.1-0.3
	c0-0.1,0.1-0.2,0.1-0.2c-0.8-0.4-0.1-1.1-0.2-1.6c0-0.1,0-0.2,0.1-0.3c0.1-0.1,0.4-0.3,0.4-0.4c-0.2-0.3,0.1-0.4,0.2-0.6
	c0.1-0.2,0.2-0.4,0.1-0.7c-0.1-0.4-0.1-0.8-0.3-1.2c-0.2-0.5-0.2-1,0.1-1.4c0.4-0.1,0.8-0.3,1.2-0.4c0.2,0,0.4,0,0.5,0
	c0.8,0.2,1.5,0.4,2.3,0.5c-0.2,1.2-0.5,1.4-1.6,1.6l-1.3,0.2c0,0-0.1,0.1-0.1,0.1c0.4,0.5-0.1,0.8-0.2,1.2c0.7,1,1.9,1.2,2.9,2.1
	l-0.9,0.2l0.3,0.4l-0.7,0.6c0.2,0.2,0.5,0.3,0.8,0.5c0.4,0.1,0.8,0.4,0.8,0.9c0.1,0.4,0.2,0.7,0.4,1.1c0.3-0.4,0.5-0.6,0.5-1.1
	c0-0.4,0.2-0.7,0.6-0.8c0,0,0.1,0,0.1,0c0.5,0.6,0.5,0.6,0.3,1.2c-0.1,0.2-0.2,0.5-0.3,0.7c-0.1,0.2-0.1,0.3,0,0.5
	c0.2,0.4,0.5,0.7,0.8,1c0.2,0.2,0.7,0,0.9-0.4c0.3-0.6,0.5-1.2,0.8-1.7c0.2-0.4,0.3-1,0.3-1.5l-0.1-0.6c0.6,0,1.2,0.1,1.8,0.2
	c0.2,0.1,0.4,0.5,0.6,0.8h0.5c0,0.1,0.1,0.1,0.1,0.1c-0.2,0.4-0.1,0.8-0.3,1.1c-0.2,0.5-0.3,0.9,0.2,1.2c0.3,0.2,0.5,0.3,0.5,0.6
	c0,0.3-0.3,0.5-0.7,0.6c-0.5,0.2-1,0.5-1.6,0.9l-0.8-0.4l0.4,0.7c-0.3,0.4-0.6,0.3-1,0c-0.3-0.1-0.5-0.2-0.8-0.3
	c0.3,0.6,0,1.3-0.6,1.5c0,0,0,0,0,0c-0.3-1-1.2-0.5-1.8-0.7v0.4l1.8,0.2c-0.1,0.2-0.2,0.4-0.3,0.6c-0.1,0.5-0.5,0.9-1,0.7
	c-0.4-0.1-0.8-0.1-1.2,0.2c0.1,0.4,0,0.8-0.5,0.8c0.3,0.7,0.2,1-0.4,1c-0.6,0.1-0.8,0.5-1.2,0.8c-0.2,0.2-0.4,0.4-0.5,0.6
	c-0.5,0.6-0.9,1.2-1.2,1.9c-0.1,0.5,0,1.1,0.2,1.5h1.1l0.9,2.1c0.2,0,0.3-0.1,0.5-0.1c0.3,0,0.5,0,0.8,0.1c0.5,0.2,1,0.4,1.4,0.7
	c0.4,0.2,0.7,0.4,0.9,0.8c0.3,0.3,0.7,0.6,1.1,0.7c0.7,0.4,1.5,0.6,2.3,0.7c0.3,0,0.6,0.1,0.9,0.3c0.1,0.5,0.1,1,0.1,1.5
	c-0.1,1,0.4,2,1.1,2.6c0.3,0.3,0.7,0.4,1.1,0.2c0.1-0.1,0.2-0.2,0.2-0.3c0.1-0.3,0.2-0.6,0.2-1c0-0.3,0-0.5-0.1-0.8
	c0-0.3-0.1-0.7-0.3-1c-0.2-0.2-0.2-0.6,0-0.9c0,0,0.1-0.1,0.1-0.1c0.8-0.5,1.5-1.2,2-1.9c-0.4-0.2-0.2-0.6-0.1-1
	c0.1-0.4-0.2-0.6-0.4-1c-0.2-0.3-0.3-0.7-0.6-1c-0.3-0.3-0.6-0.5-0.9-0.7l1.2-1.3c-0.1-0.5-0.3-1-0.4-1.4c0-0.1,0-0.3,0.1-0.4
	c0.3-0.4,0.4-0.8,0-1.1c0.2-0.3,0.6-0.4,1-0.3c0.4,0.1,0.9,0.1,1.3,0.1c0.3,0,0.6-0.1,0.8-0.2c0.5-0.2,0.8-0.2,1.2,0.2
	s0.7,0.8,1,1.1l1,0.2c-0.1,0.7,0.4,0.3,0.7,0.4c-0.3,0.6-0.4,1.3-0.3,1.9c0,0.2,0.1,0.4,0.3,0.4c0.6,0.3,1.2,0.6,1.7,1.1
	c1.1-0.6,1.2-1.9,1.9-2.8c0.1,0.5,0.2,1,0.4,1.4c0.3,0.4,0.6,0.7,0.9,1.1l-0.3,0.4c0.2,0.1,0.4,0.2,0.6,0.4c0.4,0.5,0.4,1.3,1.2,1.7
	l-0.8,0.4c0.2,0.4,0.5,0.8,0.9,1.1c0.6,0.4,0.9,1.1,1.7,1c0.1,0.3,0.3,0.6,0.7,0.3c0.1-0.1,0.3,0.4,0.3,0.7l1.4,0.9
	c0,0.1,0,0.2,0,0.4c0,0.8-0.3,1.3-1.1,1.4c-0.6,0-1.2,0.4-1.4,1c-0.5,0.7-1.4,1-2.2,0.8c-0.5,0-0.9,0-1.4,0c-0.6,0-1.3,0-1.9,0.1
	c-0.3,0-0.7,0.1-0.8,0.3c-0.5,1-1.6,1.3-2.2,2.2c0,0.3,0.2,0.3,0.5,0.2c0.6-0.4,1.2-1,1.8-1.4c0.4-0.3,1-0.4,1.5-0.3
	c0.6,0.1,0.8,0.5,0.5,1c-0.2,0.3-0.4,0.5-0.6,0.7c-0.1,0.1-0.4,0-0.6,0l0.1,0.4l1-0.3l-0.2,0.9l0.3,0.5l0,0
	c-0.3,0.3-0.1,0.5,0.1,0.6c0.2,0.1,0.4,0.1,0.6,0.1l0,0c0,0.1,0,0.4,0,0.4c0.2,0.1,0.5,0.3,0.7,0.3l0.6-0.5c0.1,0.3,0.2,0.6,0.1,0.8
	c-0.2,0.3-0.5,0.6-0.9,0.8c-0.4,0.3-1.1,0.2-1.3,0.9c-0.1,0.4-0.7,0.5-1.1,0.3c-0.7-0.3-0.7-0.6-0.2-1.1c0.1-0.2,0.3-0.3,0.5-0.5
	c0.2-0.1,0.5-0.2,0.7-0.2c0.1,0,0.3,0,0.4,0c0.1,0,0.1-0.2,0.2-0.3c-0.2,0-0.4,0-0.5,0c-0.2,0-0.3,0-0.5,0.1l0.2-0.9
	c-0.6,0.8-1,1.5-1.9,1.2c-0.1,0.3-0.1,0.6-0.2,0.7c-0.2,0.2-0.4,0.2-0.7,0.3c-0.2,0-0.4,0.1-0.6,0.3c-0.1,0.2-0.5,0.2-0.9,0.3
	l-0.6,1.5l0.4,0.4c-0.1,0.1-0.1,0.2-0.2,0.2c-0.8,0.1-1.5,0.4-2.2,0.7c0,0,0,0.2,0,0.2l0,0c-0.4,0.1-0.4,0.3-0.3,0.7
	c0.2,0.6-0.3,0.9-0.6,1.3c-0.1,0.1-0.5,0.1-0.7,0.1c0.2,0.5,0.2,1.1-0.1,1.6l-0.7-0.3c-0.2-0.6,0-1.2,0.5-1.7
	c-0.4-0.1-0.6,0-0.7,0.5c-0.1,0.6-0.4,1.2,0.1,1.8c0.3,0.3-0.4,0.4-0.1,0.6c0.2,0.3,0.4,0.3,0.5,0.6c0.1,0.2-0.1,0.4-0.2,0.6
	l0.4,0.4l-0.7,0.1c-0.3,0.9-0.8,1.6-1.6,2c-1,0.7-1.9,1.4-2.1,2.8c0,0.5,0.1,1.1,0.2,1.6c0.2,0.7,0.4,1.3,0.6,2
	c0.2,0.8,0.1,1.6-0.3,2.3c-0.3-0.4-0.5-0.6-0.7-1c-0.2-0.3-0.4-0.6-0.5-0.9c-0.1-0.3-0.1-0.6-0.1-1h-0.3c0.1-0.4,0.1-0.8,0-1.2
	c-0.2-0.4-0.4-0.7-0.6-1c0,0-0.1-0.1-0.1,0c-0.7,0.6-1.2,0-1.7-0.3c-0.3-0.2-0.7-0.3-1.1-0.2c-0.2,0-0.4,0-0.7,0
	c-0.4-0.2-0.9-0.1-1.3,0.3c0.5,0.1,0.4,0.6,0.6,1.1l-1.1-0.6c-0.5,0.7-0.5,0.7-1.2,0.2c-0.5-0.4-1.2-0.5-1.8-0.3
	c-0.4,0.2-0.9,0.2-1.2,0.7c-0.2,0.4-0.7,0.5-1.1,0.8c-0.7,0.3-1,1.2-0.6,1.8c0,0,0,0,0,0c0.3,0.5,0.2,1.1-0.1,1.6
	c-0.3,0.4-0.1,1.1-0.1,1.6s0.1,1,0,1.5c0,0.7,0.2,1.4,0.7,1.9c0.3,0.5,0.6,1,1,1.5c0.1,0,0.5,0.1,0.7,0.3c0.3,0.4,0.9,0.5,1.4,0.2
	c0,0,0.1-0.1,0.1-0.1c0.3-0.3,0.8-0.4,1.3-0.2c0.5-0.5,0.9-1.2,1-2c0-0.4,0.3-0.7,0.7-0.8c0.3-0.1,0.5-0.2,0.8-0.4
	c0.3-0.2,0.7-0.2,1,0c0.3,0.3,0.2,0.6,0.1,0.9c-0.1,0.3-0.1,0.7-0.3,1c-0.2,0.5,0,1.2-0.6,1.5c0,0,0,0.1,0,0.2
	c0.1,0.9-0.1,1.7-0.5,2.5c0.7,0,1.3,0,1.9-0.2c1.1-0.3,1.7,0.3,2.4,0.9c0.1,0.1,0.1,0.6,0,0.8c-0.3,0.9-0.4,1.8-0.4,2.7
	c0.1,0.5,0.3,0.9,0.6,1.3c0.2,0.3,0.4,0.6,0.7,1c0.6,0.2,1.4,0.1,1.9-0.3c0.3-0.2,0.8-0.2,1,0.1c0.5,0.5,0.8,1,1.3,1.5
	c0.2-0.4,0.4-0.8,0.6-1.2c0.3-0.3,0.4-0.7,0.5-1.2c0-0.2,0.3-0.3,0.5-0.4c0.5-0.3,1-0.5,1.5-0.7c0.2-0.1,0.5-0.3,0.7-0.5
	c0.3-0.3,0.5-0.3,0.7,0.1l-0.6,0.7l0.4,0.7c-0.6,0.4-0.5,1,0,1.4c0.6-0.3,0.7-0.4,0.3-1.1c-0.2-0.3-0.2-0.6,0.1-0.8
	c0.1-0.1,0.2-0.1,0.2-0.1l0.7-0.2l-0.4-0.5l0.1-0.1l1.4,0.7c0.1,0,0.1,0.1,0.2,0.2c0.1,0.2,0.1,0.3,0.2,0.5h1c0.2,0,0.5,0,0.6,0.1
	c0.5,0.5,1,0.3,1.5,0.1c0.5-0.2,1-0.3,1.7-0.4c-0.2,0.4-0.6,0.7,0,0.9c0.3,0.1,0.6,0.1,1,0.2l-0.2,1c0.7-0.1,1.3,0.1,1.8,0.7
	c0.5,0.5,0.5,0.5,0.2,1.1c0,0.1,0,0.2,0,0.3l0.4-0.5c0.3,0.1,0.5,0.2,0.7,0.4c0.4,0.4,1,0.5,1.6,0.4c0.9,0,1.8,0.3,2.4,1
	c0.5,0.4,0.9,1,1.1,1.6c0.1,0.4,0.2,0.7,0.3,1.1c0.1,0.3,0.3,0.5,0.5,0.8c0,0.1-0.6,0.5,0.1,0.7l-0.3,1c-0.3,0.2-0.7-0.5-0.9,0.1
	c-0.1,0.4-0.8,0.8-0.3,1.3l1.7-1.6c0.3,0.1,0.5,0.3,0.8,0.4c0.1,0.2,0.1,0.5,0.2,0.8c0.3-0.4,0.9-0.5,1.4-0.2
	c0.1,0.1,0.2,0.1,0.2,0.2c0.1,0.1,0.1,0.1,0.2,0.1c0.9,0.2,1.5,1,1.5,1.9c0.2-0.1,0.3-0.2,0.4-0.3c0.1-0.3,0.5-0.4,0.7-0.2
	c0,0,0,0,0,0c0.6,0.3,1.3,0.4,1.9,0.5c0.4,0.1,0.8,0.3,1.1,0.5c0.4,0.3,0.8,0.7,1.2,1c0.1,0.1,0.3,0.2,0.4,0.3
	c1.1,0,1.5,0.9,1.7,1.7c0.4,1,0.2,2.2-0.5,3.1c-0.1,0.2-0.3,0.4-0.5,0.6c-0.6,0.3-1,0.9-1.2,1.5c-0.2,0.4-0.1,1-0.8,0.9
	c-0.2,0.4-0.4,0.9-0.5,1.4c0,0.5,0,1,0.1,1.5c0,0.4-0.1,0.9-0.1,1.3l-0.1,0.9c0,0,0,0.1,0,0.1c-0.2,0.7-0.4,1.3-0.7,1.9
	c-0.3,0.6-0.6,1-0.9,1.6c-0.1,0.2-0.2,0.5-0.2,0.8c0,0.5-0.4,0.8-0.6,1.1c-0.3,0.3-0.6,0.1-0.9,0.2c-0.5,0.1-1.1,0-1.3,0.7
	c0,0-0.2,0-0.3,0.1c-0.9,0.4-1.8,0.9-2.6,1.6c-0.3,0.2-0.5,0.6-0.4,1c0,0.6,0.1,1.2,0.2,1.7c0,0.5-0.2,0.9-0.5,1.3
	c-0.4,0.5-0.7,1.1-1,1.7l-0.4-0.3c-0.2,0.3-0.4,0.6-0.6,0.9c-0.3,0.5-0.7,0.9-0.6,1.5c0,0.2-0.1,0.4-0.2,0.5
	c-0.1,0.2-0.4,0.6-0.5,0.9c-0.3,0.5-0.8,0.7-1.4,0.7c-0.9,0-1.8-0.4-2.4-1.1c-0.1,0.4,0,0.8,0.3,1.1c0.3,0.3,0.7,0.5,0.5,1.1
	c0,0.1,0.1,0.3,0.2,0.3c0.6,0.2,0.5,0.6,0.2,1c0,0,0,0,0,0.1c-0.4,1.3-1.5,1.7-2.7,1.8l-1.7,0.2c0.4,0.4,0.1,1,0.2,1.5
	c0,0.5-0.2,0.9-0.6,1.1c-0.4,0.2-0.8,0.1-1.1-0.3c-0.1-0.1-0.2-0.1-0.3-0.1c-0.5,0.5-0.1,1,0.1,1.5c0,0.1,0.5,0.1,0.9,0.2
	c0.1,0.3,0.2,0.6-0.4,0.6c-0.3,0-0.6,0.4-0.7,0.6c-0.2,0.6-0.4,1.3-0.5,1.9c-0.8-0.1-1.1,0.6-1.5,1.1c-0.3,0.3-0.1,0.6,0.1,0.8
	c0.3,0.3,0.7,0.5,1.1,0.7l0.2,0.9c-0.4,0.4-0.9,0.8-1.3,1.3c-0.1,0.2-0.2,0.4-0.2,0.6c0,0.6-0.3,0.8-1,0.4c0.1,0.4,0.3,0.6-0.1,0.9
	c-0.3,0.3-0.3,0.9,0,1.3c0.1,0.1,0.2,0.3,0.2,0.4l-0.9,0.3c0.2,0.2,0.3,0.3,0.4,0.3c0.4,0,0.5,0.2,0.6,0.7c0.2,0.8,0.8,1.4,1.6,1.6
	c0.3,0.1,0.6,0.2,0.9,0.3c-0.7,0.4-1.5,0-1.9,0.9c-0.4-0.6-0.7-0.1-1,0c-0.2,0.1-0.5,0.1-0.7,0.1c-0.3,0-0.2-0.4-0.3-0.5
	c-0.1-0.1-0.2-0.2-0.3-0.2c-0.4-0.1-0.7-0.2-1.1-0.3l0.2-0.4c-0.1-0.1-0.2-0.1-0.4-0.2c-0.8-0.2-0.9-0.3-1-1.1c0,0-0.2,0-0.2-0.1
	c0.1-0.4,0.1-0.7,0.2-1l0.9-0.6l-1.1,0.2c0,0.3-0.1,0.6-0.1,0.9c0,0.2,0.1,0.3,0.2,0.5c-0.1,0-0.3,0.1-0.3,0
	c-0.2-0.2-0.4-0.5-0.6-0.7c-0.4-0.8-0.4-0.8,0.4-1c0.2-0.1,0.3-0.1,0.5-0.2c-0.4-0.5,0.1-1.4-0.8-1.7c-0.1,0.2-0.2,0.4-0.3,0.5h-0.1
	c-0.1-0.7-0.2-1.5-0.2-2.2c0-0.3,0.3-0.5,0.6-1l0.4,1h0.1c-0.1-0.3-0.1-0.7,0-1c0.1-0.4,0.3-0.7,0.1-1.1l-1-0.1l0.2-0.9
	c0.1,0,0.2-0.1,0.3-0.1c0.3,0.1,0.6,0.2,1,0.3c0-0.5,0-0.9,0-1.2c0-0.3,0-0.7,0.1-1c0.5-1,0.3-2.2,0.6-3.2c0,0-0.1-0.1-0.2-0.2
	c-0.3,0.3-0.5,0.8-0.4,1.3c0,0.3-0.1,0.5-0.2,0.7c0,0.1-0.2,0.1-0.5,0.2c0.4-0.7-0.1-1.4,0.5-1.9c0,0,0-0.2,0-0.3
	c-0.1-0.6,0-1.2,0.3-1.8c0.1-0.3,0.1-0.5,0.1-0.8c0-0.5-0.2-1-0.2-1.5c0-0.4,0.2-0.8,0.4-1.1c0.3-0.5,0.5-1.1,0.4-1.7
	c0-0.5,0.2-1,0.4-1.4c0.5-1,0.6-2.1,0.4-3.1c-0.1-0.2,0.1-0.4,0.1-0.7c0-0.2,0.2-0.7,0-1.1c-0.1-0.2-0.1-0.4,0-0.6
	c0.2-0.9,0.4-1.8,0.5-2.7s0.1-2,0.1-3c0.1-0.5,0.1-1.1,0.3-1.6c0.2-1,0.3-2.1,0.1-3.1c-0.1-0.7-0.6-1.3-1.2-1.7
	c-0.9-0.4-1.8-0.9-2.5-1.6c-0.6-0.4-0.9-1.1-1-1.8c0-0.3-0.1-0.5-0.2-0.8c-0.5-1-0.9-2.1-1.2-3.1c-0.1-0.3-0.2-0.7-0.4-1
	c-0.7-0.9-1.5-1.8-2.3-2.7c0-0.3-0.1-0.5-0.1-0.8c-0.2-0.5-0.1-1,0.3-1.3c0.2-0.2,0.4-0.4,0.5-0.6c-0.3-0.3-0.6-0.5-0.6-1
	c0.1-0.5-0.1-0.8,0.2-1.2c0.1-0.3,0.2-0.6,0.3-1l0.3-1.1c0.4-0.3,0.7-0.8,0.8-1.3c0-0.2,0.2-0.3,0.4-0.5c0.1-0.1,0.5-0.5,0.8-0.7
	l-0.2-0.1c0-0.2,0-0.5,0-0.7c0.1-0.9,0.2-1.7,0.3-2.5c-0.9-0.6-0.9-0.6-0.7-1.2l-0.8-0.9l-0.8,0.7c0.2,0.3,0.5,0.6-0.2,0.8
	c-0.6-0.3-1-1-1.8-0.9c-0.1-0.3-0.7-0.1-0.6-0.7c0-0.1-0.2-0.3-0.3-0.4s-0.4-0.4-0.7-0.6l-0.4,0.3c-0.2-0.3-0.6-0.4-0.4-1
	c0.1-0.2-0.1-0.6-0.2-0.8c-0.3-0.5-0.7-1-1-1.4c-0.1-0.2-0.1-0.4-0.2-0.6c-0.7,0.1-1.5,0-2.1-0.4c-0.8-0.4-1.6-1.1-2.2-1.8
	c-0.6-0.7-1.6-0.9-2.4-0.5c-0.7,0.2-1.4,0.1-2.1-0.3c-0.2-0.1-0.4-0.2-0.6-0.3c-0.6-0.1-1.2-0.4-1.7-0.8c-0.4-0.2-0.8-0.4-1.2-0.6
	c-0.1-0.1-0.3-0.2-0.4-0.3c-0.4-0.3-0.7-0.7-1.1-1c-0.7-0.4-0.9-1.2-0.6-1.9c0.2-0.6,0-1.2-0.4-1.6c-0.7-1.3-1.6-2.4-2.6-3.5
	c-0.3-0.2-0.2-0.3,0-0.8c-1.6-1.5-2.8-3.3-3.5-5.4c-0.2,0-0.4,0.1-0.6,0.1c-0.2-0.1-0.4-0.1-0.6-0.2c0,0.3,0.1,0.5,0.2,0.8
	c0.4,0.8,1,1.6,1.4,2.5c0.6,1.3,1.2,2.6,1.7,3.9c0.2,0.4,0.4,0.8,0.8,1.2c0.2,0.2,0.3,0.5,0.1,0.7c0,0.1-0.1,0.1-0.2,0.1
	c-0.2-0.3-0.4-0.6-0.6-0.9c-0.7-0.5-1.1-1.3-1.2-2.1c0-0.4-0.3-0.7-0.6-0.9l-1.3-0.8c0.2-0.3,0.7-0.2,0.6-0.7
	c-0.1-0.5,0-1.2-0.6-1.6c-1.2-0.6-1.3-1.8-1.8-2.9c-0.1-0.4-0.4-0.8-0.8-1.1c-0.6-0.4-1.2-0.7-1.8-1c-0.3-0.6-0.7-1.2-1.1-1.9
	c-0.1-0.3-0.1-0.5-0.1-0.8l-0.4-0.4l0.2-0.7l-0.5,0.1c0,0-0.1-0.1-0.1-0.1c-0.2-0.4-0.3-0.7-0.5-1.1c-0.2-0.4-0.4-0.8-0.5-1.3
	c0-0.4,0.1-0.9,0.2-1.3c0-0.3-0.1-0.7-0.2-1c-0.1-0.4-0.1-0.9-0.1-1.3c0.1-1.3,0.2-2.6,0.3-3.9c-0.1-0.4-0.2-0.8-0.5-1.2l-0.3-0.8
	l1.5,0.2v-0.2c-0.4-0.1-0.9-0.2-1.3-0.4c-0.4-0.3-0.7-0.6-1-1c-0.2-0.2-0.8,0-0.7-0.5l-1-0.1l-0.3-0.7c0.9-0.8,0.8-1.7-0.2-2.2
	c-0.6-0.3-0.2-0.7-0.2-1.1l-0.5,0.3c-0.1-0.2-0.3-0.4-0.3-0.6c-0.1-0.6-0.3-1.2-0.6-1.8c-0.1-0.1,0-0.3,0-0.5h-0.5v1l-1.7-1.9
	c0.4-0.1,0.4-0.1,0.8,0.1l0.1-0.4l-0.9-1.7c-0.1-0.3-0.1-0.7-0.5-0.7c0-0.1-0.1-0.3-0.2-0.3c-0.2-0.1-0.4-0.2-0.6-0.3L94.4,78l1,0.5
	V78l0.5,0.1c0,0.2,0.1,0.4,0.1,0.6c0.1,0.5,0.1,0.5-0.5,0.7c0-0.1,0-0.3,0-0.4h-0.2l0.2,0.4l0.1,0.5c0.4,0.2,0.6-0.7,0.9-0.1
	c0.4,0.5-0.2,0.7-0.5,1.1c-0.1-0.2-0.2-0.4-0.3-0.4c-0.5-0.1-0.7-0.5-0.9-0.8c-0.2-0.4-0.4-0.5-0.6-0.8c-0.3-0.6-0.8-1-1.4-1.4
	c-0.3-0.1-0.5-0.5-0.4-0.9c0,0,0,0,0,0c-0.2,0-0.5,0-0.7-0.1c-0.2-0.1-0.4-0.3-0.6-0.5c-0.4-0.1-0.8-0.2-1.3-0.4
	c-0.5-0.1-0.8-0.3-1.3-0.1c-0.3,0.1-0.5,0-0.7-0.1c-0.6-0.3-1.2-0.4-1.7-1c-0.4-0.6-1.1-0.5-1.9-0.4c0.2,0.2,0.3,0.3,0.4,0.4
	c0.3,0.3,0.1,0.9-0.3,0.8c-0.8-0.1-1.2,0.4-1.6,0.8c-0.3,0.2-0.7,0.4-1.1,0.4c-0.2-0.3,0.4-0.3,0.1-0.8c-0.3-0.4,0.2-1.5,0.7-1.6
	c0.3-0.1,0.5-0.1,0.8-0.1c0-0.5-0.5-0.4-0.8-0.5c-0.5,0.5-1,1-1.5,1.5c-0.5,0.6-1.2,0.6-1.4,1.5l0.5,0.3c-0.3,0.6-0.8,1-1.4,1.4
	c-1,0.8-1.8,1.8-2.8,2.6c-0.6,0.3-1.2,0.6-1.8,0.8c-0.1,0-0.2-0.1-0.3-0.2c-0.3,0.4-0.4,1-1.1,0.9c0.6-0.6,0.8-1.6,2-1.2
	c0.1-0.4,0.4-0.8,0.8-0.9c0.5-0.2,1-0.7,1.2-1.2c0.3-0.6,0.5-1.3,0.8-1.9l-1.5,0.3c-0.3-0.2-0.7-0.6-1.1-0.6c-0.4,0-0.7,0.4-1.1,0.6
	c-0.3-0.6-0.1-1.4-0.7-1.9c-0.3,0.1-0.6,0.4-0.8,0.3c-0.3,0-0.4-0.3-0.6-0.5c-0.2-0.2-0.4-0.5-0.7-0.9l1,0.1v-0.2
	c-0.6-0.1-1.3-0.1-1.8-0.8c0.3-0.3,0.6-0.7,0.9-1.1c0.1-0.1,0.5-0.1,0.2-0.6c-0.3-0.4,0.4-0.7,0.8-0.5c0.3,0.3,0.8,0.4,1.1,0.1
	c0,0,0.1-0.1,0.1-0.1c0.1-0.1,0.3-0.1,0.5-0.2c0.7-0.2,0.7-0.2,0.6-1c0-0.1,0-0.3,0-0.4c0-0.1,0-0.2,0.1-0.3c-0.1,0-0.1-0.1-0.2-0.1
	c-0.5-0.2-1,0.4-1.6,0.1c-0.4-0.2-1.1,0.1-1.6,0.1c-0.5,0.1-1-0.1-1.2-0.5c-0.1-0.2-0.2-0.5-0.2-0.7l-0.8-0.2
	c0.1-0.5,0.6-0.8,1.1-0.8c0.2,0,0.4-0.1,0.5-0.3c0.4-0.3,0.8-0.5,1.2-0.7l0.2,0.1c0.3,0.2,0,0.8,0.4,0.9c0.5,0.1,0.9,0.1,1.4,0.1
	c0.2,0,0.3-0.1,0.5-0.1L73.6,67l0.8-0.1v-0.1c-0.3-0.1-0.6-0.2-0.8-0.3C73,66,73,65.9,72.4,66.1c-0.1,0-0.2,0-0.3,0
	c-0.4-0.9-1.4-1-2-1.6l0.1-0.8l2.3-0.3c0.1-0.7,0.5-1.4,1-1.9c0.2-0.2,0.3-0.3,0.6-0.4c0.5-0.2,1-0.4,1.5-0.5c0.7,0,1.3-0.3,1.9-0.7
	c0.2-0.1,0.4-0.1,0.6,0c0.2,0.1,0.4,0.4,0.7,0.4s0.5-0.2,0.8,0.1c0.1,0.1,0.2,0.1,0.3,0c0.8-0.3,1.5,0.2,2.2,0.3
	c0.2,0,0.4,0.2,0.6,0.1c1.2-0.4,2.4,0.4,3.6,0.2c0.3,0,0.7,0.1,1,0.2c0.7,0.2,1.3-0.1,1.9,0c0.2,0,0.3,0,0.5,0.1
	c0.5,0.3,1.2,0.5,1.8,0.4c0.1,0,0.3,0,0.4,0.1c0.8,0.4,1.6,0.9,2.4,1.3l0.6,0.3c-0.1-0.5-0.4-0.3-0.6-0.3c0.2-0.1,0.3-0.4,0.5-0.4
	c0.5,0,0.9-0.3,1-0.8c0.1,0.1,0.3,0.2,0.4,0.3c0.2,0,0.5,0,0.6-0.1c0.3-0.5,0.9-0.7,1.5-0.6l0.3-0.6l0.9,0.1v0.2l-0.6,0.5
	c-0.2,0.1-0.3,0.3-0.5,0.3c-1,0-1.3,0.8-1.6,1.6c0.1,0,0.2,0,0.3,0c0.1,0,0.1-0.1,0.1-0.1c0.2-0.6,0.7-1,1.3-1
	C98.8,62.6,98.8,62.2,98.6,61.8z M135.6,92.7c-0.1-0.3-0.2-0.6-0.4-0.9s-0.2-0.8-0.4-0.8c-0.7-0.1-0.9-0.7-1.1-1.1
	c-0.5-0.2-1.1-0.2-1.5,0.2c-0.8,0.6-1.5,1.1-2.3,1.7c-0.1,0.1-0.2,0.3-0.3,0.4c0.1,0,0.1,0,0.2,0.1c0.1,0,0.2,0,0.3,0
	c0.8,0.4,1.3,0,1.8-0.5c0.2-0.1,0.4-0.2,0.7-0.3l0.1,0.1l-0.4,0.5c0.3,0.1,0.6,0.1,0.7,0.3c0.3,0.5,0.6,0.4,1.1,0.3s0.6-0.2,1-0.3
	C135.1,92.8,135.3,92.9,135.6,92.7l0.1,0.6c-0.2,0-0.3,0.1-0.5,0c-0.6-0.2-1.1,0.1-1.6,0.3c-0.3,0.1-0.4,0.5-0.5,0.8
	c0.5,0.4,0.1,0.7,0,1c-0.3,0.8-0.3,1.6,0,2.4c0.1,0.3,0.5,0.4,0.6,0.1c0.2-0.5,0.6-1,0.4-1.6c-0.1-0.3,0-0.6,0-0.9
	c0.1-0.8,0.8-1.2,1.3-1.8c1,0.4,1.2,1,0.8,2.2l0.6-0.2l0.3,0.9c0.4,0,0.5-0.3,0.5-0.6c-0.1-0.5,0.2-0.9,0.6-1.2l0.8,0.4l0.3-0.5
	c-0.1-0.2-0.1-0.5-0.2-0.6c-0.1-0.1-0.6-0.7-0.9-0.7C137.3,93.3,136.4,93,135.6,92.7z M104.1,66.9c0.6,0.2,1.5-0.2,1.9,0.8l-0.9-0.1
	c0.4,0.6-0.5,1-0.2,1.6l0.9,0.3c0.6-1,0.7-1.1,1.4-0.8l-0.5,0.3V69l0.9-0.2l-0.1-0.6l1.2,0.1l0.3-1.1l-2-0.4l0.7-0.5
	C106.5,66.2,105.3,66.4,104.1,66.9z M112.4,73.4c0.4,0.2,0.8,0.1,1.1-0.3c0,0,0-0.1,0.1-0.1c0.2-0.2,0.4-0.4,0.6-0.6l1.3-1l-0.1-0.2
	c-0.2,0-0.5-0.1-0.6,0c-0.4,0.2-0.7,0.4-1,0.7c-0.5,0.6-1.2,0.3-1.8,0.3c-0.1,0-0.2-0.2-0.2-0.3c0-0.6-0.5-0.6-1.1-0.9l0.8,1.5
	c-0.3,0.2-0.6,0.4-1,0.6c-0.4,0.1-0.7,0.3-1.1,0.4l1.2,0.7C111.1,74.1,112,74.4,112.4,73.4z M124.4,83.2c-0.2,0.1-0.5,0.3-0.6,0.4
	c-0.3,0.4-0.2,1,0.2,1.4c0,0,0.1,0,0.1,0.1c0.5,0.4,0.9,0.8,1.2,1.3c0.1,0.2,0.2,0.4,0.2,0.6c0,0.2,0.1,0.4,0.1,0.7
	c0.7-0.3,0.2-0.8,0.4-1.1C125.3,85.5,124.7,84.4,124.4,83.2L124.4,83.2z M136.3,98c0.7,0.7,0.7,0.7,1.4,0.2c0.2-0.1,0.5-0.2,0.7-0.3
	c0.5-0.3,1.1-0.4,1.3-1.2c-0.4,0.1-0.7,0.2-1.1,0.3C137.8,97.3,137.1,97.6,136.3,98L136.3,98z M140.9,95.5l0.4,0.4
	c-1.6-0.1-1.6-0.1-1.9,0.5c0.9,0.1,1.8,0,2.6-0.3l0.3-0.8L140.9,95.5z M101.1,87.5v0.2c0.3,0,0.6,0.1,0.9,0.1
	c0.3,0.1,0.5,0.1,0.6,0.2c0.5,0.9,1.7,1,2.2,1.9c0.1-0.2,0.2-0.3,0.1-0.4c-0.1-0.2-0.3-0.4-0.4-0.5c-0.1-0.1-0.2-0.4-0.5-0.3
	c0,0-0.1-0.3-0.3-0.4s-0.6-0.4-0.9-0.6C102.3,88.1,101.7,87.1,101.1,87.5L101.1,87.5z M116.8,76.1l-1.2-0.1l-1.5,1.6
	c0.3,0.2,0.4,0.3,0.6,0c0.4-0.6,1-1,1.7-1.2C116.6,76.4,116.6,76.3,116.8,76.1z M121.2,80l0.5-1.7C120.8,78.5,120.6,79.2,121.2,80
	L121.2,80z M146.1,197.9c-0.2,0.4-0.2,0.4,0.2,1.6c0.5-0.2-0.2-0.5,0.1-0.8C146.8,198.3,146,198.2,146.1,197.9z M122.5,84.5l0.5,1.4
	c0.4-0.6,0.3-1-0.2-1.5L122.5,84.5z M106.9,71.2c0.6,0,1.2,0.5,1.7-0.1C108,71.1,107.5,70.4,106.9,71.2z M123.5,86.2l1,1.8
	C124.5,87.2,124.1,86.5,123.5,86.2L123.5,86.2z M132.9,88.9l-0.4-0.8C132,88.7,132,88.7,132.9,88.9L132.9,88.9z M154.9,84.8l1.1-0.7
	l0-0.1l-1.2,0.4L154.9,84.8z M135.3,130.2l-0.8-0.8l-0.1,0.1C134.4,129.9,134.5,130.3,135.3,130.2L135.3,130.2z M144.4,87.4l0.1,0.2
	c0.4-0.1,0.6-0.4,0.6-0.8L144.4,87.4z M113.3,98.9c0.1-0.6,0-0.8-0.4-0.7c0,0-0.1,0.1-0.1,0.1L113.3,98.9z M145,199.1l0.5-0.3
	l-0.5-0.3L145,199.1z M143.7,193.6l-0.2-0.1l-0.2,0.5h0.1L143.7,193.6z M147.7,85l-0.2-0.1l-0.2,0.4l0.2,0.1L147.7,85z M146.6,156.8
	c0.1,0.1,0.3,0.2,0.4,0.2c0,0,0.1-0.1,0.1-0.1c0-0.1-0.1-0.2-0.2-0.2C146.9,156.6,146.8,156.7,146.6,156.8L146.6,156.8z"/>
<path class="st3" d="M183,59.6c0,0.5,0,0.5-0.4,0.7l0.5,0.5l-0.8,0.3c0.1,0.1,0.1,0.3,0.2,0.3c0.3,0,0.5,0,0.8,0
	c0.3-0.1,0.6-0.1,0.8-0.1c0.5,0.1,1,0.3,1.6,0.4c-0.2,0.2-0.4,0.4-0.5,0.6c-0.2,0.4-0.7,0.6-1.1,0.7c-0.6,0.1-1.2,0.4-1.8,0.8
	c-0.7,0.4-1.5,0.7-2.3,0.8c-0.4,0-0.7,0.1-1,0.3c-0.5,0.3-1.1,0.3-1.6,0c0.1,0.1,0.1,0.3,0.2,0.4c0,0.1,0,0.2,0,0.3l-0.8,0.8
	c-0.1,0.1-0.2,0.2-0.3,0.3c-0.6,0.2-1.1,0.6-1.4,1.1c-0.2,0.2-0.2,0.5-0.6,0.3c-0.1,0-0.4,0.3-0.6,0.5l-0.4-0.3
	c-0.5,0.1-0.9,0.2-1.4,0.2c-0.6,0-0.4,1-1.1,0.6c0.2,0.4,0.4,0.8,0.3,0.9c-0.3,0.4-0.1,1.1-0.5,1.4c-0.4,0.3-0.1,0.9-0.7,0.8
	c0.1,0.4-0.3,0.6-0.3,1c-0.1,0.4-0.2,0.8-0.3,1.2c-0.2,0.4-0.3,0.9-0.3,1.3c0.1,0.5-0.2,0.7-0.6,0.4c-0.5-0.2-0.8-0.2-0.7-0.8
	c-0.8,0-1-0.1-1.1-0.7l-1.3,0.7l-1.2-2.1c-0.2-0.1-0.5,0.4-0.6-0.2c-0.4,0-0.2-0.6-0.7-0.6c-0.3,0-0.1-0.7-0.5-0.8
	c-0.1,0-0.1-0.4-0.1-0.7c0.4,0,0.8-0.4,0.8-0.8l-1,0.5c-0.1-0.9-0.6-1.7-1.4-2.1l0.4-0.9c-0.1-0.2-0.4-0.6-0.3-0.7
	c0.1-0.1-0.1-0.5,0-0.7c0.1-0.2,0.5-0.4,0.6-0.7c0.1-0.3,0.3-0.5,0.6-0.5c0.3-0.1,0.6-0.1,0.9-0.1l-0.1-1l0.5,0.1
	c0-0.4-0.2-0.5-0.4-0.7s0-0.6,0.1-1c-0.4,0-0.8,0-1.2-0.1c-0.3-0.2-0.7-0.3-1-0.6l-0.1,0.1l1.2,1.2c-0.9,0.9-1.5,1-2.3,0.6
	c0.1,0,0.2-0.1,0.2-0.1c0.1,0,0.2-0.1,0.2-0.1l-0.9-0.2l0.4-1.3l0.8-0.1l-0.7-0.5c0.6-0.5,0.6-0.5,3,0.4c-0.1-0.2-0.1-0.5-0.1-0.7
	c0.1-0.2,0.2-0.4,0.3-0.6l-2.6-0.9c-0.2,0.2-0.3,0.5-0.5,0.5c-0.3,0-0.6,0-0.8-0.1c0.1-0.4,0.2-0.8,0.3-1.2c0-0.3,0.1-0.4,0.3-0.5
	c0.2-0.1,0.2-0.4,0.2-0.6c-0.2-0.5-0.5-1-0.9-1.5c-0.1-0.2-0.4-0.2-0.5-0.3l0.3-0.6c-0.6-0.6-1.1-1.1-1.7-1.6c0,0-0.1-0.1-0.1-0.1
	c-1-0.3-1.9-1.1-2.9-1.2c-0.2,0-0.4,0.1-0.6,0.2l-0.3-0.3l-1.8,0.5c-0.3-0.3-0.7-0.6-1.2-0.1c-0.1,0.1-0.3-0.1-0.6-0.2l-0.2,0.6
	c-0.6,0.1-1.1,0-1.6-0.4c-0.2-0.4-0.5-0.7-1-0.8c-0.1,0-0.2-0.3-0.4-0.5c0.4-0.1,0.8-0.1,1.1,0.1c1-0.8,2.3-0.7,3.7-0.7
	c-0.2-0.3-0.6-0.5-1-0.4c-0.3,0.1-0.6,0.1-0.9,0.1c-0.3-0.1-0.6-0.1-0.9-0.3c-0.3,0.4-0.8,0.5-1.3,0.2c-0.6-0.2-1-0.7-1.3-1.2
	c0.1-0.3,0.5-0.5,0.8-0.5c1-0.1,1.9-0.4,2.9-0.5c0.4-0.1,0.8-0.1,1.2-0.1c0.8,0.1,1.5-0.5,1.5-1.3c0-0.2,0-0.3,0-0.5h-2.5
	c0-0.7,0.1-0.8,0.6-1c0.8-0.3,1.5-0.5,2.3-0.8c0.5-0.1,0.9-0.1,1.4,0l0.4-1.1c0.6-0.2,0.8,0.1,1,0.4c0.1-0.2,0.1-0.4,0.3-0.5
	c0.2-0.1,0.4-0.2,0.6-0.3c0.5-0.1,1-0.1,1.5-0.3c0.5-0.1,0.9,0.2,1.3,0c0.1-0.1,0.3,0,0.4-0.1c0.7-0.3,1-0.2,1.1,0.4
	c0,0.2,0.1,0.5,0.1,0.7c0.4-0.3,0.9-0.4,1.4-0.3c-0.4-0.4-1-0.4-1.2-1.1l2.1,1l-0.6,0.2l1,0.5l0.2-2.1c0.8-0.1,1.5,0.3,1.9,1
	c0.3,0.7,0.9,1.1,1.6,1.3c0.3-0.1,0.5-0.7,1.1-0.3c-0.9-0.5-1.7-1.2-2.3-2c0.6,0,1.1-0.1,1.6-0.1c0.6,0,1.1-0.5,1.1-1.1c0,0,0,0,0,0
	l1.6-0.3c0.1,0.2,0.2,0.3,0.3,0.5c0.2,0.3,0.4,0.4,0.7,0.1c0.4-0.3,0.8-0.6,1.2-0.8c0.3-0.2,0.6-0.3,1-0.3c0.5-0.2,1.1-0.2,1.7-0.2
	c0.6,0.1,1.2-0.1,1.7,0c0.7,0.1,1.5-0.2,2.2,0.2c0.3,0.1,0.7,0.1,1,0c0.3-0.1,0.6-0.1,0.9-0.1c0.7,0.1,1.4,0.2,2.3,0.3l-0.7,0.6
	l0,0.1c0.2,0,0.5-0.1,0.7-0.2c0.9-0.4,0.9-0.4,1.3,0.4l3.1,0.7c-0.6,0.4-1,0.8-1.6,0.8c-0.3,0-0.7,0-1,0.1c-0.2,0-0.4,0-0.5,0
	c-1.5-0.3-3,0-4.5-0.2c-0.4,0-0.8,0.1-1.1,0.5l3.9-0.1l0.2,0.6c0.1,0,0.1,0.1,0.2,0.1c0.4,0,0.7-0.1,1-0.1c0.1,0,0.3,0,0.3-0.1
	c0.4-0.9,1.1-0.3,1.7-0.4c0,1.2-1.1,1.2-1.8,1.6c0.8,0.1,1.5,0.3,2.2-0.4c0.3-0.2,0.5-0.3,0.9-0.4c0.1,0,0.3,0,0.4,0
	c0.6,0.2,1.3,0,1.8-0.3c0.4-0.1,0.9-0.2,1.4-0.1c0.7,0,1.4,0.1,2.1,0.2c0.3,0,0.6,0,0.7,0.4c-0.7,0.3-1.4,0.6-2.1,1
	c-0.2,0.1-0.3,0.2-0.4,0.4c-0.3,0.7-1,1.1-1.8,0.9c-0.6-0.1-1.2-0.1-1.9-0.2l0.3,0.7c0.7-0.3,1.4-0.7,2.1-0.1
	c-0.2,0.6-0.6,0.9-1.2,0.9l-1.1,2c-0.5,0.1-0.8-0.4-1.3,0c0.5,0.5,1.4,0.1,1.8,0.8h-0.7v0.5l1.2-0.2l0.5,1.2l-2-0.4l-0.6,1
	c0.1,0,0.2,0,0.4,0c0.6-0.2,0.6-0.2,0.8,0.4c0.2,0.4,0.3,0.8,0.1,1.2l-1-0.1l0.4,1.3c0.2-0.1,0.5-0.1,0.8-0.1c0.1,0,0.3,0.2,0.4,0.2
	c-0.1,0.1-0.2,0.2-0.4,0.3c-0.1,0-0.2,0-0.2,0c-0.3-0.2-0.7-0.2-0.9,0c0,0,0,0-0.1,0.1c-0.1,0.1-0.6,0-0.9,0
	c0.1,0.4,0.4,0.2,0.7,0.2c0.3,0.1,0.5,0.2,0.8,0.4c-0.7,0.8-1.7,1-2.7,0.6l1.5,1l0.1,1.4l-0.9-0.3c0.6,0.8,1.5,1.3,1,2.4
	c-0.9,0.1-1.9-0.4-2.3-1.2c-0.1-0.2-0.5-0.3-0.8-0.5l-2.2-0.5c0.1,0.2,0.2,0.4,0.3,0.4C181.7,59.4,182.3,59.5,183,59.6z M184.3,57.7
	l-0.8-0.3l-0.2,0.3l0.5,0.7h0.5V57.7z M180.5,40.7c-0.8-0.2-1.7-0.1-2.4,0.2L180.5,40.7z M188.3,44.9v0.2l1.6-0.2
	C189.5,44.6,188.8,44.6,188.3,44.9L188.3,44.9z M181.9,57.4l-0.2,0.2l0.6,0.5l0.1-0.1L181.9,57.4z M181,60.9L181,60.9l0.6,0.1V61
	L181,60.9z M183.3,56.8c0.3,0,0.6,0,0.6-0.4L183.3,56.8z"/>
<path class="st3" d="M293.1,168.2c-0.3-0.4,0.3-0.3,0.2-0.6c-0.2-0.6,0-1.2-0.7-1.7c0.8-0.5,0.2-1.4,0.5-2.1
	c0.3,0.3,0.5,0.1,0.7-0.1c0.5-0.4,0.8-1.1,1.5-1.3l0.6-0.2c0.3-0.1,0.6-0.1,0.8-0.3c0.4-0.4,0.9-0.7,1.5-0.7c0.8-0.3,1.3-1,1.5-1.8
	c0.1-0.4,0-1,0.6-1.2l0.5,0.7v-1.2l0.6,0.1c0.3-0.7,0.8-1.4,1.4-1.9c0.6-0.6,0.8-0.5,1.3,0.1c0.1,0.1,0.2,0.3,0.3,0.4l1.2,0.3
	l-0.3-0.7l0.7-0.8c0-0.1,0.1-0.2,0.1-0.2c-0.3-0.4,0.1-0.6,0.3-0.7c0.3-0.1,0.6-0.2,0.9-0.2c0.2,0,0.5,0,0.7,0.1
	c0.3-0.7-0.5-0.6-0.6-1.1c0.5,0.2,0.9,0.4,1.4,0.5c0.7,0.1,1.4,0.2,2.1,0.3c0.1,0,0.3,0.1,0.4,0.2c0,0-0.1,0.2-0.1,0.4
	c0,0.2-0.1,0.3-0.2,0.4c-0.1,0.1-0.3,0.3-0.4,0.4l-0.4,1.5c0.4,0.3,0.8,0.5,1.2,0.8c0.7,0.5,1.3,1,1.9,1.5c0.4,0.4,0.3,0.4,1,0.3
	c0.2-0.6,0.4-1.1,0.5-1.7c0-0.4,0.1-0.9,0.1-1.3c0.1-0.8,0.1-1.7,0.2-2.5c0.1-0.4,0.2-0.8,0.3-1.2c0.8,1.2,1.5,2.2,1.2,3.6l0.7-0.2
	c0.5,0.3,0.8,0.9,0.7,1.6c0,0.2,0,0.4,0.1,0.5c0.5,0.7,0.7,1.4,0.6,2.2c0,0.3,0.2,0.6,0.5,0.7c0.3,0.1,0.6,0.2,0.9,0.4
	c0.3,0.2,0.7,0.4,0.6,0.9c0,0.1,0,0.2,0.1,0.3c0.4,0.3,0.6,0.9,0.4,1.4l0.5,0.2c0.3,0.1,0.5,0.4,0.5,0.7c0,0.4,0.2,0.7,0.4,0.9
	c0.4,0.4,0.8,0.9,1.1,1.5c0.1,0.3,0.2,0.6,0.1,0.8c-0.1,0.7,0,1.4,0.4,1.9c0.1,0.2,0.1,0.4,0.1,0.7c-0.1,0.7-0.2,1.3-0.3,2
	c0,0.9-0.4,1.7-1,2.3c-0.3,0.3-0.4,0.6-0.5,1c-0.2,0.5-0.4,1.1-0.5,1.6c-0.2,0.5-0.4,1.1-0.6,1.6c0,0.1,0.1,0.3,0.1,0.4
	c0.1,0.4-0.1,0.7-0.6,0.8h-0.9l-1.2,1.7c-0.4-0.6-1.2-0.8-1.1-1.8l-1.3,1.5c-0.3-0.2-0.5-0.4-0.8-0.6c-0.3-0.2-0.3-0.3-0.4-0.3
	c-0.7,0.1-1.1-0.4-1.4-0.8c-0.1-0.2-0.2-0.4-0.3-0.6c-0.1-0.5-0.2-1.1-0.3-1.7l-0.7,0.1c-0.1-0.5,0.1-1.1-0.5-1.5
	c-0.2,0.3-0.1,1-0.8,0.9l0.7-2l-0.1-0.1l-1.6,1.4c-0.2-0.2-0.4-0.4-0.5-0.7c-0.1-0.3-0.1-0.7-0.6-0.9c0,0,0-0.2-0.1-0.3
	c-0.1-0.2-0.2-0.4-0.3-0.6c-0.1-0.1-0.2-0.1-0.3-0.1c-0.8,0.3-1.2-0.7-1.9-0.5c-1.2,0.3-2.5,0.4-3.6,0.8c-0.6,0.3-1.2,0.6-1.7,1.1
	c-0.3,0.3-0.5,0.5-1,0.4c-0.4-0.1-0.8-0.1-1.2,0c-0.5,0.1-1.2-0.1-1.5,0.6c-0.7-0.1-1,0.7-1.8,0.6c-0.8-0.1-1.2-0.8-1.9-1.3l0.7-0.1
	c0.2-1,0.2-2-0.1-3c-0.1-0.4-0.1-0.8-0.2-1.2c-0.1-0.3-0.2-0.5-0.3-0.8c-0.3-0.8-0.7-1.5-1-2.2L293.1,168.2z"/>
<path class="st3" d="M141.9,47.7l2,0.2c-0.4,0.7-1,0.7-1.3,1.1c-0.5,0.6-1.1,0.3-1.7,0.4l-0.1,0.6l-1.1,0.2l1.2,0.8
	c-0.3,0.3-0.5,0.6-1,0.6c-0.2,0-0.4,0.1-0.6,0.3c-0.2,0.1-0.4,0.2-0.6,0.4l-0.2-0.9c-0.4,0-0.7,0.1-1.1,0.1c-0.4,0-1,0.2-1.4-0.1
	c-0.2,0-0.4,0-0.5,0.2c-0.2,0.5-0.6,0.4-1,0.3c-0.4-0.1-0.9-0.2-1.4-0.3c-0.2,0.1-0.5,0.3-0.5,0.3c-0.3-0.3-1.1,0.1-1.1-0.7
	c0.4-0.8,1.3-0.6,2-1l-0.7-0.7c0.8-0.5,1.8-0.3,2.4,0.3c0.4,0.4,0.8,0.1,1.1,0.3c0.1,0,0.3-0.2,0.5-0.4c-0.4,0-0.8-0.1-1.2-0.3
	c-0.3-0.2-0.3-0.5-0.1-0.8c0-0.1,0.1-0.1,0.1-0.1c-0.5,0.1-0.9,0.3-1.3,0.3c-0.4,0.1-0.8,0.1-1.2,0.1c-0.2-0.6-0.1-0.7,0.4-0.9
	c0.2-0.1,0.3-0.1,0.5-0.2c0,0,0-0.1,0.1-0.2c-0.6-0.4-1,0.2-1.4,0.3c-0.4,0.1-0.7,0.5-1.1,0.8c0,0-0.1,0.1-0.2,0.1
	c-0.6-0.3-1.2,0.4-1.9,0.1c-0.2-0.5-0.4-1.1-0.5-1.6c0.4,0.3,0.7,0.1,1-0.2l-1,0.2l-0.9,0.1l0-0.1l0.3-0.3c-0.7-0.2-1.2-0.8-1.2-1.6
	c0.1-0.8,0.8-0.5,1.4-0.7c-0.7-0.6-1.6,0-2.1-0.7c0.5-0.3,0.9,0,1.3,0c0-0.5,0-0.5-1.1-0.8c0.4,0,0.9,0,1.3,0c0.4,0,0.8,0.2,1.3,0.2
	c0.4,0,0.8,0.3,0.9,0.7c0.3,0.7,0.5,0.8,1.2,0.8c0.6-0.1,1.3-0.1,1.9,0.1c0.5,0.2,0.6,0.1,0.7,0.8c0.5,0,0.6-0.5,0.6-1
	c0.7,0,1.4-0.1,2-0.1c0.4,0,0.8,0.3,0.9,0.7c0.3,0.6,0.3,0.6,1.1,0.5c-0.8-0.2-0.8-0.2-0.9-1.1l3-0.3l-0.6-0.3l1.3-0.4l-0.2-0.3
	c-1.6,0.2-3.2,0.5-4.9,0.6c-0.4,0-0.7-0.1-1.1,0.2c-0.3,0.1-0.6,0.1-0.8,0c-0.6-0.2-1.2-0.3-1.7-0.2c-0.6,0-1.2,0-1.9,0v-0.4h-0.4
	l-0.1-0.1l0.8-0.4c-0.5,0-0.9,0-1.1-0.5c0.4-0.3,0.9-0.2,1.4,0c0.2-0.2,0.4-0.3,0.6-0.5c0.2-0.1,0.4-0.2,0.6-0.3
	c0.8,0.7,1.7,0.3,2.6,0.2c-0.6-0.3-1.4,0.3-2.1-0.5l1.3-0.2v-0.6c0.9,0.5,2,0.3,2.8,1.3l0.5-1c0.3,0.1,0.6,0.3,0.8,0.3
	c0.4-0.2,1,0.1,1.4-0.3c0.1-0.1,0.3-0.1,0.4-0.1c0.1,0,0.6,0,0.7-0.2c0.4-0.3,0.9-0.4,1.3-0.4c0.7,0.1,1.4-0.2,1.9,0.2
	c0.4-0.1,0.7-0.3,1-0.4c0.1,0,0.4,0,0.4-0.1c0.4-0.6,1-0.3,1.6-0.3c0.6,0,0.9,0,1.3,0s0.7,0,1.1,0.1l-0.2,0.6c0.1,0,0.2,0,0.3,0
	c0.3-0.5,1-0.6,1.5-0.4c1,0.3,2.1,0.7,3.3,1.1c-1.2,0.7-2.5,1.3-3.9,1.7l1.6-0.4c-0.4,0.6-1.1,1-1.8,1c-0.7,0-1.4,0.3-1.9,0.7
	c-0.4,0.3-0.9,0.2-1.3,0.5c-0.4,0.3-0.8,0.5-1.2,0.6c-0.2,0.1-0.4,0.1-0.5,0.3c-0.3,0.4-0.7,0.4-1.1,0.4s-0.8,0-1.2,0
	c-0.1,0-0.2,0.1-0.2,0.1c0.3,0.4,1.1,0,1,0.8c-0.2,0-0.3,0-0.4-0.1C142.9,47,142.4,47.4,141.9,47.7c-0.5-0.1-0.5-0.1-0.8,0.5
	L141.9,47.7z M137.2,47.9c-0.6-0.2-1.1,0-1.5-0.3l0.4-0.4c-0.6,0-0.6,0-1.5,0.7H137.2z M142.6,46.8c-0.2-0.5-0.4-0.1-0.6-0.1
	c0,0,0,0,0,0.1H142.6z M148.9,41.5L148.9,41.5l-0.7,0.1l0,0.2L148.9,41.5z"/>
<path class="st3" d="M148.3,60.7l-0.4,0.4l0.4,0.3l0.3-0.4c0.7,0.4,0.7,0.5-0.2,1.2l0.9,0.4c0,0,0,0.1,0.1,0.2l-0.7,0.1
	c0.1,0.5,0.1,0.5-0.2,0.9l1.9,1.3l0.8-0.3v0.4c0.7-0.2,0.7,0.3,0.8,0.8c0.4,0,0.8-0.2,1,0c0.4,0.4,0.6,0,1-0.2l0.5,0.7l-0.4,0.7
	l-0.4-0.3l-0.6,1.3l-0.3,0.1l0.1,0.7c-0.1,0-0.2,0.1-0.3,0.1c-0.4-0.1-0.8-0.3-1.1-0.6c-0.1-0.2-0.3-0.3-0.4-0.4
	c-0.6-0.2-1.1-0.7-1.4-1.3c-0.1,0.3-0.3,0.5-0.3,0.7c0.1,0.5-0.4,0.1-0.5,0.4c0.8,0.4,1,1.6,2.1,1.6c0.3,0,0.5,0.5,0.3,0.8
	c-0.3,0.4-0.2,0.8,0,1.3c-0.5-0.4-0.9-0.7-1.6-0.6c-0.6,0-1.3-0.1-1.9-0.3c0.8,1.1,1.9,1.3,2.8,1.9l-0.1,0.6
	c-1.5-0.7-3.1-0.2-4.7-0.6l0.6-0.5c-0.8,0-0.8,0-1.3-0.9c-0.2-0.3-0.5-0.6-0.9-0.7c-0.1,0-0.2-0.1-0.2-0.1c-0.4,0.4-1,0.2-1.4,0.5
	c-0.2,0.3-0.6,0.4-1,0.3c-0.6-0.2-0.7-0.3-0.6-1c0.1-0.3,0.1-0.6,0.2-0.8l3.8-0.5l-1-1.4l0.7-0.8c0.2-0.2,0.5-0.4,0.3-0.8
	c0-0.1,0.2-0.4,0.4-0.6c-0.1-0.3-0.2-0.5-0.3-0.7c-0.1-0.3-0.2-0.6-0.4-0.7c-0.5-0.2-0.3-0.5-0.1-1l-1.1,0.7
	c-0.5-0.5-0.5-0.5-0.1-1.1c-0.3-0.3-0.6-0.6-0.9-1c-0.2-0.3-0.5-0.3-0.8-0.1l-0.3-0.6c-0.1,0-0.1-0.1-0.2-0.1
	c-0.6,0.1-1.2,0.1-1.8,0c-0.1,0-0.2,0-0.3,0l-0.5,0.1l0.5,1.1l-1.1-0.7l0.1,0.4l-3.4-0.4l-0.6-0.7l-0.5,0.2
	c-0.3-0.2-0.6-0.4-0.8-0.7c-0.1-0.1,0.1-0.3,0.2-0.5c-0.9,0.3-1.2-0.4-1.7-1c0.4-0.8,0.9-1.7,1.4-2.6c0.3-0.5,0.8-0.4,1.3-0.5
	c0.7-0.1,1.3-0.1,2,0c0.2,0,0.4,0.2,0.6,0.3c0.6-0.4,1.3-0.4,1.9,0c0.5-0.3,0.9-0.7,1.5-0.4c0.1,0,0.3,0,0.4-0.1
	c0.8-0.2,0.9-0.1,1.2,0.7c0.1,0.2,0.1,0.3,0.2,0.5l-1,0.3c0.7,0.3,1.2,0.5,1.8,0.7c0.2,0,0.5,0,0.7,0c0.4,0,0.8,0,1,0.5
	c0.1,0.4,0.5,0.7,0,1.1c0,0,0.1,0.2,0.2,0.4l0.4-0.5l0.3,0.5l0.7-0.5c0.1,0.4,0.7,0.3,0.6,0.8v0.1c0.5-0.4,0.7,0.3,1.1,0.3
	C147.6,60.4,148,60.5,148.3,60.7z M135.5,58.1v-0.2c-0.1,0-0.2,0-0.3,0c-0.3-0.1-0.4-0.4-0.3-0.7c0-0.1,0.1-0.2,0.1-0.2l0.9-0.9
	c-0.8,0-1.4,0.2-1.6,0.7c-0.3,0.7-0.3,1.4,0.1,2.1c0.1,0.2,0.2,0.4,0.3,0.7l0.4,0.1l0.1-0.8l-0.7-0.6L135.5,58.1z M148.2,67
	c-0.3-0.8-1.2-0.5-1.7-1.2c-0.5,0.7,0,1.2,0.2,1.6L148.2,67z M138.1,58.9c0.6,0,0.1-0.5,0.4-0.6c0.3-0.2,0.4-0.4,0.8-0.2
	c0.2,0.1,0.4,0.2,0.6,0.4l0.3-0.4l0.7,0.2c-0.8-1-1.9-0.5-2.8-0.7V58.9z M146,68.9V70l0.8-0.1l-0.2-0.9L146,68.9z"/>
<path class="st3" d="M112.1,63.7c-0.1-0.6-0.4-0.8-1-0.8c-0.5,0-0.9-0.2-1.2-0.6c-0.3-0.3-0.3-0.5-0.1-0.9c1.1,0.1,2.1-0.5,3.2-0.3
	c0.4,0.1,0.8-0.1,0.9-0.5c0,0,0,0,0,0c-0.3-0.1-0.5-0.1-0.8-0.2c-0.4,0-0.8,0-1.2,0c-0.8,0-1.6,0.1-2.4,0.1c-0.2,0-0.5-0.1-0.7-0.2
	v-0.2l1.7-0.6v-0.1l-1.9,0.3l0.1-0.5h-1c0.1-0.2,0.2-0.4,0.3-0.6c0.3-0.3,0.6-0.7,0.8-1.1c0.1-0.3,0.7-0.6,1.1-0.7
	c0.5,0,1-0.3,1.4-0.6c0.2-0.2,0.4-0.4,0.7-0.1c0.1,0.2,0.2,0.4,0.2,0.6c0,1,0.1,1.1,1.1,1.4l0.1-1.5c0.6,0.1,1.1,0.4,1.4,1l0.7-0.8
	c0.6,0,0.8,0.4,1,0.8c0.1,0.4,0,0.8-0.1,1.2l0.2,0.1l0.6-0.8h1c0.4,0,0.8,0.2,0.9,0.7c0.3,0.6,0.6,1.2,1,1.7c0.2,0.4,0.5,0.3,0.8,0
	c0.4,0.8,1,0.8,1.9,0.7l0.1,1.2l-1.1-0.7l0.2,1.1c-0.9,0.6-1.3,0.7-3.3-0.2l0.1-0.5c-0.1,0-0.2-0.1-0.2,0c-0.9,0.6-1.8,1.1-2.8,1.4
	c-0.4,0.1-0.8,0.2-1.2,0.2c-0.2,0-0.5,0-0.7,0C113.2,64,112.6,64,112.1,63.7z M120.7,62l-0.1,0.2c0.2,0.2,0.3,0.6,0.9,0.3L120.7,62z
	"/>
<path class="st3" d="M316.9,149.7c-0.3,0.4-0.5,0.9-0.8,1c-0.6,0.1-1.2,0.1-1.8,0c-0.1,0-0.3-0.2-0.3-0.3c-0.2-0.7-0.7-0.6-1.2-0.5
	c-0.3,0-0.5,0.1-0.8,0.2l-0.1-0.2l0.9-0.7c0-0.1-0.1-0.3-0.1-0.5c-0.1-0.4-0.2-0.7-0.3-1.1s-0.2-0.6-0.3-0.6c-0.8-0.1-1.3-1-2.2-1
	c-0.3,0-0.5-0.1-0.6-0.4c-0.3-0.5-0.6-0.5-1.1-0.2l-0.7-1l1.1-0.3v-0.2c-0.8,0.2-1.3-0.4-1.9-0.7c0.1-0.2,0.2-0.4,0.3-0.5
	c0.7-0.5,1.4-0.3,2.2-0.1c-0.1,0.4-0.1,0.9,0,1.3c0.2,0.4,0.4,0.7,0.7,1.1c0.6,0,0.7-0.5,1-0.8c0.3-0.3,0.6-0.5,1-0.7
	c0.7,0.4,1.4,0.7,2.2,0.8c0.2,0,0.4,0.3,0.7,0.4c0.5,0.2,1.1,0.5,1.6,0.7s1.1,0.6,1.6,0.9c0,0,0,0,0,0.1c0.4,0.8,1,1.3,1.8,1.6
	c0.3,0.1,0.3,0.5,0,0.8c-0.3,0.2-0.4,0.7-0.2,1c0,0,0.1,0.1,0.1,0.1c0.4,0.5,0.8,1,1.2,1.4l1.1,1.2c-0.8,0-1.6-0.2-2.3-0.6
	c-0.4-0.4-0.9-0.7-1.1-1.3c-0.1-0.2-0.2-0.3-0.4-0.3C317.8,149.8,317.3,149.8,316.9,149.7z"/>
<path class="st3" d="M360,67.4l0.2-0.3c-0.1-0.1-0.1-0.1-0.1-0.1c-0.4,0-0.9-0.1-1.3-0.2c-0.4-0.3-0.7-0.6-1-0.9
	c-0.2-0.2-0.5-0.3-0.8-0.5v-1l1.4-0.1c0.5,0,1-0.2,1.1-0.8c0.1-0.3,0.2-0.6,0.3-0.8c0.5-0.8,0.7-0.9,1.9-1v15.6l-1.2,0.6l-0.7-1.8
	l-1,0.4c-0.3-0.5-0.6-0.8-0.8-1.3c-0.1-0.1,0.1-0.3,0.1-0.5c0.1,0,0,0,0,0c-0.9-0.3-1-0.8-0.4-1.5c0.3-0.2,0.5-0.4,0.8-0.6l-0.4-0.6
	c0.1-0.1,0.1-0.1,0.2-0.1c0.1,0,0.3-0.1,0.3,0c0.8,0.7,1.3-0.1,1.9-0.2c0.2-0.1,0.5-0.6,0.4-0.7c-0.2-0.4-0.2-0.8,0-1.2
	c-0.8,0-1.4,0.5-2.1,0.3c-0.7-0.1-1.3-0.2-2-0.1l-1.1-1.5c0.1-0.5,0.7-0.4,1.1-0.4c0.2-0.8,0.9-0.8,1.6-1l0.1,1
	c0.6,0.1,1.2,0.4,1.8,0l-0.4-0.4h1v-0.2L360,67.4z"/>
<path class="st3" d="M296.1,137.6c0.1,0.7,0.2,1.4,0.3,2.1c0.2,0.3,0.4,0.7,0.6,0.9l-0.7,0.4c0,0.8-0.2,1.6-0.5,2.3
	c-0.1,0.2-0.1,0.6-0.3,1c-0.3,0.5-0.7,0.8-1.3,1c-0.5-0.3-1.1-0.4-1.6-0.2c-0.3,0.1-0.6,0.1-0.8-0.2c-0.1-0.1-0.3-0.2-0.5-0.1
	c-0.4,0.1-0.7-0.1-0.8-0.5c-0.1-0.3-0.1-0.5-0.2-0.8c0-0.2-0.1-0.3-0.2-0.5c-1-0.8-1.1-2.3-0.2-3.3c0,0,0,0,0.1-0.1l1.1,0.4
	c0.1-0.1,0.3-0.3,0.3-0.5c0-0.5,0.3-0.8,0.8-0.9c0,0,0.1,0,0.1,0c0.4,0,0.8-0.2,1-0.7c0.2-0.4,0.6-0.8,1-1c0.3-0.2,0.8-0.3,0.6-0.9
	c0,0,0.1-0.2,0.2-0.3l0.8-1.1c0.5,0,0.9,0.4,1,0.8c0.1,0.3,0.6,0.5,0.8,0.8c-0.2,0.4-0.8,0.4-0.7,1
	C296.6,137.5,296.4,137.6,296.1,137.6z"/>
<path class="st3" d="M241.8,154c0.3,0.3,0.6,0.7,0.7,1.1c0.4,1.5,0.4,1.6,0.1,2.3l-0.3-0.2c0,0-0.1,0.1-0.1,0.1c0.4,1.1-0.1,2-0.4,3
	c-0.2,0.6-0.4,1.2-0.5,1.7c-0.2,0.8-0.4,1.6-0.7,2.4c-0.2,0.6-0.4,1.1-0.5,1.7c-0.2,0.6-0.7,0.9-1.3,1c-0.5,0-0.9-0.3-1.1-0.6
	c-0.4-0.8-0.7-1.6-0.9-2.5c-0.1-0.8,0.2-1.5,0.7-2.1c0.4-0.4,0.5-0.9,0.2-1.4c-0.1-0.2-0.1-0.5-0.2-0.8c-0.3-0.9,0.2-1.9,1.1-2.2
	c0,0,0,0,0,0l0.5-0.2c0.4-0.1,0.8-0.3,1-0.7c0.2-0.3,0.7-0.4,0.6-0.9c0,0,0-0.1,0-0.1c0.1-0.3,0.7-0.2,0.6-0.7c0-0.3,0.1-0.7,0.1-1
	L241.8,154z"/>
<path class="st3" d="M248.8,61l-0.9-0.1c-0.2,0.3-0.5,0.4-0.8,0.4c-0.6,0-1.1,0-1.7,0c0-0.4,0-0.8,0.7-1c-0.5-0.2-1-0.1-0.9-0.7
	l-1.3,0.3c-0.4-0.9-0.4-1,0.4-1.2l0.3-1.5l0.7-0.3c0-0.4,0.1-0.8-0.5-1c0.8-0.5,1.5-1.1,2.1-1.7c0.3-0.3,0.7-0.5,1.1-0.5
	c0.6-0.1,1.1-0.3,1.6-0.6c0.6-0.2,1.1-0.4,1.8-0.6c0.3-0.4,0.3-0.5,0.9-0.2c0.6,0.3,1.1,0,1.7-0.2c0.6-0.2,1.2-0.5,1.8-0.8
	c0.5-0.2,0.7-0.2,0.9,0.2s0.2,0.6-0.3,0.8c-0.4,0.2-0.8,0.4-1.3,0.5c-1,0.3-2,0.4-3,0.7c-0.2,0.1-0.4,0.1-0.6,0.2
	c-0.6,0.4-1.3,0.7-1.9,0.9c-0.1,0-0.2,0.1-0.3,0.2c-0.7,0.6-1.2,1.2-1.7,1.9c-0.5,0.9-1,1.9-0.4,2.9c0.3,0.5,0.5,0.7,1.4,1L248.8,61
	z"/>
<path class="st3" d="M199,77.8c0.2-0.1,0.4-0.1,0.6-0.1c0.2,0,0.4,0.1,0.6,0.1c-0.1,0.2-0.1,0.4-0.2,0.6c-0.2,0.3-0.4,0.5-0.6,0.7
	l2-0.1c-0.3,0.6-0.5,1-0.6,1.3c-0.1,0.3-0.1,0.6-0.1,1c0.5,0.4,0.9,0.9,1.1,1.4c0.1,0.3,0.5,0.6,0.7,0.8s0.6,0.3,0.5,0.8
	c0,0.3,0.2,0.6,0.3,0.9c0.3,0,0.5,0,0.8,0.1c0.1,0,0.2,0.1,0.2,0.2c0.1,0.8-0.4,1.1-1.1,1.4l0.6,0.4c-0.2,0.3-0.5,0.5-0.8,0.5
	c-0.6-0.1-1.2,0-1.8,0.2c-0.1,0-0.3,0-0.4,0l-0.7,0.1c-0.1,0-0.3,0.2-0.4,0.1c-0.4-0.1-0.8,0.1-1.1,0.4c0,0.1-0.3,0-0.5,0
	c0.3-0.5,0.6-0.9,1-1.3c0.2-0.2,0.6-0.2,1-0.2c0.3,0,0.6,0,0.5-0.5c-0.5,0.1-1.1,0.1-1.6,0.1c-0.1,0-0.3-0.1-0.3-0.2
	c0-0.1,0-0.3,0.1-0.3c0.2-0.2,0.4-0.3,0.5-0.4c0.1-0.2,0-0.4-0.2-0.4l0.2-1l1,0.2l0.2-1c-0.2-0.3-1-0.2-0.4-0.9l-1.4,0.1v-1.5
	l-0.5-0.1l0.2-0.4C197.7,79.8,198.6,78.8,199,77.8z"/>
<path class="st3" d="M285.1,142.4l0.8,0.3c0.1,0.5,0.1,1,0.8,1.2c0.2,0.1,0.4,0.7,0.4,1c0,0.6-0.1,1.1-0.2,1.6l-0.8,0.3
	c-0.1,0-0.3,0-0.3,0c-0.6-0.5-1.4-0.7-1.7-1.7c-0.4-1-0.8-1.9-1.4-2.8c-0.3-0.4-0.5-0.8-0.8-1.1c-0.2-0.2-0.3-0.4-0.4-0.7
	c-0.2-0.6-0.1-1.2-0.9-1.4c-0.3-1-1.2-1.6-1.8-2.4c-0.3-0.3-0.4-0.8-0.3-1.2c0.2,0,0.4,0,0.6,0.1c0.1,0,0.3,0.2,0.4,0.2
	c1.2-0.2,1.5,0.8,2.1,1.4l0.6,0.6c0.1,0.1,0.2,0.1,0.3,0.2c0.2,0.8,0.9,1.1,1.4,1.6c0.2,0.2,0.4,0.4,0.6,0.5c0.8,0.3,1.1,1.2,0.8,2
	C285.1,142.4,285.1,142.4,285.1,142.4z"/>
<path class="st3" d="M130.6,51.6l0.7,0.4l-0.6,0.4c0,0,0.1,0,0.1,0c0.2,0,0.4,0.1,0.6,0.1c0.5,0.3,1.1,0.4,1.6,0.4
	c0.8-0.1,1.7-0.2,2.5-0.4c0.7-0.1,1.4-0.1,2.1,0.2c0.2,0.1,0.4,0.1,0.6,0.1c0.5,0,0.9,0.3,1.2,0.7l-0.8,1.2
	c-0.3,0.1-0.6,0.1-0.9,0.1c-1.2-0.1-2.3,0.1-3.5,0.1c-0.5,0-1.1,0-1.6,0c-0.5,0-0.5,0-0.9-0.5c-0.5,0.8-1.4,0.4-2.2,0.6
	c0-0.5,0-1,0-1.5c0.1-0.4,0.1-0.8-0.2-1c-0.3-0.3-0.7-0.4-1.2-0.5c-0.8,0.1-1.6-0.2-2.1-0.9c0.1-0.5,0.4-0.5,0.8-0.4
	c0.4,0.1,0.7,0.1,1,0.2c0.2,0.1,0.4,0.1,0.5,0.2c0.2,0.1,0.4,0.3,0.5,0.2C129.5,51.3,130.1,51.3,130.6,51.6L130.6,51.6z"/>
<path class="st3" d="M314.4,98.9c0.3,0.3,0.6,0.6,0.9,1c0.5,0.7,0.4,1.7-0.3,2.3c-0.1,0.1-0.2,0.2-0.2,0.3c0.1,0.9-0.4,1.8-0.1,2.7
	c0,0.3-0.1,0.6-0.2,0.8c-0.4,0.3-0.5-0.3-0.8,0.1l-0.3,0.5c-0.2,0-0.4,0-0.6,0c-0.4,0.2-0.8,0.1-1.2-0.1c-0.2,0.3-0.4,0.6-0.7,0.9
	c-0.1,0.1-0.5,0.3-0.6,0.2c-0.1-0.2-0.2-0.4-0.3-0.7c0-0.1,0-0.2,0.1-0.4l-0.7-0.1l0.4,0.8c0,0.6-0.5,0.6-0.9,0.7l-0.3,0.8l-0.6-0.9
	c0.2-0.5,0.6-0.8,1.1-1c-0.8-0.1-1.5,0.5-2.2,0.1c0.6-0.1,1.1-0.5,1.5-1c0.1-0.1,0.2-0.2,0.4-0.2c0.3-0.1,0.6-0.2,1-0.2
	c0.3,0,0.6,0.1,0.8,0.2l0.7-1.9l0.2,0.5c0.5-0.2,1-0.4,1.2-0.9c0.2-0.5,0.6-0.8,0.9-1.2c0.3-0.5,0.4-1,0.4-1.5
	C314,100,314.1,99.4,314.4,98.9z"/>
<path class="st3" d="M103.8,55.3c0.8-0.2,1.5-0.5,2.3-0.7c0.2,0,0.3,0,0.5,0.1c0.7,0.4,1.5,0.6,2.3,0.5c0.8-0.1,1.6,0.3,2.1,1
	c0,0.3-0.3,0.3-0.6,0.3c-1,0.1-1.8,0.6-2.5,1.3c-0.2,0.2-0.3,0.4-0.4,0.6c-0.4,0.9-0.7,1.1-1.8,0.8c-0.1,0.2-0.3,0.4-0.4,0.6
	c-0.2,0.2-0.6,0.2-0.8,0c0,0-0.1-0.1-0.1-0.1l-0.9-1C103.9,57.6,104,56.4,103.8,55.3z"/>
<path class="st3" d="M216.2,49.3l-1.6-0.8c-0.3,0.1-0.7,0.7-1.3,0.6c-0.3-0.3-0.5-0.7-0.6-1.1c-0.1-0.4,0-0.7-0.2-1.1
	c0,0,0.2-0.3,0.3-0.3c0.4-0.1,0.7-0.1,1.1-0.2l-0.1,0.8c0.7-0.7,0.7-0.7,1.5,0.3c0-0.6,0.3-1.1,0.7-1.4c0.3,0.1,0.7,0.2,1,0.4
	c0.4,0.3,0.8,0.7,1,1.2c0.1,0.5,0.6,0.8,1.1,0.8c0.1,0.1,0.3,0.1,0.4,0.2c-0.3,0.1-0.5,0.2-0.7,0.2c-0.4,0.1-0.6,0.3-0.6,0.8
	c0,0.3-0.1,0.7-0.3,0.9c-0.4,0.3-0.6,0.9-1.2,0.9c-0.1,0-0.2,0.2-0.2,0.3c-0.2,0.4-0.4,0.5-0.6,0.1c-0.2-0.4-0.8-0.5-1.3-0.7
	s-0.4-0.1-0.5-0.7h0.7l0.3-0.7l-1.2,0.1l-0.1-0.5c0.5-0.1,0.9-0.2,1.3-0.2C215.4,49.3,215.8,49.3,216.2,49.3L216.2,49.3z"/>
<path class="st3" d="M184.1,69.5l1-0.5v-0.5l-1.2,0.2l0.7-1.1l0.7,0.4l-0.2-0.5c0.7-0.1,0.8,0,1,1.3l0.8-1.1c0,0,0.1,0,0.1,0.1
	c0.1,0.1,0.1,0.1,0.1,0.2l0.8-0.6l0.2,0.5c0.6-0.4,1.5,0.1,1.9-0.8c1,0.4,1,0.4,1.1,1.1c0.1,0,0.2,0.1,0.4,0.1l0.4,0.2l0.1,0.7
	c-1.1,0.6-1.9,1.7-3.3,1.4c-0.2,0.1,0.1,0.6-0.4,0.6s-1,0.3-1.3-0.2c-0.3-0.4-0.9-0.4-1.4-0.4c-0.2,0-0.4,0-0.6,0l0-0.2l0.6-0.4
	C185.1,69.6,185.1,69.6,184.1,69.5z"/>
<path class="st3" d="M141.7,223.5c0.4-0.6,1.2-0.8,1.8-0.5c0.9,0.4,1.4-0.3,2-0.5c0.1,0,0.2-0.4,0.2-0.6c0-0.4-0.1-0.8-0.3-1.2
	c-0.3-0.7-0.2-1,0.5-1.4c0.2-0.1,0.3-0.1,0.5-0.2c0.1,0.1,0.2,0.3,0.2,0.4c0.3,0.9,0.5,1.8,0.8,2.7c0.2,0.6,0.3,1.2,0.2,1.9
	c-0.1,0.3-0.1,0.6-0.2,0.8C145.6,226.2,143,225.5,141.7,223.5C141.8,223.5,141.8,223.5,141.7,223.5z"/>
<path class="st3" d="M340,183.6l0.4,0.8h0.9c0,0.9-0.4,1.7-1,2.3c-0.2,0.3-0.3,0.3-0.2,0.8l-1.3,0.5c-0.1,0.9-0.6,1.6-1.2,2.3
	c-0.3,0.3-0.7,0.4-1.1,0.2l-1.6-0.6c0.3-1.1,1.1-2,2.2-2.4c0.8-0.3,1.4-1,1.6-1.7c0.2-0.5,0.7-1,0.6-1.6
	C339.5,184.1,339.8,183.9,340,183.6z"/>
<path class="st3" d="M111.8,54.7c0.7-0.6,1.6-0.9,2.5-1c-0.4-0.3-0.8-0.4-1.3-0.3c-0.4,0.1-0.7,0.1-1.1,0.2l-0.2-0.9
	c-0.1,0.3-0.1,0.4-0.1,0.5c-0.1,0.5-0.1,0.5-0.7,0.4c-0.4,0-0.8-0.1-1.2-0.2l0.5-0.4l-0.4-0.2l0.6-0.3l-0.2-0.6
	c0.7-0.3,1.6-0.3,2.3,0c0.5,0.3,1,0.5,1.6,0.7c0.5,0.1,1.1,0.1,1.6,0.1c-0.3-0.3,0-0.8-0.5-1c-0.1,0-0.1-0.3-0.1-0.4
	c0-0.3,0.1-0.6,0.1-0.8c0.3-0.2,0.5,0,0.5,0.3c0,0.5,0.5,0.6,0.8,0.8c0.1,0.1,0.3,0,0.5-0.1c0,0.4,0.2,0.8,0.6,0.9l0.1-0.7
	c0.3,0,0.5,0.2,0.5,0.5c0.1,0.4,0.1,0.7,0.1,1.1c0,0.1-0.3,0.3-0.5,0.3c-0.5,0.2-1.1,0.3-1.6,0.2c-0.6-0.1-1.1,0-1.6,0.1
	c-0.3,0-0.7,0.2-0.9,0.4c-0.4,0.4-0.9,0.6-1.4,0.5C112.2,54.9,112,54.8,111.8,54.7z"/>
<path class="st3" d="M52.4,182.9c0.5,0.3,0.6,0.9,1.2,0.9c0.3,0,0.3,0.5,0.2,0.7c-0.2,0.4-0.5,0.8-0.8,1.3c-0.2,0.4-0.3,0.6-0.5,1
	c-0.7,0-1.1,0.5-1.3,1.2c-0.3,0.6-0.6,1.1-1,1.6c-0.3,0.4-0.7,0.3-1.1,0.1c-0.2-0.1-0.4-0.2-0.5-0.3c-0.3,0-0.6,0.1-0.7-0.3
	c-0.1-0.4,0-0.8,0.3-1.1c0.5-0.4,1-0.8,1.5-1.2c1.1-0.6,1.9-1.5,2.4-2.7c0.1-0.2,0-0.4,0.1-0.6C52.2,183.4,52.3,183.2,52.4,182.9z"
	/>
<path class="st3" d="M300.5,146.2c-0.4-0.2-0.6,0.1-0.8,0.6c-0.6-0.6-0.5-1.4-0.9-2.1c-0.1,0.2-0.3,0.3-0.3,0.4
	c-0.1,0.6-0.1,1.2-0.2,1.8l-0.8,0.1c-0.2-0.3-0.2-0.8,0-1.1c0.2-0.2,0.2-0.6-0.1-0.8c-0.4-0.3-0.3-0.7-0.2-1c0-0.3,0.1-0.7,0.2-1
	c0.2-0.6,0.3-1.3,0.4-1.9c0-0.6,0.8-0.9,1.4-0.7c0.8,0.4,1.8,0.3,2.5-0.4c0.1-0.1,0.2-0.1,0.3-0.2c0,1-0.6,1.4-1.4,1.3
	c-0.8-0.1-1.4-0.1-2-0.1c-0.3,1-0.3,1,0.2,1.5l1.7-0.1l0,0.8l-1.6,0.4C299.7,144.5,300.2,145.4,300.5,146.2L300.5,146.2z"/>
<path class="st3" d="M125.3,56.4l-0.8,0.3l1,0.9l0.5-0.2c0.1,0.3,0.2,0.5,0.1,0.7c0,0.3-0.2,0.6-0.4,0.9c-0.6,0.3-1.2,0.6-1.8,0.9
	l-1.6-1.6c-1,0.2-1.4-0.1-1.5-1.2c0.6,0.1,1.2,0.8,1.9,0.3l0.1-0.5l-0.8-0.3c0.2-0.8,0.3-0.8,0.9-0.7c0.5,0.1,0.8-0.4,1.2-0.5
	c0.2,0,0.3-0.2,0.4-0.3c0.1,0.2,0.2,0.5,0.3,0.6C125,55.8,125.4,55.9,125.3,56.4z"/>
<path class="st3" d="M218.3,46.1c0.5-0.1,0.5-0.6,0.7-1l2.5,1.1l0.9-0.6l0.2,0.5c0.8-0.8,1.5,0.2,2.3,0c-0.1,0.7-0.7,1-1.1,1.3
	c-0.2,0.2-0.5,0.2-0.7,0.5c-0.1,0.1-0.4,0.1-0.6,0.1c-0.7-0.1-1.4-0.2-2.1-0.3c-0.4-0.1-0.8-0.1-1.2-0.1s-0.3,0-0.5-0.4l1.2-0.2
	v-0.2c-0.3-0.1-0.7-0.1-1,0c-0.3,0.2-0.7,0.1-1-0.2L218.3,46.1L218.3,46.1z"/>
<path class="st3" d="M160.8,91c-0.1,0-0.3-0.1-0.4,0c-0.3,0.2-0.5,0.5-0.8,0.7l-0.2-0.9c-0.8,0-1.5,0-2.2,0c-0.3,0-0.6,0.1-0.8,0.1
	c-0.1,0-0.3,0-0.4-0.1c0-0.1,0-0.3,0.1-0.4c0.2-0.2,0.5-0.4,0.2-0.7l0.8-0.6c0-0.1-0.1-0.2-0.1-0.3c0-0.4,0.1-0.7,0.2-1.1
	c0-0.7,0.6-1.2,1.3-1.2c0,0,0,0,0.1,0c0,0.7-0.8,1.2-0.7,1.9c0.7-0.3,0.7-0.3,1,0.4l1.6-0.1c-0.1,0.5-0.2,0.9,0.2,1.2l0.7-0.1
	C160.8,90.3,161.2,90.8,160.8,91L160.8,91z"/>
<path class="st3" d="M340.2,177.4c0.9,0.3,1.5,0.5,1.5,1.5c0.1,0.4,0.2,0.8,0.3,1.2l0.5-0.4c0.1,0.1,0.2,0.3,0.2,0.4
	c0.2,1,0.5,1.1,1.4,0.8c0.2,0,0.3,0,0.5,0c0,0.2,0,0.4,0,0.5c-0.2,0.4-0.3,1-0.8,1.1c-0.1,0.1-0.2,0.2-0.2,0.3
	c0,0.8-0.7,1.2-0.9,1.9c0,0.1-0.1,0.1-0.2,0.2l-0.8-0.3c0.1-0.4,0.5-0.9,0.1-1.3c-0.3-0.3-0.7-0.6-1-0.9c0.1-0.1,0.3-0.2,0.4-0.3
	c0.4-0.3,0.6-0.9,0.5-1.4c-0.1-0.7-0.3-1.4-0.7-1.9C340.7,178.4,340.4,177.9,340.2,177.4z"/>
<path class="st3" d="M279.6,44.3c0.5,0.4,1,0.8,1.5,1.2c0.1,0.1,0.1,0.4,0.1,0.6l0.8,0.8l0.3-0.3l0.5,0.6c0,0.1-0.1,0.2-0.1,0.3
	c-0.6,0.6-1.5,0.9-2.3,0.6c-0.8-0.2-1.6-0.4-2.5-0.6l1.8-1.2c-0.4,0.1-0.8,0.1-1.2,0.1c-0.4-0.1-0.8-0.2-1.2-0.4
	c0.5-0.2,0.9-0.5,1.2-0.9C278.6,44.7,279.2,44.6,279.6,44.3z"/>
<path class="st3" d="M104.7,52.7l-0.7-0.8c1-0.7,1.9-1.3,2.9-1.9c0.6-0.3,1.3-0.4,1.9-0.1c0.6-0.7,0.8-0.8,1.1-0.6
	c0.5,0.3,0.5,0.6,0.1,1.4l-0.5-0.1c0.2,0.8-0.6,0.7-0.9,1.1c-0.6-0.1-0.2-0.6-0.3-1c-0.5,0.6-0.9,1.1-1.3,1.6
	c-0.2,0.3-0.4,0.3-0.7,0.2C105.9,52.5,105.3,52.5,104.7,52.7z"/>
<path class="st3" d="M53.5,181.6c0.6-0.4,1-1.1,0.9-1.9c0-0.4-0.4-0.8-0.2-1.2c0,0-0.1-0.1-0.1-0.2c-0.2-0.2-0.4-0.4-0.5-0.7
	c-0.1-0.3-0.2-0.6-0.3-0.8c1.4,0.3,1.1,1.4,1.4,2.4l0.7-0.2c0.1,0.3,0.2,0.6,0.2,1c0.5,0.4,1.3,0.4,1.8,0c0.1,0.6-0.1,1.3-0.6,1.7
	c-0.2,0.2-0.4,0.4-0.5,0.7c-0.3,0.6-0.7,1.2-1,1.8l-0.7-0.2c0.1-0.4,0.1-0.9,0-1.3C54.3,182.2,53.9,182,53.5,181.6z"/>
<path class="st3" d="M198,82.6l0.3,0.9c-0.2,0.2-0.5,0.4-0.7,0.6c-0.1,0.3-0.1,0.6,0,0.8c0.2,0.5,0,1-0.4,1.2
	c-0.4,0.3-0.8,0.6-1.2,0.8c-0.4,0.2-0.8,0.1-1.2-0.1c-0.2-0.1-0.2-0.3-0.2-0.5c0,0,0-0.1,0.1-0.1c0.1-0.2,0.3-0.4,0.4-0.6
	c0.1-0.2,0.2-0.4,0.3-0.6l-0.7-0.3c0-0.5,0.9-0.5,0.3-1.1c0.2,0,0.4-0.1,0.6-0.1c0.4,0,0.5-0.3,0.6-0.5c0.1-0.2,0.1-0.5,0.3-0.5
	c0.2-0.1,0.5-0.1,0.7,0C197.5,82.5,197.7,82.5,198,82.6z"/>
<path class="st3" d="M294.1,149.9c-0.2,0-0.4,0.1-0.6,0c-1.1-0.5-2.4-0.4-3.5-0.9c-0.1,0-0.3,0-0.4,0c-0.8,0.2-1.5-0.4-2.2-0.5
	c-0.3,0-0.4-0.6-0.9-0.3l0.5-1.1c0.5,0,1,0,1.5,0c0.3,0,0.5,0.2,0.8,0.3c0.4,0.1,1,0.4,1.3,0.3c0.5-0.2,1-0.1,1.5,0.1
	c0.1,0,0.3,0.1,0.4,0.1l0.2,0.9l1,0.1L294.1,149.9L294.1,149.9z"/>
<path class="st3" d="M316.4,85.2c0.1-0.4-0.4-0.9,0.2-1.1c0.1,0,0.1,0.1,0.1,0.1c0,0.9,0.4,1.6,0.3,2.5c-0.1,0.7-0.1,1.4,0,2
	c0,0.2,0.2,0.3,0.3,0.4c0.2,0.2,0.3,0.5,0.4,0.8l-0.2-0.2c-0.4-0.3-0.7-0.2-0.8,0.2c-0.2,1-0.6,1.9,0.1,2.9c0.1,0.1,0.1,0.4,0.2,0.7
	l-0.8-0.7l-0.5,0.4c0-0.2,0-0.3,0-0.5c0.1-1.6,0.2-3.2,0.1-4.9c0-0.5-0.1-1-0.1-1.5C315.6,86.1,315.8,85.5,316.4,85.2z"/>
<path class="st3" d="M121.4,52.7h0.7l-0.4-1.3l0.2-0.1c0.6,0.2,0.7,1,1.3,1.2c0.1-0.4-0.1-0.6-0.4-1l0.5-0.2l-0.4-0.4
	c0.5-0.2,0.5-0.2,0.9,0.6l0.3-0.7c0.1,0,0.1,0,0.2,0.1c0.9,0.6,0.8,1.7,1.2,2.6c0,0.1-0.2,0.5-0.3,0.5c-0.8,0-1.5,0-2.4,0l0.3-0.9
	l-1.8,0.4l0.2-0.9L121.4,52.7z"/>
<path class="st3" d="M318.5,96.9c-0.2,0.1-0.4,0.2-0.6,0.2c-0.6-0.1-1.2,0.3-1.3,0.8c0,0,0,0,0,0c-0.7,0.1-0.7,0.1-1.2-0.4l-1,0.2
	l0.5,0.6l-0.7,0.4l-0.4-1.1l0.6-0.8l0.5,0.2c0.1-0.1,0.1-0.1,0.1-0.1c0.1-0.3,0.1-0.5,0.2-0.8c0-0.4,0.3-0.9,0-1.3
	c-0.1-0.1,0-0.3,0.1-0.4c0.1,0.1,0.3,0.1,0.4,0.2c0.2,0.2,0.4,0.5,0.5,0.8c0.2,0.4,0.4,0.8,1.1,0.7c0.2-0.1,0.5,0.2,0.9,0.4
	L318.5,96.9z"/>
<path class="st3" d="M298.9,128.2c-0.1-0.3-0.5-0.6-0.4-1c0,0,0-0.1,0-0.2c-0.7-0.2-0.4-0.9-0.8-1.3c0.6-0.1,0.6-0.6,0.7-1.1
	c0.1-0.4,0.1-1.1,0.2-1.6l1.2,0.2c0,0.2-0.1,0.5,0,0.7c0.3,0.5,0.2,1.2-0.2,1.6c-0.4,0.5-0.5,1.2-0.2,1.9l1.6,0.2l0.3,1.3l-0.1,0.1
	c-0.2-0.1-0.4-0.3-0.5-0.4c-0.2-0.5-0.7-0.3-1-0.5C299.5,127.8,299.1,128,298.9,128.2L298.9,128.2z"/>
<path class="st3" d="M135.8,119.2c-0.1-0.5,0.2-1.1,0.7-1.2c0.1,0,0.2,0,0.3,0c0.7,0,1.5,0.1,2.2,0.2c0.8,0.7,1.9,0.9,2.7,1.6
	c0.6,0.4,1.2,0.8,1.8,1c-0.4,0.5-0.4,0.5-2.5,0.5l0.2-0.6c-0.2-0.1-0.5-0.3-0.7-0.4c-0.2-0.2-0.3-0.5-0.4-0.7c-0.5,0-1-0.2-1.3-0.5
	c-0.4-0.3-0.9-0.6-1.4-0.7c-0.3,0-0.6,0-0.8,0.2C136.4,118.8,136.1,119,135.8,119.2z"/>
<path class="st3" d="M300.6,133l0.3,0.3c0.7-0.1,1.2-0.5,1.5-1.1c0.5,0.4,0.7,1,0.6,1.6c-0.2,0.3-0.4,0.7-0.5,1
	c-0.1,0.3-0.2,0.7-0.3,1c-1.4-0.3-1.5-0.8-1.2-1.5c-0.9-0.3-1.1-0.2-1.6,0.2C299.4,133.8,300,133.5,300.6,133z"/>
<path class="st3" d="M317.2,183.8c1.1,0,1.8,1,2.7,0.1c0.7,0.9-0.2,1.7,0,2.6l-0.4-0.1c-0.1,0.2-0.2,0.5-0.4,0.6
	c-0.3,0.1-0.6-0.1-0.8-0.4c-0.2-0.3-0.3-0.6-0.4-0.9c-0.1-0.3-0.3-0.6-0.4-1S317.4,184.1,317.2,183.8z"/>
<path class="st3" d="M119.2,48.9c0.2-0.9-0.6-0.9-0.9-1.2c0.3-0.7,0.7-0.6,1.6,0.1l0.2-0.4l0.5,0.2c0.1,0.1,0.3,0.1,0.4,0.1
	c0.2,0,0.5,0.1,0.7,0.1c0.5,0.1,0.9,0.6,1.5,0.6c0.2,0,0.5,0.5,0.6,0.8c0.1,0.1-0.1,0.4-0.2,0.5c-0.2,0.1-0.4,0.1-0.5,0
	c-0.3-0.2-0.6-0.4-0.9-0.7c-0.8-0.6-1.9-0.7-2.7-0.3C119.4,49,119.3,49,119.2,48.9z"/>
<path class="st3" d="M74.2,235.4l-0.1,1c-0.6,0.5-1.4,0.5-2.1,0.2c-0.5-0.2-0.6-0.6-0.4-1.1c0.2-0.4,0.1-1-0.1-1.4
	c0.8-0.3,1-0.2,1.5,0.3C73.4,234.8,73.8,235.1,74.2,235.4z"/>
<path class="st3" d="M136.1,70.9c0.1-0.4,0.3-0.7-0.1-0.7c-0.2,0-0.4,0.3-0.5,0.5c-0.1,0.2-0.1,0.6-0.2,0.8c-0.1,0.2-0.5,0.4-0.8,0
	c-0.1-0.1-0.2-0.2-0.4-0.2c-0.1-0.1-0.2-0.1-0.4-0.1c0-0.2,0.1-0.3,0.2-0.4c0.2-0.1,0.3-0.3,0.5-0.4c-0.1-0.6-0.1-1.3,0.1-1.9
	l0.3,0.1l-0.1,0.5c1.2-0.1,1.7,0.7,2.2,1.6h0.8l-0.2,0.8L136.1,70.9z"/>
<path class="st3" d="M360.9,236.1c0,0,0,0.2,0,0.3c-0.1,0.9-0.1,1-0.8,1.1c-0.6,0.2-1.3-0.1-1.7-0.6c-0.1-0.2-0.1-0.4,0-0.6
	c0.2-0.4,0.2-0.9-0.1-1.3c0.4-0.3,0.9-0.3,1.2,0L360.9,236.1z"/>
<path class="st3" d="M148.6,122.8c-0.8-0.2-1.3,0.3-1.9,0.1c-0.2,0-0.4,0.2-0.6,0.3c-0.5-0.4-1.2-0.2-1.7-0.2c-0.6,0-0.4,0-0.8-0.5
	l1.7,0.2l-0.4-1.2l1.2-0.1c0.2,0,0.3,0,0.5,0c0.6,0.2,1.1,0.4,1.6,0.7C148.3,122.3,148.4,122.5,148.6,122.8z"/>
<path class="st3" d="M286.3,48.6l-1.1,0.4c-0.1,0-0.3,0.2-0.4,0.2c-0.7-0.2-1.5,0-2.1,0.4c0,0-0.1,0-0.1-0.1
	c0.4-0.8,0.8-1.6,1.2-2.3c0.1-0.1,0.3-0.2,0.4-0.1c0.6,0.3,1.2,0.6,1.7,1C286,48.1,286.1,48.4,286.3,48.6z"/>
<path class="st3" d="M266.4,132c0.4,0.7,0.8,1.3,1.2,2c0.3,0.5,0.1,1.1-0.4,1.4c0,0-0.1,0-0.1,0c-0.5,0.3-0.9,0.2-1-0.4
	c-0.2-0.6-0.2-1.3-0.1-1.9c0.1-0.4,0.2-0.8,0.2-1.2L266.4,132z"/>
<path class="st3" d="M313.2,52.7c0.2,0.1,0.4,0.3,0.6,0.4c0.7,0.5,0.7,1,0.2,1.6c0,0.1-0.1,0.2-0.1,0.2c-0.2,0.2-0.4,0.5-0.7,0.5
	c-0.4,0-0.6-0.4-0.8-0.7C312.1,53.9,312.3,53.5,313.2,52.7z"/>
<path class="st3" d="M123.6,63.3l1.1-1.4c1,0.2,1.8,0.4,1.8,1.7c-0.3,0.1-0.7,0.3-1.1,0.4c-0.1,0-0.4,0.1-0.4,0
	C124.6,63.6,124.1,63.4,123.6,63.3z"/>
<path class="st3" d="M112.5,49.7c1-0.2,1.8-1,3-0.5l-0.7,0.5c0,0.2,0,0.4,0,0.6c-0.1,0.1-0.3,0.2-0.5,0.3c-0.2,0.1-0.3,0.1-0.5,0.2
	C113,51.1,112.5,50.7,112.5,49.7z"/>
<path class="st3" d="M222.4,50.8c-0.6,0.4-1.4,0.5-2.1,0.4c-0.3,0-0.6,0-0.8,0.1l0.1-1.2l-0.8-0.6c0.6-0.4,0.6-0.4,1.5-0.1l-0.1,0.8
	c0.5-0.2,1,0,1.4,0.3C221.8,50.6,222.1,50.7,222.4,50.8z"/>
<path class="st3" d="M305.7,107.7l1.1-0.7l0.8,1.2l-0.7,1.9l-0.8-0.3l0.3-1C305.7,108.8,306.2,108,305.7,107.7z"/>
<path class="st3" d="M127.1,49.5l-1.3,0.4c-0.6-0.2-0.5-1.2-1.3-1.2l0.1-1l1.8,0.8C127,48.8,127,48.8,127.1,49.5z"/>
<path class="st3" d="M236.8,45.6c0.6-0.5,1.4-0.8,2.1-0.8c1-0.3,2.1-0.1,3,0.4l-1.6,0.1c-0.1,0-0.2,0-0.3,0
	c-0.5,0.5-1.1,0.3-1.7,0.4C237.8,45.7,237.3,45.7,236.8,45.6z"/>
<path class="st3" d="M78.9,237.1c-0.3,0.9-1.1,1.5-2,1.4c0-0.4-0.1-0.7-0.1-1.1c0-0.4,0.2-0.7,0.7-0.8
	C78,236.6,78.5,236.8,78.9,237.1z"/>
<path class="st3" d="M291.2,122.2c-0.3,0.5-0.2,1.1-0.8,1.4c-0.4,0.3-0.9,0.2-1.2-0.2c0,0,0,0,0,0c-0.2-0.2-0.2-0.6,0-0.8
	c0,0,0,0,0.1,0c0.4-0.4,0.9-0.6,1.4-0.7c0.2-0.1,0.4,0,0.4,0.2C291.2,122.1,291.3,122.1,291.2,122.2z"/>
<path class="st3" d="M317,57.4l-2.8-0.4c0.6-0.6,1-1.4,1.9-1C316.7,56.2,317.1,56.8,317,57.4z"/>
<path class="st3" d="M127.9,54.8l-1.8-0.6c-0.1-0.6,0.4-0.9,0.7-1.2c0.3-0.3,1.2,0.1,1.3,0.8C128.1,54.1,128,54.5,127.9,54.8z"/>
<path class="st3" d="M298.9,119.2c-0.4-0.1-0.6-0.6-0.5-1c0.2-0.9,0.6-1.7,1.3-2.3c0,0.3,0.1,0.5,0.1,0.7
	C299.5,117.5,299.7,118.5,298.9,119.2z"/>
<path class="st3" d="M322.8,53.9c-0.5,0.6-1.3,0.9-2,0.5c-0.6-0.2-0.7-0.3-0.6-1C321,53.4,322,53.2,322.8,53.9z"/>
<path class="st3" d="M209.4,99.6l0.8-0.6c0.2,0.3,0.4,0.6,0.4,0.8c0,0.5-0.1,0.9-0.2,1.3c-0.1,0.2-0.3,0.3-0.5,0.3
	c-0.2-0.1-0.3-0.2-0.4-0.4C209.5,100.7,209.5,100.2,209.4,99.6z"/>
<path class="st3" d="M320.8,147.6l1-0.4c0,0,0.1-0.1,0.1,0c0.7,0.4,0.8-0.2,1-0.5c0.2-0.4,0.3-0.5,0.7-0.4l-0.3-0.7
	c0.1,0.1,0.2,0.1,0.3,0.1c0.5,0.5,0.4,0.5,0,1c-0.3,0.3-0.5,0.7-0.9,1C322.3,148.1,321.4,148.1,320.8,147.6z"/>
<path class="st3" d="M59.8,59c0.4,0.6,1.4-0.1,1.7,0.9c-0.9,0.3-1.8,0.3-2.7,0.1C59,59.5,59.4,59.1,59.8,59z"/>
<path class="st3" d="M300.1,152.5c0.5-0.5,1-0.9,1.4-1.4c0.6-0.5,1.4-0.8,2.2-0.8c-0.5,0.5-1.1,1-1.8,1.4
	C301.3,152.1,300.8,152.6,300.1,152.5z"/>
<path class="st3" d="M244,45.2c-0.1,0.2-0.2,0.3-0.3,0.3c-1,0.1-1.9,0.9-3.1,0.5l-0.2-0.7c0.3,0,0.6,0,0.8,0.1
	c0.5,0.2,1.1,0,1.5-0.4c0.1-0.1,0.2-0.1,0.4-0.1C243.4,45,243.6,45.1,244,45.2z"/>
<path class="st3" d="M112.1,48.6c0.5-0.5,1.3-0.6,1.9-0.3c0.2-0.2,0.4-0.3,0.6-0.4c0.2-0.1,0.5-0.1,0.7-0.1c0.2,0.1,0.3,0.2,0.4,0.4
	c0,0.2-0.1,0.4-0.4,0.4c-0.1,0-0.2,0-0.3,0.1c-0.5,0-1-0.4-1.5,0.1C113.2,48.5,112.7,48.8,112.1,48.6z"/>
<path class="st3" d="M141.6,222.1c0-0.3,0.1-0.5,0.1-0.7c0.2-0.6,0.8-0.9,1.3-0.7c0.1,0,0.2,0.1,0.3,0.1c0.1,0.1,0.3,0.4,0.2,0.4
	c-0.2,0.3-0.3,0.6-0.6,0.7C142.5,222.1,142,222.1,141.6,222.1z"/>
<path class="st3" d="M252.6,45c-0.2,0.1-0.3,0.1-0.5,0.2l-0.4,0.1v0.6c-0.4,0-0.7-0.1-1.1-0.2c-0.3-0.1-0.1-0.5,0-0.7
	C251.1,44.2,251.7,44.1,252.6,45z"/>
<path class="st3" d="M121.4,52.7l-1.1,0.5l-0.1-0.1l0.2-0.3l-0.7-0.8l0.3-0.4l0.5-0.1c0.6-0.3,0.6,0.4,0.9,0.6
	C121.5,52.1,121.3,52.5,121.4,52.7L121.4,52.7z"/>
<path class="st3" d="M214.9,102.7l-0.2,1.4c-0.8-0.3-1.6-0.7-2.2-1.4H214.9z"/>
<path class="st3" d="M345.4,61l1-0.8l1.3,0.4c0.4,0.1,0.6,0.3,0.4,0.6h-2.6L345.4,61z"/>
<path class="st3" d="M118.5,58c-1.3,0-1.7-0.5-1.3-1.7C117.9,56.6,118.4,57.2,118.5,58z"/>
<path class="st3" d="M81.3,79c-1.2,0.8-1.6,0.8-1.9,0C80.9,78.3,80.9,78.3,81.3,79z"/>
<path class="st3" d="M336.8,233.7c-0.6,0-1.2,0-1.8-0.1c-0.6-0.1-0.5-0.4-0.2-1l2.1,0.8L336.8,233.7z"/>
<path class="st3" d="M96.6,83.6h0.8l0.6,2C97.1,85.3,96.9,84.5,96.6,83.6z"/>
<path class="st3" d="M333.4,162.2c0,0,0.1-0.1,0.1-0.1c0.7,0.7,1.4,1.5,2.2,2.3C334.6,164.2,333.6,163.4,333.4,162.2z"/>
<path class="st3" d="M129,49.8c-0.4,0.7-0.4,0.7-2.7,0.3C127.2,49.7,128.1,49.6,129,49.8z"/>
<path class="st3" d="M276.3,47.5c-0.4-0.5-0.2-0.8,0-1.1c0.6,0,1.2,0.3,1.5,0.9L276.3,47.5z"/>
<path class="st3" d="M354.4,235.4c0.1-0.2,0.3-0.4,0.4-0.4c0.4,0,0.8,0.1,1.2,0.3c0.2,0.1,0.4,0.3,0.6,0.5
	C355.8,236.2,355,236,354.4,235.4z"/>
<path class="st3" d="M304.3,139.4l0.1,0.9h0.4v1l-0.6-0.1v0.8C303.7,141.1,303.8,140.1,304.3,139.4z"/>
<path class="st3" d="M69.7,235c-0.7,0.4-1.6,0.3-2.2-0.3c0.3-0.6,0.3-0.6,0.9-0.4c0.2,0.1,0.4,0.1,0.6,0.2
	C69.3,234.7,69.5,234.9,69.7,235z"/>
<path class="st3" d="M253.9,45.2l-0.5-0.4c0.1-0.1,0.1-0.2,0.1-0.3c0.6-0.2,1-0.9,1.9-0.3L253.9,45.2z"/>
<path class="st3" d="M210.2,98.8c-0.9-0.5-0.9-1,0.1-1.8C210.5,97.6,210.5,98.3,210.2,98.8z"/>
<path class="st3" d="M47.3,231.8c0.4,0.5,0.7,0.7,1.2,0.6c0.2,0,0.5,0.2,0.8,0.3c-0.5,0.3-0.5,0.3-1,0.2c-0.1,0-0.3-0.1-0.4-0.1
	C47.1,232.9,47.1,232.9,47.3,231.8z"/>
<path class="st3" d="M212.4,82.9l-0.9-0.8c0.2-0.2,0.3-0.3,0.4-0.3c0.2,0,0.5,0,0.5-0.4c0,0,0.2-0.1,0.3-0.1c0.1,0,0.1,0.1,0.2,0.2
	c0,0.3,0,0.6,0,0.8C212.8,82.4,212.6,82.6,212.4,82.9z"/>
<path class="st3" d="M301.4,129.1c0.8-0.2,0.8-0.2,0.8,0.3s0.1,1.3,0.1,1.9c-0.4-0.2-0.4-0.2-0.4-0.7
	C301.9,130.2,301.8,129.6,301.4,129.1z"/>
<path class="st3" d="M297.7,130.6c0,0.3,0,0.6-0.1,0.8c-0.6,0.6-0.8,1.5-1.7,1.7c0-0.1,0-0.3,0.1-0.3c0.6-0.4,1.1-1,1.3-1.8
	c0.1-0.2,0.2-0.3,0.3-0.4L297.7,130.6z"/>
<path class="st3" d="M300.4,130.7c0.3-0.1,0.4,0.4,0.7,0.2c0.1-0.1,0.2,0,0.1,0.6l0,0c-0.4,0.2-0.7,0.5-0.7,1l-0.9-0.7
	C300,131.7,300.4,131.2,300.4,130.7L300.4,130.7z"/>
<path class="st3" d="M361.2,81.8c0.1-0.2,0.2-0.3,0.4-0.6c0.1,0.2,0.1,0.3,0.1,0.5c-0.1,0.5-0.5,0.7-1.4,0.6l-0.5,0.7
	c-0.1-0.1-0.2-0.2-0.2-0.3c0.1-0.7,0.8-1.1,1.4-0.9C361.1,81.8,361.2,81.8,361.2,81.8z"/>
<path class="st3" d="M352.7,72.2v-0.4l1.2-0.2l1.1,0.8l-0.4,0.5l-0.7-0.9L352.7,72.2z"/>
<path class="st3" d="M247.5,44.3l0.4-0.2l-0.5-0.5c0.5-0.3,1.1-0.3,1.5,0C248.4,44.5,248.4,44.5,247.5,44.3z"/>
<path class="st3" d="M316.8,53.4c0.2,0,0.5,0.1,0.7,0.1c0.1,0,0.4,0.2,0.4,0.3c0,0.2,0,0.4-0.2,0.5c-0.2,0.1-0.4,0.2-0.6,0.3
	C316.8,54.2,316.8,54.2,316.8,53.4z"/>
<path class="st3" d="M249.8,45.5c-0.3,0.3-0.4,0.8-1,0.4c-0.1,0-0.2,0-0.2,0c-0.3,0.5-0.6,0.2-1,0.1c0.3-0.5,0.8-0.4,1-0.6
	C249.1,44.9,249.5,45.5,249.8,45.5z"/>
<path class="st3" d="M151.4,88.5c0.9,0,1.7,0.5,2.3,1.2C152.8,89.6,152,89.2,151.4,88.5z"/>
<path class="st3" d="M300.4,150.3c-0.7,0.5-1.6,0.5-2.4,0.2c0.3-0.3,0.3-0.3,1.2-0.3L300.4,150.3z"/>
<path class="st3" d="M249.8,61.4l1.5,1c-0.8,0.3-1.3-0.1-1.7-0.4C249.4,62,249.5,61.6,249.8,61.4z"/>
<path class="st3" d="M326.5,148.8c-0.9-0.3-1.2-0.7-1.2-1.9C325.7,147.6,326.4,147.9,326.5,148.8z"/>
<path class="st3" d="M156.6,196.3l-1.8,0.9c0.1-0.5,0.4-1,0.8-1.2C155.7,195.8,156.1,196,156.6,196.3z"/>
<path class="st3" d="M296.3,150l1,0.5v0.2c-0.5,0.1-0.9,0.1-1.4,0.2c-0.1,0-0.2-0.2-0.3-0.3c0.1-0.1,0.3-0.2,0.4-0.2
	C296.2,150.5,296.4,150.5,296.3,150z"/>
<path class="st3" d="M140.3,122.7c0.6-0.3,1.3-0.2,1.8,0.3C141.3,123.6,141.3,123.6,140.3,122.7z"/>
<path class="st3" d="M68,71.3l-0.2,0.3c-0.3-0.2-0.5-0.4-0.8-0.5c-0.3,0-0.7,0-1,0c-0.2-0.2-0.2-0.4,0.1-0.4c0.5,0,1.1-0.3,1.5,0.4
	C67.6,71.1,67.8,71.1,68,71.3z"/>
<path class="st3" d="M143.2,64.8c-0.3,0.3-0.4,0.6-0.7,0.7s-0.5-0.2-0.5-0.6c0-0.3,0.1-0.6,0.5-0.6
	C142.7,64.4,142.9,64.6,143.2,64.8z"/>
<path class="st3" d="M147.8,216c0.2,0.6-0.2,1.1-0.4,1.7C146.8,217.1,146.9,216.6,147.8,216z"/>
<path class="st3" d="M154.8,92.2l-0.6,1.7c-0.2,0-0.4-0.2-0.4-0.4c0,0,0-0.1,0-0.1c0.1-0.5,0.4-0.9,0.8-1.2L154.8,92.2z"/>
<path class="st3" d="M160.7,91.1c0.4,0,0.7-0.1,0.7-0.8c0.1,0.3,0.2,0.6,0.2,1c0,0.2-0.1,0.4-0.2,0.5c-0.2,0.1-0.3,0-0.4-0.2
	c0,0-0.3,0-0.4,0C160.6,91.4,160.7,91.2,160.7,91.1L160.7,91.1z"/>
<path class="st3" d="M230,105.6c0.2,0.4-0.1,0.6-0.4,0.8c-0.3,0.2-0.7,0.1-1-0.2c0,0,0,0,0,0C229,105.7,229.5,105.7,230,105.6z"/>
<path class="st3" d="M306.4,145.2l-1.9-0.2v-0.3c0.7-0.2,1.4-0.1,1.9,0.3V145.2z"/>
<path class="st3" d="M215.6,63.8l0.7,0.1c-0.3,0.8-0.6,0.9-1.2,0.6l0.2-0.3L215.6,63.8z"/>
<path class="st3" d="M108.6,53.4l-0.6-0.2l1-1.2C109.1,52.6,109.1,52.6,108.6,53.4z"/>
<path class="st3" d="M69.3,75.3c0.3-0.1,0.5-0.2,0.8-0.3c0.2,0,0.3,0.1,0.5,0.2c-0.1,0.1-0.2,0.4-0.3,0.4c-0.3,0-0.7,0-1-0.1
	L69.3,75.3z"/>
<path class="st3" d="M242.8,62.9l-0.4,0.9c-0.5-0.3-0.7-0.6-0.5-0.9C242,62.7,242.4,62.7,242.8,62.9z"/>
<path class="st3" d="M221.7,105.6c0.7,0.2,1.5-0.1,2.2,0.4C223.1,106.3,222.3,106.1,221.7,105.6z"/>
<path class="st3" d="M220.5,78.7c-0.1-0.1-0.1-0.1-0.2-0.2c0-0.1-0.1-0.2-0.1-0.3c0.3-0.2,0.6-0.4,1.1-0.2
	C221.3,78.5,220.9,78.6,220.5,78.7z"/>
<path class="st3" d="M111.9,49.3c-0.3,0.2-0.4,0.3-0.6,0.3c-0.2,0-0.4-0.1-0.5-0.3c0,0,0-0.1,0-0.1c0-0.2,0.3-0.4,0.4-0.4
	C111.4,48.8,111.6,49.1,111.9,49.3z"/>
<path class="st3" d="M156,212.3c0.7,0.1,0.7,0.1,0.8,0.8C156.1,213,156.1,213,156,212.3z"/>
<path class="st3" d="M135.4,72.7l1.5-0.8C136.6,72.6,136.2,72.8,135.4,72.7z"/>
<path class="st3" d="M352.7,76c-0.3,0.3-0.5,0.6-1,0.3c-0.2-0.1-0.2-0.3-0.1-0.5c0,0,0.1-0.1,0.1-0.1
	C352.1,75.5,352.4,75.7,352.7,76z"/>
<path class="st3" d="M188.2,53.2l0.9,0.5c-0.3,0.2-0.6,0.6-1,0.3c-0.2-0.2-0.2-0.4-0.1-0.6C188,53.3,188.1,53.2,188.2,53.2z"/>
<path class="st3" d="M218.2,79.1l-0.5,1.3C217.2,79.8,217.3,79.5,218.2,79.1z"/>
<path class="st3" d="M85.9,228.7l-1.7,0.4c0.4-0.6,0.7-0.7,1.7-0.6L85.9,228.7z"/>
<path class="st3" d="M323.4,60l0.8,1l-1.2,0.1L323.4,60z"/>
<path class="st3" d="M300.4,130.7c-0.2,0.1-0.4,0.2-0.5,0.3c-0.1,0.1-0.3,0.1-0.4,0.2l0.2-1.1C300.1,130.1,300.3,130.3,300.4,130.7
	L300.4,130.7z"/>
<path class="st3" d="M298.7,152.1c-0.6,0.3-0.9-0.2-1.4-0.4C298,151.4,298.3,151.5,298.7,152.1z"/>
<path class="st3" d="M298.9,128.1l0.4,1.1l-0.2,0.1l-0.8-1.2L298.9,128.1L298.9,128.1z"/>
<path class="st3" d="M151.5,92.4c0.1,0,0.2,0,0.3-0.1c0.2,0.5,0.7,0.4,1,0.4c0.2,0,0.4,0.1,0.4,0.3c0,0,0,0.1,0,0.1l-1-0.1l0,0
	L151.5,92.4L151.5,92.4z"/>
<path class="st3" d="M344,160.1c0.1-0.4,0.5-0.4,0.8-0.3c0.1,0,0.1,0.3,0.1,0.4C344.9,160.3,344.5,160.4,344,160.1z"/>
<path class="st3" d="M356.1,76.2l1.1-0.3c0.2,0.3,0.2,0.4-0.1,0.6C356.7,76.7,356.4,76.5,356.1,76.2z"/>
<path class="st3" d="M154.2,195.9h0.6c0.1,0,0.1,0,0.2,0.1c-0.2,0.4-0.6,0.7-1.1,0.8L154.2,195.9z"/>
<path class="st3" d="M287.5,144.6c-0.6-0.1-0.4-0.8-0.9-1.1C287.3,143.5,287.5,143.7,287.5,144.6z"/>
<path class="st3" d="M332.9,78.3c-0.2-0.4,0-0.9,0.5-1c0,0,0.1,0,0.1,0C333.7,77.8,333.1,77.9,332.9,78.3z"/>
<path class="st3" d="M78.9,121.7l-0.6,0.4c-0.1-0.1-0.1-0.1-0.2-0.2c-0.2-0.4,0-0.6,0.4-0.8L78.9,121.7z"/>
<path class="st3" d="M142.7,196.1l0.2-1.1l0.6,0.6l-0.5,0.6L142.7,196.1z"/>
<path class="st3" d="M130.5,50.2l0.2-0.8h0.2c0.1,0.2,0.3,0.3,0.3,0.5C131.1,50.2,130.9,50.2,130.5,50.2z"/>
<path class="st3" d="M84.3,232.2l-0.1-1.4c0.7,0.3,0.8,0.6,0.4,1.1L84.3,232.2L84.3,232.2z"/>
<path class="st3" d="M303.9,145.1c-0.4,0.3-0.9,0.2-1.2-0.2c0,0,0,0,0,0C303.1,144.8,303.5,144.4,303.9,145.1z"/>
<path class="st3" d="M197.3,79c0.1-0.5,0-1,0.7-1.2C197.8,78.3,197.9,78.8,197.3,79z"/>
<path class="st3" d="M309.2,148.7l0.2-1.1C309.9,147.8,309.9,148,309.2,148.7z"/>
<path class="st3" d="M217.3,63.2l-0.6,0.3c0-0.5,0-0.5,0.5-1C217.2,62.8,217.2,63,217.3,63.2L217.3,63.2z"/>
<path class="st3" d="M319.9,95.2l1.3-1c0,0.8-0.8,0.7-1.1,1.2L319.9,95.2z"/>
<path class="st3" d="M264.5,58.6c0.6-0.8,0.6-0.8,1.2-0.4L264.5,58.6z"/>
<path class="st3" d="M300.5,146.3l0.4-0.1c-0.2,0.4,0.2,0.7-0.3,1.1l-0.4-0.5L300.5,146.3L300.5,146.3z"/>
<path class="st3" d="M151.4,213.1l0.6-0.5l0.2,0.8l-0.8-0.1L151.4,213.1z"/>
<path class="st3" d="M149.6,122.8h1C150.2,123.4,150.1,123.4,149.6,122.8z"/>
<path class="st3" d="M359,83.4l-1.2,0.4C358.1,83.1,358.3,83.1,359,83.4z"/>
<path class="st3" d="M140.2,61.8c-0.5,0.7-0.5,0.7-1.2,0.4L140.2,61.8z"/>
<path class="st3" d="M144.4,99h1.1v0.2l-1.3,0.3L144.4,99L144.4,99z"/>
<path class="st3" d="M143.9,188.5c-0.4,0.2,0.3,0.9-0.4,0.8C143.3,188.6,143.3,188.6,143.9,188.5z"/>
<path class="st3" d="M72.3,82.6L71.1,83C71.5,82.3,71.5,82.3,72.3,82.6z"/>
<path class="st3" d="M155.3,93c-0.1,0.5-0.1,0.5-0.5,0.8C154.7,93.2,154.7,93.2,155.3,93z"/>
<path class="st3" d="M244.7,45.7c0.4-0.3,0.7-0.4,1,0.1C245.3,46.1,245,45.9,244.7,45.7z"/>
<path class="st3" d="M259.3,56.3c0.4,0.7,0.4,0.7-0.4,0.8L259.3,56.3z"/>
<path class="st3" d="M336.1,157.8c0.3,0.2,0.4,0.2,0.5,0.3c0,0.1,0.1,0.5,0,0.5c-0.3,0.2-0.4-0.1-0.4-0.3
	C336.1,158.1,336.1,157.9,336.1,157.8z"/>
<path class="st3" d="M330.2,151.5c-0.5,0.3-0.5,0.3-0.8-0.2L330.2,151.5z"/>
<path class="st3" d="M123.7,45.7l0.5,0.8C123.5,46.4,123.5,46.4,123.7,45.7z"/>
<path class="st3" d="M158.2,211.3c-0.3,0.3-0.5,0.6-0.9,0.1C157.5,211.1,157.8,210.9,158.2,211.3z"/>
<path class="st3" d="M212.8,83c-0.5,0.7-0.5,0.7-1,0.3L212.8,83z"/>
<path class="st3" d="M247.3,42.7l0.9-0.3c-0.1,0.4-0.5,0.6-0.8,0.5L247.3,42.7z"/>
<path class="st3" d="M345.9,158.3c-0.1,0.7-0.5,0.7-1,0.8C345.1,158.6,345.4,158.5,345.9,158.3z"/>
<path class="st3" d="M57.7,159.1l-1,0.1c0.4-0.5,0.6-0.6,1-0.4V159.1z"/>
<path class="st3" d="M249.8,46.6c0.2-0.4,0.4-0.6,0.6-0.3c0.1,0.1,0,0.3,0,0.4L249.8,46.6z"/>
<path class="st3" d="M336,190.6l0.5,0.8l-0.6,0.2L336,190.6z"/>
<path class="st3" d="M120.5,51.4l-0.5,0.1c-0.2-0.2-0.3-0.4,0-0.6C120.2,50.9,120.5,51,120.5,51.4z"/>
<path class="st3" d="M151.6,71.6l0.8,0.1c-0.3,0.2-0.5,0.3-0.6,0.4s-0.2-0.2-0.3-0.3L151.6,71.6z"/>
<path class="st3" d="M337.7,62.2c-0.2,0.1-0.3,0.1-0.3,0.1c-0.2-0.1-0.3-0.2-0.5-0.3c0,0,0-0.2,0.1-0.2c0.2,0,0.3,0.1,0.5,0.1
	C337.5,62,337.6,62.1,337.7,62.2z"/>
<path class="st3" d="M329.2,150.2l-0.8-0.7C329.1,149.4,329.1,149.9,329.2,150.2z"/>
<path class="st3" d="M50.4,61.4L50,60.7C50.7,60.9,50.7,60.9,50.4,61.4z"/>
<path class="st3" d="M266.4,57.3c-0.1,0.1-0.3,0.3-0.3,0.3c-0.2-0.1-0.3-0.2-0.4-0.3c0.1-0.1,0.2-0.3,0.4-0.3S266.3,57.1,266.4,57.3
	z"/>
<path class="st3" d="M119.4,50.2c-0.2-0.2-0.6-0.4-0.3-0.8C119.5,49.6,119.5,49.9,119.4,50.2z"/>
<path class="st3" d="M129.4,142.3l-0.5,0.3v-1L129.4,142.3z"/>
<path class="st3" d="M289,144.7l-0.7,0.1c0-0.1-0.1-0.3,0-0.3S288.7,144.3,289,144.7z"/>
<path class="st3" d="M130.7,51.6C130.7,51.6,130.7,51.5,130.7,51.6c0-0.3-0.3-0.5,0-0.6c0.1,0,0.2,0.1,0.2,0.2
	C131.1,51.4,131,51.5,130.7,51.6L130.7,51.6z"/>
<path class="st3" d="M155.1,209.9l0.8-0.4l0.1,0.2l-0.8,0.5L155.1,209.9z"/>
<path class="st3" d="M205.5,100.3l0.3,0.4l-0.5,0.5l0.1-0.9L205.5,100.3z"/>
<path class="st3" d="M220.2,60.5l0.9-0.4c-0.1,0.4-0.5,0.6-0.8,0.6L220.2,60.5z"/>
<path class="st3" d="M225.9,48.2l0.8,0.1v0.1h-0.8L225.9,48.2z"/>
<path class="st3" d="M275.3,44.2l0.8-0.1c-0.3,0.4-0.5,0.4-0.8,0.3L275.3,44.2z"/>
<path class="st3" d="M311.6,156c-0.1,0.1-0.2,0.2-0.3,0.2s-0.1-0.1-0.2-0.2l0.3-0.2L311.6,156z"/>
<path class="st3" d="M248.5,161.6c0.1,0.2,0.2,0.4-0.1,0.6c0,0-0.2,0-0.2,0C248,161.8,248.2,161.7,248.5,161.6z"/>
<path class="st3" d="M139.6,72.8l-0.2,0.7c-0.6-0.4-0.1-0.6,0-0.8L139.6,72.8z"/>
<path class="st3" d="M307,141.9c-0.4,0.4-0.6,0.2-0.9-0.1L307,141.9z"/>
<path class="st3" d="M218.8,76.1l-0.4-0.3c0-0.1,0.1-0.2,0.2-0.2c0.1,0.1,0.3,0.2,0.4,0.3L218.8,76.1z"/>
<path class="st3" d="M138.5,85.3l-0.9-0.3C138,84.8,138,84.8,138.5,85.3z"/>
<path class="st3" d="M69.3,84.6c0.1-0.2-0.1-0.8,0.6-0.6L69.3,84.6z"/>
<path class="st3" d="M154.1,130.6l0.1,0.7c-0.1,0-0.2,0-0.2,0C153.8,131.1,153.7,130.8,154.1,130.6z"/>
<path class="st3" d="M243.5,46.6l0.5-0.3C244.2,46.9,243.8,46.8,243.5,46.6z"/>
<path class="st3" d="M197.7,79.3l0.4,0.9C197.7,80.1,197.6,79.7,197.7,79.3C197.7,79.4,197.7,79.3,197.7,79.3z"/>
<path class="st3" d="M294.1,149.9l-0.2-0.4l0.6,0.1C294.5,150.1,294.4,150.3,294.1,149.9L294.1,149.9z"/>
<path class="st3" d="M301.2,131.5L301.2,131.5l0.5,0.2c-0.1,0.1-0.1,0.2-0.2,0.2C301.2,131.9,301.2,131.7,301.2,131.5L301.2,131.5z"
	/>
<path class="st3" d="M221.5,61.3l-0.3-0.3c0.1-0.1,0.2-0.2,0.3-0.2c0,0,0.2,0.1,0.1,0.1C221.6,61,221.5,61.1,221.5,61.3z"/>
<path class="st3" d="M312.6,83.4c-0.1,0.1-0.2,0.2-0.3,0.1c-0.1,0-0.2-0.2-0.2-0.3c0.1-0.1,0.2-0.2,0.3-0.2c0.1,0,0.3,0.1,0.4,0.1
	L312.6,83.4z"/>
<path class="st3" d="M322.3,93.7l-0.4,0.5l-0.2-0.1l0.3-0.6L322.3,93.7z"/>
<path class="st3" d="M293.1,168.2l-0.2,0.3l-0.4-0.6L293.1,168.2z"/>
<path class="st3" d="M153,220.7l-0.1-0.7c0.1,0,0.2,0,0.3,0.1C153.4,220.2,153.2,220.4,153,220.7z"/>
<path class="st3" d="M121.7,49.4l0.6,0.2c0,0.1,0,0.2-0.1,0.2C122,50,121.7,49.9,121.7,49.4z"/>
<path class="st3" d="M218.3,46.1c-0.3,0.1-0.6,0-0.8-0.3C217.9,45.8,218.1,45.7,218.3,46.1L218.3,46.1z"/>
<path class="st3" d="M185.3,67.4l-0.5-0.1v-0.2l0.5,0.1V67.4z"/>
<path class="st3" d="M151.7,199.9h-0.5v-0.2h0.5L151.7,199.9z"/>
<path class="st3" d="M136.9,119.6c0-0.2,0-0.3,0-0.5c0,0,0.1,0,0.1,0c0,0.2,0.1,0.3,0.1,0.5H136.9z"/>
<path class="st3" d="M144.2,64.9c-0.2,0.1-0.3,0.1-0.4,0.1c-0.1,0-0.1-0.1-0.2-0.2c0.1-0.1,0.2-0.2,0.3-0.2
	C144,64.6,144,64.7,144.2,64.9z"/>
<path class="st3" d="M301.1,129.9l-0.5-0.2l0.1-0.2l0.6,0.2L301.1,129.9z"/>
<path class="st3" d="M140.9,116.7c-0.2,0-0.3,0.1-0.4,0.1c-0.1-0.1-0.1-0.1-0.2-0.2c0,0,0.1-0.2,0.2-0.1
	C140.6,116.5,140.7,116.6,140.9,116.7z"/>
<path class="st3" d="M281.6,142.7l0.3,0.8C281.4,143.3,281.4,143,281.6,142.7z"/>
<path class="st3" d="M311.6,178.1h0.6C311.9,178.5,311.8,178.5,311.6,178.1z"/>
<path class="st3" d="M292.7,55.6c0,0.1,0,0.2-0.1,0.3s-0.2,0-0.4-0.1l0.4-0.4L292.7,55.6z"/>
<path class="st3" d="M154.3,210.7l-0.5-0.1v-0.2l0.5,0.1V210.7z"/>
<path class="st3" d="M322.6,144.8l0.6,0.3l-0.1,0.2l-0.6-0.3L322.6,144.8z"/>
<path class="st3" d="M354.8,85.4l0.4-0.5l0.2,0.1l-0.4,0.6L354.8,85.4z"/>
<path class="st3" d="M48.6,190.3v0.4h-0.2v-0.4H48.6z"/>
<path class="st3" d="M327,148.6l0.6,0.7C327.1,149.3,327,149,327,148.6z"/>
<path class="st3" d="M292.7,148h0.6v0.1h-0.6L292.7,148z"/>
<path class="st3" d="M139.8,80.2l-0.1,0.6h-0.1l0-0.6H139.8z"/>
<path class="st3" d="M68.6,84.4l-0.4,0.3l-0.1-0.1l0.4-0.4L68.6,84.4z"/>
<path class="st3" d="M295.4,150l-0.1,0.4l-0.2,0l0.1-0.4L295.4,150z"/>
<path class="st3" d="M327.8,150.4c-0.1-0.1-0.1-0.3-0.2-0.4l0.1-0.1l0.2,0.4L327.8,150.4z"/>
<path class="st3" d="M217.9,61.9l0.1-0.6C218.3,61.7,218.3,61.7,217.9,61.9L217.9,61.9z"/>
<path class="st3" d="M217.9,61.9c0,0.1,0,0.3,0,0.3c-0.1,0-0.2,0-0.4,0c0-0.1,0-0.2,0.1-0.3S217.9,61.9,217.9,61.9L217.9,61.9z"/>
<path class="st3" d="M81.3,77.8L80.8,78C80.8,77.5,80.8,77.5,81.3,77.8z"/>
<path class="st3" d="M152.6,213c-0.1-0.5,0-0.6,0.4-0.6L152.6,213z"/>
<path class="st3" d="M139.1,52.4l0.5-0.2l0.1,0.1c-0.1,0.1-0.1,0.2-0.2,0.3c-0.1,0-0.2,0-0.3,0L139.1,52.4z"/>
<path class="st3" d="M149.7,214.7l-0.4,0.1l-0.1-0.2l0.4-0.1L149.7,214.7z"/>
<path class="st3" d="M356.4,84.8l-0.3,0.4l-0.1-0.1l0.3-0.4L356.4,84.8z"/>
<path class="st3" d="M111.5,51c-0.1,0.1-0.2,0.1-0.3,0.2c0,0-0.1-0.1-0.1-0.2c0-0.1,0.1-0.2,0.1-0.2C111.2,50.8,111.4,50.9,111.5,51
	z"/>
<path class="st3" d="M249.1,42.3c-0.1,0.1-0.2,0.1-0.2,0.1c-0.1-0.1-0.1-0.1-0.2-0.2c0.1,0,0.2-0.1,0.2-0.1
	C248.9,42.1,249,42.2,249.1,42.3z"/>
<path class="st3" d="M280.6,140.6l-0.4-0.5l0.6,0.3L280.6,140.6z"/>
<path class="st3" d="M304.8,139.5l-0.1-0.4l0.1-0.1l0.2,0.4L304.8,139.5z"/>
<path class="st3" d="M331,152.3l0.4,0.3l-0.1,0.1l-0.4-0.2L331,152.3z"/>
<path class="st3" d="M247.2,44.2l-0.4-0.1v-0.1l0.4,0.1V44.2z"/>
<path class="st3" d="M85.8,238l-0.4-0.2h0.4L85.8,238z"/>
<path class="st3" d="M59.8,67.9c-0.4-0.3-0.4-0.3,0-0.8C60.3,67.3,59.9,67.6,59.8,67.9L59.8,67.9z"/>
<path class="st3" d="M113.3,98.9l-0.5-0.6c0,0,0.1-0.1,0.1-0.1C113.3,98.1,113.4,98.3,113.3,98.9z"/>
<path class="st3" d="M95.5,79.5l-0.2-0.4h0.2C95.6,79.2,95.6,79.4,95.5,79.5L95.5,79.5z"/>
<path class="st3" d="M137.3,93.8l-0.5-0.1v-0.2l0.5,0.2V93.8z"/>
<path class="st4" d="M396,233c-4.6,9.4-11.4,17.5-19.8,23.7c-0.4,0.1-0.8,0.1-1.2,0.2c-0.1-3.8-0.1-11.1-0.3-15
	c-1.1-15.8-9.1-30.5-19.8-42.2c-2.3-2.6-5-5.5-4.8-9c0-1.3,0.6-2.5,1.7-3.2c1.6-1,3.7-0.1,5.4,0.8c2.4,1.3,10.5,7.2,13.1,6.7
	c3.1-0.6,1.8-8.8,1.9-11.2c0.2-10.1,0.4-20.3,0.6-30.4c9.1,9.2,15.5,20.9,18.3,33.5c1,5,1.8,10.1,2.2,15.3
	C394.5,212.5,395.6,222.7,396,233z"/>
<path class="st4" d="M57.7,190.7c0.1,3.5-2.5,6.4-4.9,9c-10.6,11.7-18.6,26.4-19.7,42.2c-0.3,3.5-0.1,6.9-0.2,10.4
	c-7.2-0.5-14.2-2-20-6.3c-0.4-0.3-0.7-0.6-1.1-0.9c-0.1-1.1-0.2-2.3-0.2-3.4c0.1-13.2,1.4-26.3,2.8-39.5c0.4-5.1,1.2-10.2,2.2-15.3
	c2.9-12.7,9.2-24.3,18.4-33.5c0.2,10.1,0.4,20.2,0.6,30.4c0.1,2.5-1.2,10.6,1.9,11.2c2.6,0.5,10.6-5.4,13.1-6.7
	c1.7-0.9,3.8-1.7,5.4-0.8C57.1,188.2,57.7,189.4,57.7,190.7z"/>
<linearGradient id="SVGID_00000109022684664199763730000008771518467909312157_" gradientUnits="userSpaceOnUse" x1="411.3605" y1="283.7756" x2="-248.9096" y2="-25.8343" gradientTransform="matrix(0.975 0 0 -0.975 -18.9349 317.4053)">
	<stop  offset="0" style="stop-color:#000000;stop-opacity:0"/>
	<stop  offset="0.99" style="stop-color:#000000"/>
</linearGradient>
<rect x="198.8" y="33.8" style="fill:url(#SVGID_00000109022684664199763730000008771518467909312157_);" width="165.5" height="108.2"/>
<linearGradient id="SVGID_00000139281174179030051210000009093140204050737033_" gradientUnits="userSpaceOnUse" x1="150.7208" y1="128.9349" x2="399.3008" y2="248.7849" gradientTransform="matrix(0.975 0 0 -0.975 -18.9349 317.4053)">
	<stop  offset="0" style="stop-color:#000000;stop-opacity:0"/>
	<stop  offset="0.99" style="stop-color:#000000"/>
</linearGradient>
<rect x="44.5" y="140.6" style="fill:url(#SVGID_00000139281174179030051210000009093140204050737033_);" width="154.6" height="108.2"/>
</svg>
