<?xml version="1.0" encoding="utf-8"?>
<!-- Generator: Adobe Illustrator 26.0.1, SVG Export Plug-In . SVG Version: 6.00 Build 0)  -->
<svg version="1.1" id="Capa_1" xmlns="http://www.w3.org/2000/svg" xmlns:xlink="http://www.w3.org/1999/xlink" x="0px" y="0px"
	 viewBox="0 0 24 24" style="enable-background:new 0 0 24 24;" xml:space="preserve">
<style type="text/css">
	.st0{fill:#6A6A6A;}
</style>
<path class="st0" d="M19,17.5c-0.7-0.7-0.9-1.9-0.5-2.8l0,0c0.4-1,1.3-1.6,2.4-1.6h0.1c0.6,0,1.1-0.4,1.1-1s-0.4-1-1-1h-0.2
	c-1.1,0-2-0.7-2.4-1.6l0,0c-0.4-1-0.2-2.1,0.5-2.8l0.1-0.1c0.4-0.4,0.4-1,0-1.4c-0.4-0.4-1-0.4-1.4,0L17.5,5
	c-0.7,0.7-1.9,0.9-2.8,0.5l0,0c-1-0.4-1.6-1.3-1.6-2.4V3.1C13,2.4,12.6,2,12,2s-1,0.4-1,1v0c0,1.1-0.7,2.1-1.7,2.5l0,0
	C8.3,6,7.1,5.7,6.4,5l0,0L3.7,2.3L2.3,3.7l18,18l1.4-1.4l-2.6-2.6C19.1,17.7,19,17.5,19,17.5z M12,10c0-1.1,0.9-2,2-2s2,0.9,2,2
	s-0.9,2-2,2c-0.3,0-0.5-0.1-0.7-0.1l-1.1-1.1C12,10.5,12,10.2,12,10z M8,13c-0.6,0-1-0.4-1-1c0-0.2,0.1-0.5,0.2-0.6L5.4,9.6
	C5,10.4,4.1,11,3.1,11h0C2.4,11,2,11.4,2,12s0.4,1,1,1h0.1c1.1,0,2,0.6,2.5,1.6l0,0c0.4,1,0.2,2.2-0.6,2.9l0,0c-0.4,0.4-0.4,1,0,1.4
	c0.4,0.4,1,0.4,1.4,0l0,0c0.8-0.8,1.9-1,2.9-0.6l0.1,0.1c0.9,0.4,1.5,1.3,1.5,2.3v0.1c0,0.6,0.4,1.1,1,1.1s1-0.4,1-1v-0.2
	c0-1,0.6-1.9,1.4-2.3l-5.8-5.8C8.5,12.9,8.2,13,8,13z"/>
</svg>
